<svg width="302" height="192" viewBox="0 0 302 192" fill="none" xmlns="http://www.w3.org/2000/svg">
<path d="M0 38.4164C0.0819454 38.4984 0.331684 38.6665 0.690683 38.9401C1.15894 39.2722 1.81841 39.8506 2.7042 40.3469C3.53146 40.8706 4.52261 41.4217 5.62692 41.918C5.73618 42.7191 5.84934 43.5203 5.9586 44.2902C5.87665 44.2355 5.82203 44.1534 5.7674 44.1261C5.82203 44.2355 5.87666 44.4309 6.04445 44.7045C6.26297 46.1935 6.51271 47.6589 6.78977 49.1205C6.73514 49.1752 6.70782 49.23 6.65319 49.2848C5.85325 50.1953 5.30304 50.8597 5.19378 51.0239C5.35767 50.9692 6.04835 50.7737 7.0395 50.4728C7.14876 50.4454 7.25803 50.4181 7.37119 50.3907C8.63939 49.9217 10.4851 49.6716 12.1943 49.3433C13.8761 49.1518 15.4994 49.0932 16.7949 49.1245C13.1035 51.442 9.79443 53.5406 9.79443 53.5406C9.79443 53.5406 13.7902 52.9896 18.1997 52.4112C16.9042 52.9349 15.636 53.2945 14.5356 53.4312C13.4898 53.6227 12.6352 53.6226 12.0265 53.5679C11.3943 53.5406 11.0353 53.5133 11.0353 53.5133C11.0353 53.5133 11.367 53.6501 11.9445 53.9002C12.4947 54.205 13.3493 54.5333 14.4536 54.756C16.2174 55.1703 18.6133 55.2797 21.0951 55.0061C18.586 56.7179 16.5491 58.1248 16.5491 58.1248C16.5491 58.1248 19.6357 57.8746 23.1359 57.6284C21.8677 58.3749 20.6268 58.9807 19.4991 59.2855C18.9762 59.4496 18.4806 59.5357 18.0397 59.563C17.5714 59.6451 17.1578 59.6724 16.8534 59.6176C16.1628 59.5903 15.7803 59.563 15.7803 59.563C15.7803 59.563 16.1393 59.6998 16.7715 59.9772C17.1032 60.1414 17.4895 60.2547 17.9851 60.3368C18.4533 60.4736 19.0035 60.5556 19.6396 60.5869C21.1263 60.7237 22.9447 60.4502 24.7943 60.0359C23.5261 61.1693 22.2579 62.2166 21.2668 63.1271C20.0259 64.2019 19.1167 64.9757 18.9255 65.1711C19.1713 65.089 20.303 64.7568 21.9028 64.2605C23.6939 63.6821 26.285 62.963 28.7667 62.0524C29.5667 61.6929 30.3939 61.3333 31.1939 61.0051C29.4028 62.6074 27.5024 63.901 26.0938 65.0343C24.7163 66.0817 23.7525 66.8555 23.53 67.0196C23.8071 66.9649 24.9894 66.66 26.6713 66.2184C28.5443 65.6673 31.2446 65.1711 33.781 64.1745C35.0765 63.7329 36.3721 63.2912 37.5856 62.8496C37.9446 62.7128 38.3036 62.5996 38.6314 62.4901C38.6587 62.4901 38.686 62.5175 38.7134 62.5175C37.6676 63.2092 36.5906 63.897 35.4902 64.5067C32.1577 66.3005 28.4077 67.3205 25.5162 67.4338C24.0841 67.5159 22.8433 67.4338 22.016 67.297C21.3526 67.1876 20.9156 67.1329 20.7478 67.1329C20.9117 67.215 21.298 67.383 21.9067 67.6566C22.7067 68.0161 23.9203 68.4304 25.407 68.7313C28.4116 69.423 32.7118 69.4504 36.8988 68.4812C39.8489 67.7347 42.795 66.6874 45.2768 65.6401C45.5812 65.7768 45.9128 65.8902 46.2133 66.0269C46.2133 66.0269 46.186 66.0269 46.186 66.0543C45.1948 66.6053 44.0905 67.0195 42.9628 67.4338C38.4987 69.1182 33.4845 69.5872 29.7891 69.8373C26.043 70.0601 23.5613 70.1148 23.5613 70.1148C23.5613 70.1148 25.9884 70.5838 29.7345 71.1348C33.4571 71.6585 38.5807 72.2955 43.954 71.5217C45.2768 71.3302 46.6269 71.1348 47.9498 70.6932C49.2999 70.3884 50.4862 69.9193 51.6139 69.423C51.6412 69.423 51.6412 69.3957 51.6685 69.3957C52.3319 69.1182 52.9641 68.8446 53.5962 68.5945C53.7055 68.6218 53.8147 68.6493 53.9279 68.6767C53.4323 69.0362 52.9367 69.3684 52.4099 69.6693C51.173 70.49 49.9321 71.2442 48.7341 71.932C48.5468 72.0375 48.3673 72.1352 48.1878 72.2329C47.0523 72.8621 45.9441 73.4406 44.9451 73.8939C43.513 74.613 42.2721 74.996 41.4175 75.3555C40.7854 75.633 40.3445 75.7971 40.1494 75.8792C40.3406 75.8518 40.8088 75.7972 41.4995 75.7151C42.4087 75.551 43.7589 75.4923 45.3314 75.1367C48.2268 74.6403 51.9456 73.5617 55.719 72.1548C54.6186 73.1474 53.5143 74.0307 52.4412 74.6404C51.8363 75.082 51.2003 75.332 50.6501 75.5509C50.0999 75.8283 49.6043 75.9925 49.1633 76.0746C48.3088 76.2661 47.8132 76.4068 47.8132 76.4068C47.8132 76.4068 48.3088 76.4068 49.218 76.4341C49.6589 76.4615 50.2091 76.4068 50.8452 76.2973C51.4773 76.2153 52.2226 76.1058 52.968 75.8557C55.4497 75.1952 58.3412 73.593 61.1547 71.6898C59.9684 73.1514 58.7861 74.5895 57.6818 75.9417C56.4409 77.3486 55.118 78.5366 54.0449 79.6114C52.1719 81.4599 50.8218 82.7574 50.4901 83.1169C50.8764 82.9254 52.5036 81.9875 54.8449 80.6588C56.1677 79.8576 57.7949 79.0291 59.4182 77.9544C60.6591 77.0438 61.9819 76.0785 63.3048 75.1132C62.7078 76.4497 62.1849 77.8762 61.6932 79.3456C61.5683 79.7169 61.4474 80.0921 61.3264 80.4711C60.8737 81.9484 60.4679 83.4765 60.1323 85.0905C60.0738 85.368 60.0348 85.665 59.9801 85.9464C59.6914 87.4471 59.4612 89.0103 59.2856 90.6322C59.2504 90.9683 59.2036 91.2927 59.1724 91.6327C58.9968 93.4929 58.9031 95.4391 58.8875 97.4596C58.8875 97.5886 58.8719 97.698 58.868 97.827C58.8641 98.0458 58.8953 98.2842 58.8953 98.507C58.9031 100.176 58.9656 101.895 59.0865 103.673C59.0865 103.697 59.0865 103.716 59.0905 103.736C59.0905 104.314 59.1451 104.897 59.1997 105.475C59.309 105.889 59.3909 106.304 59.4768 106.718C59.4768 106.718 59.4768 106.718 59.4768 106.745C59.5314 106.995 59.5314 107.241 59.586 107.492C59.4768 108.07 59.3909 108.652 59.2817 109.231C58.8407 111.161 58.0954 113.014 57.2135 114.53L56.9365 114.339C56.8272 114.448 56.5775 115.249 56.0273 116.383C55.5044 117.129 54.8683 117.571 54.5132 118.012C54.1542 118.372 53.9357 118.591 53.8498 118.704C53.9864 118.649 54.2635 118.54 54.7044 118.317C54.8137 118.262 54.9502 118.208 55.0907 118.153C54.9268 118.403 54.759 118.649 54.5952 118.927C53.7679 119.533 52.968 120.087 52.2265 120.584C49.8267 122.159 48.2034 123.206 48.2034 123.206C48.2034 123.206 49.7448 122.71 52.1446 121.963C51.9807 122.127 51.8402 122.295 51.7037 122.46C49.9672 124.171 47.899 125.633 46.1899 126.543C46.1899 126.543 46.1899 126.543 46.1626 126.543C45.9909 126.649 45.8465 126.712 45.6904 126.794C45.0739 127.102 44.5081 127.321 44.0983 127.536C43.5754 127.755 43.2711 127.896 43.2711 127.896C43.2711 127.896 43.6028 127.896 44.1803 127.868H44.7851C45.2885 127.872 45.8777 127.884 46.5762 127.786C47.3762 127.704 48.3127 127.564 49.3038 127.372C48.8902 127.814 48.4219 128.255 47.9537 128.697C46.5762 129.744 45.1168 130.96 43.9032 131.538C43.4623 131.788 43.0487 132.034 42.7443 132.202C42.7209 132.218 42.7131 132.222 42.6897 132.234C42.1824 132.519 41.8624 132.699 41.8624 132.699C41.8624 132.699 42.7989 132.753 44.2037 132.808C44.7812 132.89 45.4446 132.863 46.1314 132.836C46.0221 132.89 45.9402 132.972 45.827 133.058C45.1948 133.363 44.5042 133.719 43.7862 134.188C43.0955 134.602 42.3814 135.153 41.6907 135.735C41.2225 136.013 40.8088 136.259 40.4225 136.423L40.1767 137.17C38.9631 138.44 37.89 139.874 37.0627 141.476C36.2628 143.079 35.8219 144.595 35.4082 145.975C34.94 147.163 34.6083 148.433 33.9215 149.175C33.2854 149.976 32.4894 150.445 31.8807 150.61C31.3851 150.746 31.0261 150.719 30.9168 150.719C31.0261 150.774 31.3578 150.91 31.9353 150.969C32.2436 151 32.6455 150.953 33.0825 150.852C33.223 150.82 33.3674 150.758 33.5118 150.711C33.7303 150.641 33.941 150.602 34.1673 150.496C34.3585 150.414 34.581 150.305 34.7722 150.191C35.2677 149.914 35.6814 149.531 36.095 149.085C35.818 149.5 35.5721 149.914 35.2951 150.328C34.6746 151.2 34.062 152.063 33.4728 152.888C33.0357 153.497 32.6065 154.096 32.2085 154.635L32.1928 154.682C31.6622 155.428 31.1783 156.096 30.792 156.636C30.6632 156.816 30.5461 156.976 30.4408 157.128C30.0232 157.714 29.754 158.086 29.754 158.086C29.754 158.086 31.5997 157.066 34.0542 155.686C34.0269 155.713 34.0269 155.741 33.9995 155.768C32.8718 157.343 30.9676 159.051 28.8448 160.599C26.6674 162.06 24.2129 163.166 22.2579 163.772C22.0082 163.881 21.735 163.936 21.5126 164.022C20.8493 164.186 20.2717 164.272 19.8581 164.382C19.2533 164.518 18.9216 164.6 18.9216 164.6C18.9216 164.6 19.2533 164.655 19.8581 164.737C20.1898 164.792 20.6307 164.874 21.1263 164.96C21.5126 165.015 21.9262 165.069 22.3945 165.069C23.9671 165.179 25.9494 165.151 28.0448 164.878C27.0264 165.871 26.3084 166.59 26.3084 166.59C26.3084 166.59 28.3765 166.426 30.7998 166.257L29.7813 169.403L28.9814 169.349C25.1221 169.044 21.6219 171.666 20.7985 175.449L19.6123 180.885C18.8396 184.391 21.1848 187.814 24.7397 188.338L24.8763 188.365C29.036 188.999 33.1723 187.15 35.5136 183.645L44.3051 170.451H44.2232L55.879 152.896C61.3342 152.231 66.2119 151.375 70.6799 150.328C69.9346 151.239 69.4936 152.177 69.1073 152.755C68.7756 153.279 68.5571 153.611 68.5025 153.748C68.639 153.638 68.9161 153.361 69.3844 152.974C70.0165 152.478 70.7072 151.594 71.8934 150.903C72.5568 150.434 73.3255 149.965 74.1255 149.496C75.062 149.249 75.9712 148.972 76.8804 148.694C76.1624 149.66 75.5029 150.516 74.8708 151.235C73.5753 152.728 72.748 153.72 72.748 153.72C72.748 153.72 73.907 153.142 75.6707 152.259C77.5165 151.403 79.7212 149.941 82.0937 148.476C82.921 147.897 83.7482 147.288 84.5443 146.682C84.0487 147.456 83.635 148.171 83.358 148.726C82.8624 149.609 82.5854 150.105 82.5854 150.105C82.5854 150.105 82.9717 149.691 83.6311 148.945C84.2945 148.171 85.231 147.124 86.5266 146.045C87.4358 145.216 88.5362 144.333 89.7224 143.45C92.0286 142.211 94.1982 140.867 96.1493 139.409C95.8839 139.964 95.6108 140.531 95.2752 141.097C94.3699 142.418 93.449 143.895 92.5476 144.771C91.6696 145.732 91.0921 146.369 91.0921 146.369C91.0921 146.369 91.9389 146.182 93.2149 145.896C93.4919 145.849 93.7846 145.775 94.0811 145.693C93.7768 146.346 93.4685 146.959 93.1368 147.456C92.7115 148.315 92.1574 148.827 91.8179 149.281C91.4589 149.715 91.2521 149.961 91.2521 149.961C91.2092 149.914 92.4578 149.515 94.085 148.351C94.8382 147.858 95.6069 147.186 96.3912 146.463C96.1532 148.042 95.7942 149.484 95.5093 150.656C95.162 152.02 94.9357 152.923 94.9357 152.923C94.9357 152.923 95.5562 152.341 96.4888 151.465C96.239 152.47 95.9698 153.408 95.6498 154.17C95.0762 155.768 94.6977 156.831 94.6977 156.831C94.6977 156.831 95.5171 156.05 96.7502 154.869C97.5463 154.181 98.3774 153.24 99.2476 152.204C99.2866 152.259 99.3256 152.317 99.3686 152.372C99.1891 154.451 98.436 156.272 97.7219 157.804C96.9024 159.547 96.2546 160.685 96.2546 160.685C96.2546 160.685 97.2848 159.911 98.7637 158.594C99.5325 157.961 100.336 157.101 101.23 156.136C101.417 155.882 101.612 155.616 101.804 155.354L102.018 155.612C101.866 157.281 101.714 158.895 101.409 160.141C101.074 161.873 100.855 163.022 100.855 163.022C100.855 163.022 101.554 162.084 102.603 160.669C102.518 161.908 102.416 163.088 102.237 164.038C101.995 165.656 101.831 166.73 101.831 166.73C101.831 166.73 102.088 166.383 102.486 165.835C102.338 166.347 102.198 166.836 102.073 167.285C101.562 169.161 101.226 170.408 101.226 170.408C101.226 170.408 102.026 169.403 103.232 167.887C103.977 166.965 104.898 165.855 105.862 164.64C105.831 165.245 105.776 165.824 105.671 166.336C105.581 167.137 105.237 167.688 105.105 168.157C104.933 168.61 104.836 168.868 104.836 168.868C104.836 168.868 105.038 168.688 105.394 168.372C105.713 168.032 106.365 167.614 106.845 166.91C107.274 166.39 107.696 165.722 108.102 164.999C108.48 168.477 108.843 171.822 108.843 171.822C108.843 171.822 109.783 170.021 110.97 167.739C111.056 170.377 111.052 173.19 111.052 173.19C111.052 173.19 112.363 171.78 113.97 169.931L114.216 170.224C114.22 170.373 114.236 170.513 114.236 170.662C114.037 172.401 113.978 174.394 113.405 175.688C112.944 177.091 112.64 178.025 112.64 178.025C112.64 178.025 113.381 177.372 114.505 176.391C115.379 175.742 116.179 174.734 117.022 173.589L117.361 173.995C119.796 179.064 124.912 186.982 133.235 187.232L141.266 187.576C147.97 187.576 147.97 182.312 146.027 179.127C143.369 174.781 133.938 174.32 132.112 170.677L118.915 144.927C121.197 139.385 122.945 134.301 124.245 129.561C124.335 129.553 124.424 129.541 124.58 129.522H124.608V129.467C124.772 129.248 125.353 127.45 126.013 125.215C126.699 127.231 127.445 129.135 127.527 130.542C127.69 131.921 127.168 132.859 127.058 133.054C127.14 133 127.335 132.859 127.636 132.613C127.995 132.253 128.49 131.648 128.822 130.764C129.427 129.275 129.649 127.427 129.895 125.52C130.391 126.844 130.941 128.279 131.109 129.385C131.386 130.545 131.55 131.343 131.55 131.343C131.55 131.343 131.881 130.596 132.432 129.522C132.681 129.053 132.9 128.474 133.118 127.864C133.2 128.083 133.31 128.333 133.395 128.584C133.672 129.549 133.836 130.432 133.946 131.233C134.082 132.781 133.477 133.828 133.532 133.856C133.532 133.801 134.523 133.137 135.241 131.456C135.518 130.682 135.764 129.772 135.959 128.806C136.619 130.241 137.145 131.319 137.145 131.319C137.145 131.319 137.586 130.244 138.191 128.834C138.382 129.357 138.55 129.854 138.55 130.295C138.769 131.757 138.909 132.726 138.909 132.726C138.909 132.726 139.296 131.788 139.873 130.409C139.9 130.354 139.9 130.272 139.928 130.217C140.064 131.515 140.092 132.785 139.955 133.805C139.928 134.551 139.709 135.102 139.651 135.544C139.541 135.985 139.487 136.232 139.487 136.232C139.487 136.232 139.651 136.04 139.955 135.708C140.232 135.376 140.755 134.934 141.169 134.301C141.887 133.363 142.628 132.038 143.237 130.577C143.319 130.799 143.401 131.046 143.428 131.237C143.732 132.48 143.592 133.391 143.619 133.391C143.619 133.363 144.224 132.671 144.723 131.347C145.274 129.994 145.578 128.119 145.715 126.184V125.992C145.824 126.325 145.964 126.653 146.046 127.013C146.955 129.854 147.619 132.671 147.233 134.766C147.069 135.813 146.682 136.642 146.296 137.166C146.023 137.525 145.828 137.771 145.746 137.912C146.077 137.744 147.4 137.084 148.446 135.208C149.024 134.215 149.41 132.972 149.687 131.647C150.596 134.133 151.369 136.146 151.369 136.146C151.369 136.146 151.946 133.66 152.637 130.737C153.133 132.062 153.464 133.387 153.574 134.52C153.737 135.485 153.546 136.259 153.546 136.837C153.519 137.416 153.492 137.748 153.492 137.748C153.492 137.748 153.655 137.443 153.905 136.947C154.096 136.423 154.651 135.677 154.869 134.684C155.283 133.359 155.529 131.675 155.587 129.826C155.778 130.987 155.919 132.062 155.891 133C155.919 134.629 155.946 135.731 155.946 135.731C155.946 135.731 156.442 134.739 157.16 133.246C157.932 131.866 158.482 129.905 159.142 127.837C159.169 127.919 159.197 128.001 159.251 128.087C159.786 129.643 160.379 131.206 160.828 132.656C160.773 132.738 160.718 132.812 160.664 132.894C158.689 135.262 156.75 137.592 156.75 137.592C156.75 137.592 158.654 137.236 160.98 136.798C160.753 137.045 160.527 137.287 160.277 137.521C159.048 138.674 157.577 139.632 156.328 140.148C155.716 140.456 155.162 140.538 154.771 140.679C154.373 140.792 154.147 140.859 154.147 140.859C154.147 140.859 154.37 140.925 154.76 141.039C155.154 141.129 155.739 141.375 156.465 141.449C157.554 141.64 158.982 141.691 160.508 141.543C159.801 142.477 159.271 143.086 159.271 143.086C159.271 143.086 159.708 143.016 160.422 142.86C159.747 143.665 159.033 144.376 158.443 144.978C157.569 145.822 156.988 146.381 156.988 146.381C156.988 146.381 157.78 146.299 158.978 146.17C159.579 146.088 160.313 146.025 161.097 145.912L161.046 146.143C160.847 146.252 160.644 146.361 160.445 146.436C159.442 146.799 158.58 146.772 158.584 146.807C158.592 146.76 159.189 147.303 160.445 147.745C160.515 147.768 160.609 147.78 160.687 147.8L160.406 149.081C154.19 145.498 151.283 144.747 147.283 146.952C143.069 149.273 141.266 155.428 145.504 158.476C149.738 161.525 153.566 162.498 159.735 162.982C170.751 163.674 173.084 158.183 173.982 155.221L183.928 133.211C183.944 133.258 183.971 133.297 183.987 133.344C184.787 135.993 185.778 138.725 185.969 140.851C186.328 143.004 186.547 144.439 186.547 144.439C186.547 144.439 186.824 143.032 187.265 140.878C187.788 138.975 187.897 136.462 188.065 133.813C188.201 134.145 188.342 134.504 188.478 134.86C189.388 137.674 189.61 140.851 189.224 143.223C189.169 144.439 188.755 145.349 188.619 146.064C188.482 146.588 188.396 146.948 188.369 147.084C188.478 146.948 188.673 146.643 188.947 146.229C189.278 145.592 190.02 144.794 190.492 143.606C190.906 142.805 191.265 141.812 191.565 140.738C191.756 142.946 191.729 145.044 191.51 146.756C191.428 148.026 191.042 149.019 190.933 149.765C190.824 150.316 190.714 150.703 190.687 150.84C190.796 150.703 190.991 150.371 191.264 149.902C191.596 149.238 192.283 148.355 192.779 147.116C193.852 144.826 194.792 141.539 195.315 138.092C195.647 140.109 195.92 141.984 195.947 143.555C196.056 144.962 195.892 146.123 195.756 146.952C195.647 147.78 195.592 148.249 195.592 148.249C195.592 148.249 195.783 147.807 196.115 147.034C196.474 146.26 196.942 145.158 197.247 143.692C197.578 142.449 197.797 140.933 198.019 139.331C198.074 139.608 198.128 139.854 198.21 140.105C198.679 141.179 199.092 142.395 199.642 143.36C200.688 145.404 201.765 147.252 202.538 148.992C203.283 150.758 203.697 152.524 203.779 154.041C203.888 155.588 203.447 156.827 203.147 157.71C202.678 158.512 202.401 158.981 202.401 158.981C202.401 158.981 202.788 158.566 203.447 157.906C203.97 157.105 204.797 155.862 205.074 154.154C205.406 152.552 205.406 150.594 205.102 148.523L206.233 150.094C206.233 150.48 206.233 150.895 206.206 151.282C206.042 153.959 205.543 156.718 204.524 158.512C204.165 159.504 203.56 160.114 203.201 160.638C202.842 161.161 202.624 161.439 202.624 161.439C202.624 161.439 202.928 161.247 203.451 160.915C203.947 160.556 204.856 160.141 205.574 159.285C206.428 158.594 207.228 157.601 207.97 156.499C207.833 157.742 207.474 158.957 207.06 160.005C206.538 161.411 205.987 162.572 205.601 163.373C205.324 163.952 205.105 164.366 205.024 164.534C205.16 164.397 205.464 164.065 205.905 163.569C206.483 162.877 207.31 161.912 208.219 160.614C208.906 159.649 209.652 158.488 210.202 157.054C210.092 159.536 209.597 161.994 209.015 163.815C208.77 164.835 208.352 165.581 208.161 166.16C207.938 166.738 207.802 167.043 207.802 167.043C207.802 167.043 208.048 166.793 208.461 166.351C208.848 165.91 209.534 165.304 210.17 164.448C210.943 163.483 211.77 162.267 212.594 160.888C212.594 161.025 212.621 161.193 212.621 161.357C212.484 162.877 212.457 164.643 211.989 165.8C211.657 166.875 211.411 167.649 211.357 167.844C211.439 167.789 211.634 167.621 211.907 167.43C211.575 168.176 211.244 168.837 210.943 169.333C210.393 170.08 210.061 170.494 210.061 170.494C210.061 170.494 210.475 170.162 211.22 169.583C211.88 168.891 212.902 167.899 213.643 166.382C213.753 166.218 213.807 166.023 213.889 165.859C214.358 165.417 214.798 164.921 215.239 164.397C215.544 165.226 215.817 166.082 216.121 166.937C216.149 166.965 216.149 167.02 216.149 167.047C215.735 169.173 214.826 171.158 213.78 172.565C212.98 173.503 212.321 174.359 211.712 174.801C211.162 175.297 210.83 175.574 210.83 175.574C210.83 175.574 211.216 175.41 211.907 175.105C212.652 174.828 213.561 174.222 214.689 173.476C215.489 172.897 216.344 172.069 217.144 171.131C217.335 172.428 217.366 173.616 217.198 174.664C217.007 175.684 216.757 176.594 216.426 177.145C216.094 177.724 215.93 178.056 215.93 178.056C215.93 177.974 216.894 177.368 217.916 175.903C217.807 176.344 217.752 176.622 217.752 176.622C217.752 176.622 217.916 176.372 218.221 175.961C218.525 175.547 219.048 174.969 219.489 174.195C219.902 173.503 220.343 172.678 220.757 171.795C221.143 172.76 221.475 173.78 221.721 174.804C222.298 177.231 222.298 179.799 221.885 181.733C221.775 182.726 221.335 183.418 221.167 183.996C220.972 184.547 220.835 184.879 220.835 184.879C220.835 184.879 221.081 184.629 221.467 184.188C221.826 183.719 222.572 183.168 223.094 182.23C223.399 181.761 223.727 181.237 224.004 180.659C224.581 179.525 225.108 178.146 225.49 176.684L225.627 176.848C225.627 176.848 230.259 191.558 239.542 191.558L250.179 192C257.043 192 257.043 186.618 255.057 183.332C252.329 178.888 242.847 178.419 240.974 174.695L222.291 127.442L223.395 124.875C223.477 126.309 223.754 127.607 224.168 128.654C224.359 129.232 224.636 129.701 224.886 130.115C225.104 130.557 225.354 130.889 225.572 131.136C226.013 131.659 226.263 131.937 226.263 131.937C226.263 131.937 226.126 131.577 225.904 130.971C225.767 130.667 225.682 130.28 225.6 129.838C225.518 129.396 225.436 128.928 225.463 128.376C225.436 128.017 225.436 127.603 225.49 127.216C225.654 125.641 226.236 123.874 227.172 122.276C227.945 121.834 228.714 121.393 229.459 120.896C229.486 121.088 229.486 121.311 229.514 121.475C229.568 122.331 229.873 123.022 230.036 123.46C230.228 123.902 230.313 124.152 230.313 124.152C230.313 124.152 230.341 123.874 230.395 123.405C230.45 122.936 230.477 122.299 230.809 121.584C231.141 120.674 231.718 119.681 232.491 118.798C233.677 117.914 234.832 116.977 235.964 115.984C235.577 116.867 235.246 117.723 235 118.524C234.504 120.208 234.422 121.643 234.422 122.635C234.504 123.601 234.559 124.152 234.559 124.152C234.559 124.152 234.641 123.601 234.778 122.663C235 121.725 235.41 120.427 236.21 119.048C237.283 117.117 239.078 115.128 241.005 112.811C241.197 112.701 241.364 112.588 241.392 112.588L241.31 112.478C241.86 111.787 242.414 111.071 242.992 110.298C242.937 110.63 242.855 110.962 242.796 111.263C242.437 113.084 241.942 114.577 241.669 115.624C241.392 116.699 241.228 117.309 241.228 117.309C241.228 117.309 241.505 116.758 242 115.765C242.469 114.8 243.296 113.42 244.037 111.681C244.443 110.782 244.865 109.793 245.29 108.738C245.294 108.723 245.302 108.715 245.306 108.699C245.653 107.832 246.004 106.905 246.351 105.948C246.472 105.62 246.585 105.284 246.703 104.944C246.944 104.248 247.182 103.541 247.413 102.814C247.541 102.411 247.666 102.016 247.791 101.606C248.119 100.527 248.435 99.4332 248.72 98.3194C248.997 97.1861 249.243 96.0293 249.493 94.8686V97.0492C249.575 98.8978 249.274 100.637 249.188 102.126C248.896 104.654 248.661 106.433 248.618 106.956H248.611V107.038C248.658 106.917 248.767 106.651 248.899 106.315C249.231 105.51 249.777 104.146 250.456 102.427C250.925 100.993 251.697 99.3355 252.111 97.4323C252.361 96.4944 252.634 95.5017 252.884 94.4778C253.047 93.4577 253.161 92.3791 253.297 91.277C253.379 90.6986 253.379 90.1164 253.406 89.5106C253.598 90.7807 253.765 92.0235 253.847 93.0982C254.015 94.7005 254.039 96.0253 254.097 96.9632C254.152 97.8738 254.179 98.425 254.179 98.425C254.179 98.425 254.288 97.9013 254.456 96.9907C254.62 96.0527 254.952 94.7553 255.147 93.153C255.279 92.4182 255.397 91.6132 255.498 90.7573C255.537 90.4407 255.56 90.0968 255.592 89.7646C255.646 89.1823 255.697 88.5961 255.732 87.9747C255.752 87.5995 255.759 87.2165 255.771 86.8296C255.791 86.2239 255.798 85.6181 255.795 84.9889C255.791 84.5199 255.771 84.0509 255.756 83.5703C255.744 83.2928 255.748 83.027 255.732 82.7457C255.705 82.1673 255.65 81.5577 255.596 80.9519C255.318 78.994 254.963 77.1142 254.632 75.3478C256.091 69.4974 257.664 64.8857 261.109 61.9078C263.782 58.3202 269.351 63.9244 276.32 66.0738C278.33 66.6796 280.452 67.0118 282.657 66.7383C283.613 66.8868 284.561 66.8788 285.494 66.7929C285.65 66.7772 285.806 66.7734 285.962 66.7539C286.337 66.7031 286.704 66.621 287.07 66.535C287.226 66.4998 287.375 66.4646 287.527 66.4216C287.866 66.3278 288.198 66.2184 288.522 66.0934C288.686 66.0309 288.838 65.9644 288.998 65.8941C289.825 65.5345 290.614 65.1007 291.335 64.5575C291.406 64.5028 291.468 64.4402 291.538 64.3855C291.554 64.3738 291.57 64.3582 291.585 64.3465C291.737 64.2254 291.882 64.0963 292.026 63.9674C292.537 63.5179 293.009 63.0255 293.439 62.4862C293.486 62.4276 293.544 62.3847 293.591 62.326C293.618 62.287 293.649 62.244 293.677 62.2088C293.727 62.1424 293.778 62.072 293.825 62.0016C293.911 61.8805 294.001 61.7671 294.086 61.6381C294.305 61.2786 294.527 60.9191 294.719 60.5322L301.61 47.2838C302.437 45.6268 301.914 43.6415 300.369 42.6488L287.527 34.3129L286.177 33.4296C283.808 31.8821 282.54 30.78 281.986 28.0209L281.408 25.5079C279.808 15.1594 248.478 5.63543 238.832 16.539C234.618 21.2599 231.145 25.121 228.167 28.4351C226.567 30.01 224.558 31.9134 222.408 33.7072C220.121 35.6651 217.721 37.2674 215.657 38.0412C214.638 38.4281 213.729 38.6469 213.093 38.729C212.43 38.811 212.047 38.8658 212.047 38.8658C212.047 38.8658 212.434 38.9478 213.066 39.0885C213.257 39.1159 213.48 39.1432 213.698 39.1706C212.539 39.8623 211.521 40.687 210.693 41.2146C209.589 42.0431 208.848 42.5668 208.848 42.5668C208.848 42.5668 209.784 42.5394 211.162 42.4573C210.389 42.7621 209.675 43.0357 209.012 43.3131C206.53 44.2784 204.766 44.9703 204.325 45.1618C204.516 45.1618 204.985 45.107 205.703 45.025C205.703 45.025 205.675 45.0249 205.648 45.0523C203.084 46.213 200.466 47.0923 198.511 47.8388C197.922 48.0537 197.422 48.2373 196.969 48.4015C196.735 48.4835 196.493 48.5734 196.306 48.636H196.279C195.647 48.8861 195.26 49.0228 195.26 49.0228C195.26 49.0228 195.397 49.0229 195.674 49.0503C195.896 49.0503 196.212 49.0502 196.583 49.0541C196.899 49.0619 197.25 49.0698 197.656 49.0776C196.134 49.2808 194.667 49.4215 193.165 49.6052C189.723 50.0273 186.317 50.4141 182.953 50.7424C181.466 50.887 179.999 51.0042 178.524 51.1293C175.757 51.3716 172.995 51.5984 170.255 51.782C168.702 51.8876 167.153 51.9695 165.604 52.0555C162.888 52.2079 160.172 52.3487 157.46 52.4503C156.016 52.505 154.569 52.548 153.121 52.5871C150.264 52.6692 147.404 52.7316 144.524 52.7629C142.925 52.7824 141.317 52.7942 139.705 52.7981C137.828 52.8059 135.947 52.8059 134.051 52.7941C131.398 52.7746 128.721 52.7395 126.02 52.6887C124.897 52.6692 123.784 52.6534 122.649 52.6261C119.168 52.544 115.633 52.4346 112.039 52.3096C111.465 52.29 110.911 52.2744 110.338 52.2548C106.049 52.0946 101.675 51.9109 97.1795 51.6999C63.3945 52.8059 44.7617 39.0886 28.8604 22.1939C27.1239 20.0132 23.8734 15.9019 20.6502 11.7867C18.3636 8.94556 16.3228 6.10049 14.918 3.83771C13.759 1.82114 13.0176 0.332187 12.8225 0C12.8771 0.359543 13.1542 1.98522 13.7044 4.33397C14.0907 5.74088 14.6136 7.39792 15.2184 9.13702C14.6136 8.44529 14.0868 7.78484 13.7044 7.15173C12.7952 5.85425 12.1865 4.9984 12.1865 4.9984C12.1865 4.9984 12.2957 6.04573 12.4908 7.62068C12.5181 8.14437 12.6001 8.69931 12.7093 9.30506C11.605 8.86345 10.7505 8.53126 10.368 8.39447H10.3407C10.2042 8.33976 10.1456 8.31242 10.1456 8.31242C10.1456 8.31242 10.3095 8.75404 10.5319 9.44186C10.5319 9.44186 10.5593 9.44182 10.5593 9.46917C10.7778 10.6846 11.0002 11.8962 11.2187 13.139C10.5866 12.5606 10.0325 11.9782 9.61883 11.4271C9.09594 10.8488 8.79157 10.2665 8.51452 9.87956C8.26478 9.46531 8.1282 9.2465 8.1282 9.2465C8.1282 9.2465 8.15552 9.5239 8.18283 9.99287C8.23746 10.4345 8.23747 11.1536 8.40526 11.9508C8.70963 13.6079 9.39641 15.8159 10.61 17.9419C10.8324 18.3014 11.0509 18.6572 11.3007 19.0167C7.90969 18.2429 5.07281 17.6097 5.07281 17.6097C5.07281 17.6097 5.4045 17.8833 5.90007 18.3288C3.03588 17.723 0.885792 17.2541 0.885792 17.2541C0.885792 17.2541 2.84468 18.661 5.4045 20.5095C5.76349 20.9238 6.20444 21.4201 6.6727 21.9711C6.01323 21.8617 5.34986 21.807 4.77234 21.807C3.72266 21.7523 2.84468 21.8344 2.26325 21.9438C1.68573 22.0533 1.35405 22.1079 1.35405 22.1079C1.35405 22.1079 2.7042 22.2448 4.49529 23.0733C5.18598 23.3781 5.92738 23.7924 6.70001 24.2887C5.48644 24.3708 4.63187 24.4528 4.63187 24.4528C4.63187 24.4528 5.70886 25.6135 6.97316 26.993C5.9547 26.7156 5.01818 26.3599 4.24555 25.9183C3.50024 25.5861 3.0593 25.0624 2.64567 24.785C2.36861 24.5661 2.15009 24.3981 2.06815 24.316C2.09546 24.3981 2.17741 24.6482 2.3452 25.0077C2.59494 25.422 2.81346 26.1958 3.36367 26.8837C4.21824 28.2085 5.79081 29.7522 7.80042 30.9402C5.18207 32.015 2.81346 33.0115 2.81346 33.0115C2.81346 33.0115 3.72266 33.289 5.01818 33.7032C4.82698 33.758 4.63187 33.8126 4.44066 33.8674C4.10898 33.7032 3.89046 33.6172 3.80461 33.5898C3.83193 33.6445 3.94119 33.7813 4.10898 33.9767C3.0632 34.3089 2.37251 34.5278 2.37251 34.5278C2.37251 34.5278 3.47683 34.7779 5.07281 35.1609C5.2367 35.3524 5.43181 35.5752 5.67765 35.7667C5.86885 35.9308 6.09127 36.0988 6.3098 36.2356C5.04159 36.5951 4.21434 36.814 4.21434 36.814C4.21434 36.814 5.2328 37.0329 6.77806 37.4198C5.84154 38.1389 5.12354 38.6625 5.12354 38.6625C5.12354 38.6625 5.89617 39.0221 6.96926 39.4637C5.5918 39.4637 4.26897 39.3542 3.16465 39.1315C2.1735 39.022 1.40088 38.7446 0.850673 38.6352C0.409729 38.5023 0.136576 38.4476 0 38.4164ZM124.237 129.506C124.276 129.369 124.315 129.228 124.35 129.096C124.413 129.225 124.479 129.369 124.506 129.416C124.381 129.451 124.315 129.478 124.237 129.506Z" fill="white"/>
</svg>
