<svg width="111" height="44" viewBox="0 0 111 44" fill="none" xmlns="http://www.w3.org/2000/svg">
<path d="M0.734679 30.8947C0.726848 27.7908 1.88836 24.6477 3.94035 22.226C1.5631 19.458 0.362245 15.7216 0.769188 12.1777C1.35453 7.08396 5.18923 2.55177 10.0944 1.15618C12.4586 0.483843 15.0255 0.582027 17.518 1.44011C19.8759 2.25193 22.0109 3.68022 23.692 5.57069C24.5726 6.56062 25.192 7.47971 25.7386 8.29043C27.177 10.4244 27.899 11.4954 31.9518 11.4775L79.3027 11.269C83.3556 11.2512 84.072 10.1738 85.4996 8.02739C86.0419 7.21161 86.6569 6.28707 87.5326 5.28941C89.204 3.38431 91.3317 1.93726 93.6854 1.10469C96.1735 0.224676 98.74 0.103755 101.107 0.755386C106.019 2.10774 109.877 6.60619 110.488 11.6944C110.913 15.2357 109.731 18.9815 107.368 21.7706C109.745 24.5387 110.946 28.2741 110.539 31.8187C109.954 36.9127 106.119 41.4448 101.213 42.84C98.8495 43.5125 96.2825 43.4145 93.79 42.5564C91.4321 41.7447 89.2972 40.3164 87.6161 38.4261C86.7355 37.436 86.116 36.5168 85.5694 35.7061C84.1312 33.5719 83.4092 32.5007 79.3563 32.5186L32.0054 32.7271C27.9525 32.7449 27.236 33.8225 25.8085 35.9692C25.266 36.785 24.6512 37.7095 23.7755 38.7073C22.1041 40.6123 19.9764 42.0594 17.6226 42.8918C15.1345 43.7718 12.5681 43.8926 10.2008 43.2408C5.28862 41.8889 1.43113 37.3906 0.819963 32.302C0.763993 31.8356 0.735867 31.3654 0.734679 30.8947ZM107.849 13.1295C107.848 12.7608 107.826 12.3932 107.782 12.0283C107.3 8.01522 104.258 4.46738 100.384 3.40049C96.7406 2.39785 92.3966 3.88559 89.5741 7.10237C88.8193 7.96238 88.2826 8.76931 87.7636 9.54959C86.18 11.9308 84.8126 13.9872 79.3095 14.0114L31.9586 14.22C26.4557 14.2442 25.0777 12.1998 23.4822 9.83267C22.9594 9.05698 22.4185 8.25478 21.6596 7.40157C18.8208 4.20959 14.4693 2.76015 10.8314 3.79498C6.96252 4.8957 3.93807 8.47039 3.47649 12.4878C3.1147 15.6307 4.37092 18.9751 6.75299 21.2154C7.02724 21.4733 7.18311 21.8338 7.1842 22.2119C7.18515 22.5898 7.03083 22.9519 6.75803 23.2122C4.38745 25.4736 3.14839 28.8283 3.52564 31.9683C4.00749 35.9817 7.05004 39.5295 10.9242 40.596C14.5674 41.5988 18.9115 40.1113 21.7339 36.8947C22.4885 36.0346 23.0252 35.2277 23.5442 34.4473C25.1277 32.0659 26.4953 30.0093 31.9984 29.985L79.3493 29.7765C84.8523 29.7523 86.2302 31.7969 87.8257 34.1642C88.3485 34.94 88.8894 35.7422 89.6482 36.5954C92.4869 39.7873 96.8383 41.2365 100.476 40.2016C104.345 39.1012 107.37 35.5265 107.831 31.5088C108.193 28.367 106.937 25.0221 104.555 22.7815C104.281 22.5236 104.125 22.1629 104.124 21.785C104.123 21.4069 104.277 21.045 104.55 20.7847C106.645 18.7862 107.856 15.933 107.849 13.1295Z" fill="white" fill-opacity="0.8"/>
<path d="M98.1085 7.90718C98.1083 7.78579 98.1243 7.66249 98.158 7.53962C98.358 6.81109 99.1076 6.38179 99.8322 6.58084C102.492 7.31125 104.58 9.74325 104.91 12.4947C104.94 12.7495 104.956 13.0095 104.956 13.2682C104.958 14.0235 104.35 14.6386 103.598 14.6422C102.846 14.6458 102.236 14.0364 102.234 13.2812C102.234 13.1291 102.225 12.9766 102.207 12.8281C102.009 11.176 100.706 9.65788 99.1077 9.21915C98.5053 9.05364 98.1097 8.50588 98.1085 7.90718Z" fill="white" fill-opacity="0.8"/>
<path d="M13.0357 8.14153C13.0357 8.10292 13.0373 8.06405 13.0403 8.02477C13.102 7.27146 13.7597 6.70945 14.5093 6.76949C17.1993 6.98513 19.3542 8.58102 21.0974 11.648C21.4702 12.3034 21.2425 13.1397 20.5892 13.5158C19.9359 13.892 19.1044 13.6654 18.7318 13.01C17.432 10.7232 16.0608 9.63985 14.2857 9.49767C13.5751 9.44059 13.0372 8.84517 13.0357 8.14153Z" fill="white" fill-opacity="0.8"/>
</svg>
