<?xml version="1.0" encoding="utf-8"?><svg xmlns="http://www.w3.org/2000/svg" xmlns:xlink="http://www.w3.org/1999/xlink"><symbol viewBox="0 0 89 105" id="logo_epic" xmlns="http://www.w3.org/2000/svg"><g clip-path="url(#aclip0_2001_64)"><mask id="amask0_2001_64" style="mask-type:luminance" maskUnits="userSpaceOnUse" x="-39" y="-22" width="166" height="149"><path d="M-38.2384 -21.2433H126.789V126.197H-38.2384V-21.2433Z"/></mask><g mask="url(#amask0_2001_64)"><path fill-rule="evenodd" clip-rule="evenodd" d="M80.9177 -6.10352e-05H8.08229C2.17872 -6.10352e-05 0 2.21503 0 8.21993V80.6784C0 81.3579 0.0269533 81.9891 0.0859963 82.5739C0.220402 83.8847 0.245706 85.1548 1.44472 86.6009C1.56189 86.7426 2.78602 87.6687 2.78602 87.6687C3.44448 87.997 3.89408 88.2388 4.6367 88.5427L40.5018 103.82C42.3637 104.688 43.1423 105.026 44.4946 104.998V104.999C44.4964 104.999 44.498 104.999 44.4999 104.999C44.5017 104.999 44.5034 104.999 44.5052 104.999V104.998C45.8575 105.026 46.6361 104.688 48.4981 103.82L84.3631 88.5427C85.1059 88.2388 85.5553 87.997 86.2139 87.6687C86.2139 87.6687 87.4381 86.7426 87.555 86.6009C88.7541 85.1548 88.7794 83.8847 88.9138 82.5739C88.9728 81.9891 88.9999 81.3579 88.9999 80.6784V8.21993C88.9999 2.21503 86.821 -6.10352e-05 80.9177 -6.10352e-05Z" fill-opacity="0.8"/><path d="M76.0392 72.8472L76.0227 73.0145L76.0064 73.1981L75.9734 73.3653L75.9242 73.5324L75.8923 73.6828L75.8428 73.85L75.7772 74.0005L75.7114 74.1343L75.6466 74.2846L75.5645 74.4182L75.4823 74.5521L75.3846 74.6858L75.3023 74.8194L75.2047 74.9363L75.0896 75.0534L74.9918 75.1537L74.8606 75.2708L74.7463 75.371L74.6148 75.4713L74.4843 75.5537L74.3537 75.654L74.2058 75.7376L74.0587 75.8045L73.9118 75.888L73.7474 75.9549L73.584 76.0219L73.4206 76.0718L73.2572 76.1221L73.1093 76.1721L72.9459 76.2057L72.7988 76.239L72.652 76.2724L72.4875 76.306L72.3239 76.3226L72.177 76.3393L72.0126 76.3561L71.8329 76.3729L71.6693 76.3895H71.5059H71.326H71.1453H70.9819L70.8183 76.3729H70.6386L70.4751 76.3561L70.3108 76.3393L70.1309 76.3226L69.9675 76.2892L69.8041 76.2724L69.6397 76.239L69.4761 76.2057L69.3127 76.1721L69.1493 76.1387L68.985 76.0888L68.838 76.0552L68.6746 76.0051L68.5111 75.9549L68.3633 75.888L68.1999 75.8379L68.0528 75.7879L67.8893 75.721L67.7415 75.654L67.5944 75.5871L67.4474 75.5047L67.2996 75.4378L67.1525 75.3541L67.022 75.2708L66.874 75.187L66.7434 75.1035L66.612 75.02L66.4814 74.9197L66.3508 74.8194L66.2194 74.7191L66.0886 74.6188L65.9737 74.5185L65.8431 74.4016L65.9418 74.268L66.0558 74.1509L66.1545 74.0171L66.2687 73.8834L66.3674 73.7665L66.4649 73.6328L66.5801 73.499L66.6776 73.3821L66.7928 73.2484L66.8905 73.1314L67.0055 72.9977L67.1032 72.8638L67.2018 72.7469L67.3159 72.6133L67.4145 72.4794L67.5286 72.3625L67.6272 72.2289L67.7578 72.3292L67.9049 72.4295L68.0363 72.5298L68.1834 72.6301L68.3149 72.7136L68.4619 72.8137L68.5923 72.8974L68.7404 72.9641L68.8708 73.0478L69.0179 73.1148L69.1658 73.1815L69.3127 73.2484L69.46 73.2986L69.6077 73.3653L69.7711 73.4155L69.9347 73.4656L70.0816 73.5158L70.246 73.5493L70.4094 73.5827L70.5728 73.6161L70.7527 73.6328L70.917 73.6662H71.0805L71.2602 73.6828H71.4238H71.62L71.7999 73.6662L71.9643 73.6328L72.1112 73.5993L72.2583 73.5659L72.3897 73.5158L72.504 73.449L72.6354 73.3487L72.733 73.2316L72.7988 73.0978L72.8483 72.9475L72.8645 72.7803V72.7469L72.8483 72.5464L72.7825 72.3791L72.7002 72.2622L72.5861 72.1619L72.4545 72.0617L72.3239 71.9949L72.177 71.928L72.0126 71.8611L71.8164 71.7777L71.7021 71.7442L71.5718 71.7108L71.4238 71.6605L71.2767 71.6271L71.1133 71.577L70.9489 71.5436L70.7692 71.4934L70.6056 71.4601L70.4257 71.4099L70.2624 71.3765L70.0979 71.3264L69.9347 71.2928L69.7711 71.2427L69.6232 71.1927L69.46 71.1592L69.3127 71.109L69.1658 71.0589L69.0179 71.0087L68.838 70.9418L68.6746 70.8749L68.5111 70.8081L68.3468 70.7412L68.1999 70.6577L68.0363 70.5742L67.9049 70.4907L67.7578 70.4071L67.6272 70.3068L67.4958 70.2233L67.3817 70.1228L67.2668 70.006L67.1525 69.8889L67.0539 69.7718L66.9563 69.6549L66.874 69.538L66.7928 69.4042L66.7106 69.2539L66.6448 69.138L66.5955 69.0041L66.5472 68.8537L66.4979 68.72L66.4649 68.5528L66.4321 68.4023L66.4156 68.2353L66.3993 68.0681L66.3828 67.8845V67.7005V67.6671V67.4999L66.3993 67.3328L66.4156 67.1824L66.4321 67.0152L66.4649 66.8649L66.4979 66.7145L66.5472 66.5638L66.5801 66.4136L66.6448 66.2631L66.7106 66.1127L66.7763 65.9624L66.8577 65.8118L66.9396 65.6615L67.0374 65.5277L67.1362 65.394L67.2502 65.2604L67.3652 65.1435L67.4795 65.0096L67.6109 64.8925L67.725 64.809L67.8564 64.7087L67.9872 64.6084L68.1176 64.5249L68.2655 64.4414L68.4126 64.3745L68.5595 64.2909L68.7074 64.2242L68.8708 64.1739L69.0342 64.1071L69.1822 64.057L69.3127 64.0234L69.46 63.9901L69.6077 63.9567L69.7711 63.9233L69.9182 63.8898L70.0816 63.8732L70.246 63.8564L70.4094 63.8396L70.5728 63.823H70.7362H70.917H71.097H71.2767L71.4566 63.8396L71.6365 63.8564H71.7999L71.9807 63.8732L72.144 63.9065L72.3239 63.9233L72.4875 63.9567L72.6354 63.9901L72.7988 64.0234L72.9622 64.057L73.1093 64.0904L73.2735 64.1405L73.4206 64.1907L73.5677 64.2242L73.732 64.2909L73.879 64.3411L74.0259 64.4078L74.1729 64.4748L74.3372 64.5417L74.4843 64.6252L74.6148 64.6921L74.7628 64.7757L74.9099 64.8592L75.0404 64.9429L75.1882 65.0432L75.319 65.1265L75.4504 65.227L75.581 65.3273L75.7114 65.4274L75.6138 65.5612L75.5317 65.6949L75.4339 65.8286L75.3353 65.9624L75.2377 66.1127L75.1554 66.2463L75.0568 66.3802L74.959 66.5139L74.8771 66.6475L74.7791 66.7814L74.6807 66.9151L74.5984 67.0487L74.5008 67.1992L74.402 67.3328L74.3044 67.4665L74.2223 67.6002L74.1245 67.7338L73.9931 67.6337L73.8462 67.55L73.7155 67.4665L73.584 67.3662L73.4371 67.2995L73.3055 67.2158L73.1586 67.1488L73.028 67.0821L72.8801 67.0152L72.7495 66.9484L72.6026 66.8983L72.4712 66.8313L72.2911 66.7814L72.1277 66.7311L71.9643 66.6811L71.7999 66.6475L71.6365 66.6142L71.4731 66.5806L71.3097 66.5638L71.1453 66.5472L70.9984 66.5305H70.8348H70.6386L70.4587 66.5638L70.2943 66.5974L70.1474 66.6308L70.0168 66.6977L69.9017 66.7644L69.7546 66.8983L69.656 67.0487L69.5914 67.1992L69.5747 67.3662V67.3998L69.5914 67.6169L69.6725 67.8008L69.7383 67.901L69.8524 68.0181L70.0003 68.1016L70.1309 68.1852L70.2943 68.2521L70.4751 68.319L70.6714 68.3857L70.802 68.4191L70.9325 68.4693L71.0805 68.5026L71.2274 68.5528L71.3908 68.5863L71.5718 68.6365L71.7516 68.6865L71.9315 68.7368L72.1112 68.7702L72.2746 68.8203L72.4545 68.8705L72.6189 68.9038L72.7825 68.954L72.9459 69.0041L73.0928 69.0543L73.2572 69.1044L73.4043 69.1546L73.5512 69.2047L73.732 69.2705L73.8953 69.3542L74.0587 69.421L74.2223 69.5045L74.3702 69.5882L74.5173 69.6717L74.6477 69.7552L74.7791 69.8555L74.9099 69.939L75.0404 70.0561L75.1719 70.173L75.286 70.3068L75.4009 70.4237L75.4987 70.5576L75.5973 70.7078L75.6785 70.8415L75.7609 70.9921L75.8265 71.1258L75.8758 71.2761L75.9242 71.4265L75.9571 71.577L75.9899 71.7442L76.0227 71.9114L76.0392 72.0784L76.0557 72.2622V72.4461V72.4794V72.6634L76.0392 72.8472ZM64.5618 76.1891H64.3975H64.2341H64.0707H63.9074H63.7429H63.5793H63.4161H63.2526H63.0718H62.9084H62.745H62.5816H62.417H62.2538H62.0902H61.9268H61.7624H61.599H61.4356H61.2722H61.1087H60.9444H60.781H60.6176H60.4541H60.2896H60.1262H59.9628H59.783H59.6187H59.4551H59.2917H59.1284H58.9641H58.8005H58.6371H58.4736H58.3093H58.1459H57.9825H57.819H57.6545H57.4913H57.3277H57.1643H57.0001H56.8365H56.6566H56.4932H56.3299H56.1654H56.002H55.8385H55.6753H55.511H55.3474H55.184V76.0219V75.8546V75.6876V75.5213V75.3541V75.187V75.02V74.853V74.6858V74.5185V74.3515V74.1843V74.0171V73.85V73.6828V73.5158V73.3487V73.1815V73.0311V72.8638V72.6968V72.5298V72.3625V72.1953V72.0283V71.8611V71.6938V71.5268V71.3598V71.1927V71.0255V70.8583V70.6913V70.524V70.3568V70.1898V70.0225V69.8555V69.6885V69.5213V69.3542V69.1879V69.0209V68.8537V68.6865V68.5194V68.3524V68.1852V68.0181V67.8509V67.6837V67.5166V67.3494V67.1824V67.0319V66.8649V66.6977V66.5305V66.3634V66.1962V66.0292V65.8619V65.6949V65.5277V65.3606V65.1934V65.0262V64.8592V64.6921V64.5249V64.3579V64.1907V64.0234H55.3474H55.511H55.6753H55.8385H56.002H56.1654H56.3299H56.4932H56.6566H56.8202H56.9845H57.148H57.3112H57.4748H57.6226H57.7861H57.9495H58.1131H58.2774H58.4407H58.6041H58.7677H58.932H59.0953H59.2587H59.4223H59.5868H59.7501H59.9135H60.0769H60.2414H60.4049H60.5681H60.7315H60.8951H61.0595H61.2229H61.3863H61.5497H61.7141H61.8775H62.0409H62.2043H62.3524H62.5158H62.6792H62.8427H63.007H63.1704H63.3338H63.4972H63.6616H63.825H63.9884H64.152H64.3163H64.4798H64.6432V64.1907V64.3411V64.5081V64.6754V64.8424V64.9928V65.1601V65.3273V65.4775V65.6448V65.8118V65.9624V66.1295V66.2965V66.4637V66.6142V66.7814H64.4798H64.3163H64.152H63.9884H63.825H63.6616H63.5137H63.3503H63.1869H63.0234H62.8591H62.6957H62.5321H62.3687H62.2043H62.0409H61.8775H61.7141H61.5497H61.4028H61.2392H61.0759H60.9114H60.7482H60.5846H60.4212H60.2568H60.0934H59.93H59.7666H59.6022H59.4386H59.2917H59.1284H58.9641H58.8005H58.6371H58.4736H58.3093V66.9484V67.1155V67.2825V67.4497V67.6169V67.7674V67.9344V68.1016V68.2687V68.4359V68.6029V68.7702H58.4736H58.6371H58.8005H58.9641H59.1284H59.2917H59.4551H59.6187H59.7666H59.93H60.0934H60.2568H60.4212H60.5846H60.7482H60.9114H61.0759H61.2392H61.4028H61.5662H61.7305H61.8938H62.0574H62.221H62.3853H62.5486H62.6957H62.8591H63.0234H63.1869H63.3503H63.5137H63.678H63.8415H64.0049V68.9372V69.0876V69.2539V69.421V69.5714V69.7384V69.9057V70.0561V70.2233V70.3904V70.5576V70.7078V70.8749V71.0421V71.1927V71.3598H63.8415H63.678H63.5137H63.3503H63.1869H63.0234H62.8591H62.6957H62.5486H62.3853H62.221H62.0574H61.8938H61.7305H61.5662H61.4028H61.2392H61.0759H60.9114H60.7482H60.5846H60.4212H60.2568H60.0934H59.93H59.7666H59.6187H59.4551H59.2917H59.1284H58.9641H58.8005H58.6371H58.4736H58.3093V71.5268V71.7108V71.8778V72.0451V72.2289V72.3961V72.5631V72.7469V72.914V73.0812V73.265V73.4321H58.4736H58.6371H58.8005H58.9641H59.1284H59.2917H59.4551H59.6187H59.783H59.9628H60.1262H60.2896H60.4541H60.6176H60.781H60.9444H61.1087H61.2722H61.4356H61.599H61.7624H61.9268H62.0902H62.2538H62.417H62.5816H62.745H62.9084H63.0718H63.2526H63.4161H63.5793H63.7429H63.9074H64.0707H64.2341H64.3975H64.5618H64.7253V73.5993V73.7497V73.9169V74.084V74.2512V74.4016V74.5687V74.7357V74.8863V75.0534V75.2204V75.371V75.5372V75.7042V75.8712V76.0219V76.1891H64.5618ZM52.6039 76.1891H52.4405H52.277H52.0964H51.933H51.7694H51.6061H51.4416H51.2782H51.0983H50.9349H50.7714H50.6071H50.4437H50.2803H50.1005H49.936H49.7726H49.609V76.0219V75.8546V75.6876V75.5204V75.3522V75.1852V75.018V74.8507V74.6837V74.5167V74.3494V74.1815V74.0143V73.847V73.68V73.5128V73.3446V73.1774V73.0104V72.8433V72.6761V72.5091V72.3409V72.1739V72.0067V71.8394V71.6724V71.5052V71.337V71.1698V71.0028V70.8357V70.6687V70.5015V70.3333V70.1663V69.9991V69.832V69.6648V69.4966V69.3296V69.1624V68.9952L49.5271 69.1288L49.4294 69.2804L49.347 69.4141L49.2495 69.5479L49.1673 69.6982L49.0685 69.832L48.9874 69.9657L48.9051 70.1171L48.8076 70.2507L48.7252 70.3844L48.6268 70.5182L48.5455 70.6696L48.4469 70.8033L48.3657 70.937L48.2833 71.0874L48.1847 71.222L48.1035 71.3559L48.0048 71.5061L47.9238 71.64L47.8251 71.7736L47.7439 71.925L47.6615 72.0589L47.5631 72.1925L47.4818 72.343L47.3832 72.4776L47.302 72.6112L47.2033 72.7451L47.121 72.8953L47.0398 73.0299L46.9413 73.1638L46.8601 73.3142L46.7614 73.4479L46.6793 73.5816L46.5815 73.7331L46.4994 73.8668H46.4345L46.336 73.7164L46.2537 73.5816L46.1559 73.4311L46.0738 73.2975L45.9761 73.1472L45.8939 73.0124L45.7964 72.862L45.714 72.7281L45.6154 72.5779L45.5342 72.4442L45.4355 72.2926L45.3545 72.159L45.2558 72.0085L45.1735 71.8749L45.0759 71.7235L44.9936 71.5898L44.8961 71.4394L44.7974 71.3057L44.7153 71.1543L44.6175 71.0207L44.5354 70.8702L44.4377 70.7366L44.3555 70.585L44.2578 70.4513L44.1756 70.3009L44.077 70.1672L43.9957 70.0168L43.8971 69.882L43.8159 69.7317L43.7172 69.5979L43.6351 69.4474L43.5375 69.314L43.455 69.1624L43.3575 69.0287V69.1958V69.363V69.5302V69.6982V69.8654V70.0324V70.1997V70.3669V70.5348V70.7021V70.8525V71.0195V71.1868V71.3538V71.522V71.6892V71.8562V72.0232V72.1905V72.3577V72.5257V72.6929V72.8601V73.0271V73.1944V73.3614V73.5296V73.6966V73.8638V74.0308V74.1981V74.366V74.5167V74.6837V74.8507V75.018V75.1852V75.3522V75.5204V75.6876V75.8546V76.0219V76.1891H43.1941H43.0298H42.8662H42.7029H42.5395H42.3752H42.2116H42.0482H41.8847H41.7204H41.557H41.3935H41.2301H41.0658H40.9024H40.7388H40.5753H40.411H40.2476V76.0219V75.8546V75.6876V75.5213V75.3541V75.187V75.02V74.853V74.6858V74.5185V74.3515V74.1843V74.0171V73.85V73.6828V73.5158V73.3487V73.1815V73.0311V72.8638V72.6968V72.5298V72.3625V72.1953V72.0283V71.8611V71.6938V71.5268V71.3598V71.1927V71.0255V70.8583V70.6913V70.524V70.3568V70.1898V70.0225V69.8555V69.6885V69.5213V69.3542V69.1879V69.0209V68.8537V68.6865V68.5194V68.3524V68.1852V68.0181V67.8509V67.6837V67.5166V67.3494V67.1824V67.0319V66.8649V66.6977V66.5305V66.3634V66.1962V66.0292V65.8619V65.6949V65.5277V65.3606V65.1934V65.0262V64.8592V64.6921V64.5249V64.3579V64.1907V64.0234H40.411H40.5753H40.7225H40.8857H41.0493H41.2136H41.3606H41.524H41.6885H41.8519H41.9989H42.1623H42.3268H42.4902H42.637H42.8004H42.9649H43.1284H43.2753H43.4387H43.6032L43.6844 64.1573L43.7665 64.3075L43.8641 64.4403L43.9464 64.5907L44.0286 64.7244L44.1098 64.875L44.1919 65.0076L44.2899 65.1582L44.3718 65.2919L44.4542 65.4255L44.5354 65.5749L44.6175 65.7087L44.7153 65.859L44.7974 65.9928L44.8796 66.1421L44.9608 66.2758L45.0594 66.4095L45.1418 66.5592L45.2228 66.6926L45.305 66.8431L45.3864 66.9769L45.485 67.1263L45.5672 67.2601L45.6482 67.4104L45.7305 67.5431L45.8118 67.6768L45.9104 67.8272L45.9926 67.9611L46.0738 68.1115L46.1559 68.2443L46.2372 68.3947L46.336 68.5284L46.4182 68.6777L46.4994 68.8115L46.5815 68.6777L46.6637 68.5284L46.7614 68.3947L46.8434 68.2443L46.9248 68.1115L47.0069 67.9611L47.1047 67.8272L47.1868 67.6768L47.2691 67.5431L47.3502 67.4104L47.4488 67.2601L47.5301 67.1263L47.6124 66.9769L47.6944 66.8431L47.7921 66.6926L47.8742 66.5592L47.9566 66.4095L48.0376 66.2758L48.1201 66.1421L48.2177 65.9928L48.2998 65.859L48.382 65.7087L48.4634 65.5749L48.5619 65.4255L48.6433 65.2919L48.7252 65.1582L48.8076 65.0076L48.9051 64.875L48.9874 64.7244L49.0685 64.5907L49.1508 64.4403L49.2495 64.3075L49.3307 64.1573L49.4128 64.0234H49.5762H49.7398H49.8876H50.0511H50.2145H50.3779H50.5259H50.6894H50.8526H51.0162H51.1642H51.3275H51.4909H51.6545H51.8023H51.9658H52.1292H52.2926H52.4405H52.6039H52.7673V64.1907V64.3579V64.5249V64.6921V64.8592V65.0262V65.1934V65.3606V65.5277V65.6949V65.8619V66.0292V66.1962V66.3634V66.5305V66.6977V66.8649V67.0319V67.1824V67.3494V67.5166V67.6837V67.8509V68.0181V68.1852V68.3524V68.5194V68.6865V68.8537V69.0209V69.1879V69.3542V69.5213V69.6885V69.8555V70.0225V70.1898V70.3568V70.524V70.6913V70.8583V71.0255V71.1927V71.3598V71.5268V71.6938V71.8611V72.0283V72.1953V72.3625V72.5298V72.6968V72.8638V73.0311V73.1815V73.3487V73.5158V73.6828V73.85V74.0171V74.1843V74.3515V74.5185V74.6858V74.853V75.02V75.187V75.3541V75.5213V75.6876V75.8546V76.0219V76.1891H52.6039ZM33.615 71.176L33.5657 71.0246L33.5009 70.8574L33.4351 70.7069L33.3858 70.5555L33.3211 70.4051L33.2554 70.2379L33.2059 70.0865L33.1401 69.936L33.0755 69.7858L33.026 69.6344L32.9602 69.4672L32.912 69.3167L32.8462 69.1654L32.7803 69.0149L32.7312 68.8645L32.6663 68.6965L32.6006 68.5459L32.5513 68.3956L32.4855 68.2443L32.4208 68.077L32.3714 67.9257L32.3056 67.7752L32.2409 67.9257L32.1917 68.077L32.1259 68.2443L32.0601 68.3956L32.0117 68.5459L31.946 68.6965L31.8802 68.8645L31.8155 69.0149L31.766 69.1654L31.7003 69.3167L31.6345 69.4672L31.5861 69.6344L31.5204 69.7858L31.4546 69.936L31.4055 70.0865L31.3406 70.2379L31.2747 70.4051L31.2091 70.5555L31.1609 70.7069L31.095 70.8574L31.0292 71.0246L30.9799 71.176L30.9152 71.3264H31.0785H31.2419H31.4055H31.5698H31.7331H31.8965H32.0601H32.2246H32.3714H32.5348H32.6993H32.8627H33.026H33.1896H33.353H33.5173H33.6806L33.615 71.176ZM38.7547 76.1891H38.5904H38.4431H38.2799H38.1155H37.9521H37.7885H37.6417H37.4772H37.3138H37.1504H36.9869H36.8226H36.6755H36.5121H36.3486H36.1843H36.0209H35.8739H35.7105H35.5462L35.4813 76.0384L35.4319 75.888L35.3663 75.7376L35.3005 75.5705L35.2521 75.421L35.1864 75.2708L35.1206 75.1203L35.0722 74.9699L35.0065 74.8194L34.9407 74.669L34.8916 74.5185L34.8267 74.3515L34.7608 74.2011L34.7115 74.0506L34.6457 73.9002H34.4823H34.3189H34.1556H33.9922H33.8442H33.6806H33.5173H33.353H33.1896H33.026H32.8627H32.6993H32.5348H32.3714H32.2246H32.0601H31.8965H31.7331H31.5698H31.4055H31.2419H31.0785H30.9152H30.7518H30.6036H30.4404H30.2769H30.1124H29.949L29.8843 74.0506L29.835 74.2011L29.7691 74.3515L29.7035 74.5185L29.6551 74.669L29.5894 74.8194L29.5236 74.9699L29.4743 75.1203L29.4096 75.2708L29.3437 75.421L29.2944 75.5705L29.2295 75.7376L29.1639 75.888L29.1145 76.0384L29.0487 76.1891H28.8853H28.722H28.5586H28.3941H28.2307H28.0508H27.8875H27.7239H27.5596H27.3962H27.2329H27.0693H26.9048H26.7416H26.5782H26.3984H26.2339H26.0705H25.907H25.7436L25.8083 76.0384L25.8741 75.888L25.9398 75.7376L26.0047 75.5705L26.054 75.421L26.1198 75.2708L26.1855 75.1203L26.2502 74.9699L26.316 74.8194L26.3819 74.6522L26.4466 74.5018L26.5124 74.3515L26.5616 74.2011L26.6274 74.0506L26.6921 73.9002L26.7579 73.7331L26.8236 73.5827L26.8885 73.4321L26.9543 73.2818L27.02 73.1314L27.0693 72.9809L27.134 72.8137L27.1999 72.6634L27.2657 72.513L27.3304 72.3625L27.3962 72.2121L27.4621 72.0617L27.5268 71.8944L27.5761 71.7442L27.6419 71.5937L27.7076 71.4433L27.7725 71.2928L27.8381 71.1424L27.9038 70.9754L27.9687 70.8249L28.0343 70.6745L28.0837 70.524L28.1495 70.3738L28.2142 70.2233L28.28 70.0561L28.3459 69.9057L28.4106 69.7552L28.4762 69.6048L28.5421 69.4545L28.5914 69.3039L28.6563 69.1546L28.722 68.9873L28.7876 68.8371L28.8525 68.6865L28.9181 68.536L28.984 68.3857L29.0487 68.2353L29.098 68.0681L29.1639 67.9178L29.2295 67.7674L29.2944 67.6169L29.3602 67.4665L29.4259 67.316L29.4908 67.1488L29.5564 66.9986L29.6058 66.8481L29.6714 66.6977L29.7363 66.5472L29.802 66.3968L29.8678 66.2298L29.9325 66.0793L29.9983 65.9289L30.0642 65.7784L30.1124 65.6282L30.1782 65.4775L30.244 65.3105L30.3099 65.1601L30.3746 65.0096L30.4404 64.8592L30.5061 64.7087L30.5708 64.5585L30.6203 64.3912L30.686 64.2408L30.7518 64.0904L30.8165 63.9399H30.9799H31.1279H31.2912H31.4546H31.6191H31.766H31.9293H32.0929H32.2574H32.4044H32.5676H32.7312H32.8955H33.0425H33.2059H33.3693H33.5338H33.6806H33.8442L33.9098 64.0904L33.9757 64.2408L34.0406 64.3912L34.1062 64.5585L34.1556 64.7087L34.2203 64.8592L34.2861 65.0096L34.3518 65.1601L34.4176 65.3105L34.4823 65.4775L34.5481 65.6282L34.614 65.7784L34.6622 65.9289L34.728 66.0793L34.7938 66.2298L34.8597 66.3968L34.9244 66.5472L34.99 66.6977L35.0559 66.8481L35.1206 66.9986L35.1699 67.1488L35.2356 67.316L35.3005 67.4665L35.3663 67.6169L35.4319 67.7674L35.4978 67.9178L35.5625 68.0681L35.6281 68.2353L35.6777 68.3857L35.7424 68.536L35.808 68.6865L35.8739 68.8371L35.9397 68.9873L36.0044 69.1546L36.0702 69.3039L36.1359 69.4545L36.1843 69.6048L36.2499 69.7552L36.3158 69.9057L36.3807 70.0561L36.4463 70.2233L36.5121 70.3738L36.578 70.524L36.6427 70.6745L36.692 70.8249L36.7577 70.9754L36.8226 71.1424L36.8882 71.2928L36.954 71.4433L37.0197 71.5937L37.0846 71.7442L37.1504 71.8944L37.1996 72.0617L37.2645 72.2121L37.3301 72.3625L37.396 72.513L37.4607 72.6634L37.5265 72.8137L37.5923 72.9809L37.6582 73.1314L37.7064 73.2818L37.7722 73.4321L37.838 73.5827L37.9028 73.7331L37.9684 73.9002L38.0342 74.0506L38.0999 74.2011L38.1646 74.3515L38.2141 74.5018L38.2799 74.6522L38.3447 74.8194L38.4103 74.9699L38.476 75.1203L38.5409 75.2708L38.6065 75.421L38.6723 75.5705L38.7219 75.7376L38.7864 75.888L38.8522 76.0384L38.9179 76.1891H38.7547ZM24.4169 74.6354L24.2855 74.7357L24.1712 74.8194L24.0398 74.9197L23.9092 75.0032L23.7787 75.1035L23.6472 75.187L23.5166 75.2708L23.3687 75.3541L23.2216 75.4378L23.0745 75.5213L22.9268 75.5871L22.7797 75.6708L22.6163 75.7376L22.4694 75.8045L22.305 75.8712L22.1581 75.9381L22.0109 75.9883L21.8631 76.0384L21.716 76.0888L21.5526 76.1387L21.4058 76.1891L21.2413 76.2224L21.0942 76.2558L20.9308 76.2892L20.7666 76.3226L20.603 76.3393L20.4231 76.3561L20.2597 76.3729L20.0799 76.3895L19.9154 76.4063L19.7357 76.4229H19.5558H19.3757H19.196H19.0316L18.8682 76.4063L18.6883 76.3895L18.5249 76.3729L18.3616 76.3561L18.1971 76.3393L18.0337 76.306L17.8701 76.2724L17.7233 76.239L17.559 76.2057L17.4119 76.1555L17.2485 76.1221L17.1006 76.0718L16.9535 76.0051L16.8065 75.9549L16.6433 75.888L16.4953 75.8213L16.3482 75.7545L16.2014 75.6876L16.0532 75.6041L15.9228 75.5213L15.7758 75.4378L15.6443 75.3541L15.5137 75.2708L15.3823 75.1703L15.2517 75.0702L15.121 74.9699L15.006 74.8696L14.892 74.7693L14.7768 74.6522L14.6628 74.5521L14.5476 74.435L14.4335 74.3179L14.3349 74.2011L14.2372 74.0674L14.1385 73.9503L14.0564 73.8166L13.9586 73.6828L13.8767 73.5493L13.7953 73.4155L13.7131 73.265L13.631 73.1314L13.5662 72.9809L13.5004 72.8305L13.4348 72.68L13.3699 72.5298L13.3205 72.3961L13.2547 72.2455L13.2219 72.095L13.1735 71.9448L13.1407 71.7777L13.0913 71.6271L13.0585 71.4601L13.042 71.3096L13.009 71.1424L12.9929 70.9921L12.9762 70.8249L12.9608 70.6577L12.9445 70.4907V70.3068V70.1396V70.1063V69.939L12.9608 69.7552V69.5882L12.9762 69.421L12.9929 69.2371L13.0257 69.071L13.042 68.9038L13.0748 68.7534L13.1242 68.5863L13.1572 68.4191L13.2054 68.2687L13.2547 68.1016L13.304 67.9512L13.3699 67.784L13.4348 67.6337L13.5004 67.4833L13.5662 67.3328L13.631 67.1824L13.7131 67.0319L13.7953 66.8983L13.8767 66.7644L13.9586 66.6308L14.041 66.4971L14.1385 66.3634L14.2372 66.2298L14.3349 66.0961L14.4335 65.9788L14.5476 65.8619L14.6462 65.7449L14.7605 65.6282L14.8755 65.5109L14.9895 65.4108L15.121 65.2937L15.2352 65.1934L15.3658 65.0931L15.4972 65.0096L15.6278 64.9093L15.7594 64.8258L15.8898 64.7423L16.0369 64.6586L16.1849 64.5751L16.3317 64.4915L16.4788 64.4246L16.6266 64.3579L16.7901 64.2742L16.9207 64.2242L17.0841 64.1739L17.2322 64.1071L17.3791 64.0736L17.526 64.0234L17.6903 63.9901L17.8373 63.9399L18.0007 63.9065L18.1643 63.8898L18.3286 63.8564L18.4921 63.8396L18.6553 63.823L18.8189 63.8062L18.9833 63.7895H19.1632H19.3266H19.5063H19.6862L19.8672 63.8062L20.047 63.823H20.2104L20.3738 63.8396L20.5537 63.8732L20.7016 63.8898L20.865 63.9233L21.0286 63.9567L21.1764 63.9901L21.3232 64.0234L21.4705 64.057L21.6185 64.1071L21.7653 64.1405L21.8959 64.1907L22.0439 64.2408L22.1909 64.3075L22.3378 64.3745L22.4858 64.4414L22.6328 64.5249L22.7797 64.5918L22.9114 64.6754L23.0582 64.7589L23.1888 64.8424L23.3368 64.9261L23.4673 65.0262L23.5979 65.1099L23.7293 65.2102L23.8599 65.3105L23.9914 65.4274L24.1219 65.5277L24.0233 65.6615L23.9092 65.7784L23.8106 65.9121L23.6965 66.0458L23.5979 66.1796L23.5001 66.2965L23.385 66.4302L23.2874 66.5638L23.1888 66.6811L23.0745 66.8148L22.9761 66.9484L22.8618 67.0821L22.7632 67.1992L22.6656 67.3328L22.5507 67.4665L22.4528 67.6002L22.3378 67.7172L22.2401 67.8509L22.1086 67.7506L21.978 67.6337L21.8466 67.55L21.716 67.4497L21.5855 67.3662L21.454 67.2825L21.3232 67.1992L21.1764 67.1155L21.0449 67.0487L20.9143 66.9818L20.7829 66.9316L20.6358 66.8815L20.4889 66.8313L20.341 66.798L20.1776 66.7644L20.0142 66.7311L19.8506 66.7145L19.6708 66.6977L19.49 66.6811H19.3101H19.1467L18.9833 66.6977L18.8354 66.7145L18.672 66.7478L18.5249 66.7814L18.377 66.8313L18.2301 66.8815L18.083 66.9484L17.936 67.0152L17.8045 67.0987L17.6741 67.1824L17.5425 67.2661L17.4284 67.3662L17.3133 67.4665L17.1992 67.5668L17.1006 67.6837L16.9865 67.8008L16.8879 67.9344L16.8065 68.0515L16.7243 68.1852L16.6433 68.3356L16.5609 68.4693L16.4953 68.6197L16.446 68.7702L16.381 68.9206L16.3317 69.0876L16.2989 69.2539L16.2661 69.4042L16.2331 69.5882L16.2168 69.7552L16.2014 69.9223V70.1063V70.1396V70.3068L16.2168 70.4739L16.2331 70.6243L16.2496 70.7915L16.2824 70.9418L16.3154 71.0924L16.3482 71.2427L16.3976 71.3931L16.446 71.5268L16.5118 71.6938L16.5774 71.8445L16.6587 71.9949L16.7408 72.1286L16.823 72.2622L16.9207 72.3961L17.0193 72.513L17.1334 72.6301L17.2322 72.7469L17.3461 72.8472L17.4777 72.9475L17.6083 73.0478L17.7387 73.1314L17.8701 73.2149L18.0174 73.2818L18.1643 73.3487L18.312 73.4155L18.4756 73.4656L18.639 73.5158L18.8035 73.5493L18.9668 73.5827L19.1302 73.5993L19.3101 73.6161H19.49H19.6862L19.8672 73.5993L20.047 73.5827L20.2104 73.5659L20.3738 73.5324L20.5383 73.499L20.7016 73.449L20.8485 73.4155L20.9958 73.3487L21.1272 73.2818L21.2741 73.2149L21.3891 73.1481L21.5198 73.0644V72.8974V72.7304V72.5631V72.3961V72.2121V72.0451V71.8778V71.7108V71.5436H21.3562H21.2085H21.0449H20.8815H20.7181H20.5702H20.4066H20.2432H20.0799H19.9321H19.7685H19.6051H19.4416H19.2938H19.1302V71.3765V71.2261V71.0589V70.8918V70.7246V70.5742V70.4071V70.2399V70.0729V69.9223V69.7552V69.5882V69.421V69.2705V69.1044H19.2938H19.4581H19.6216H19.7848H19.9484H20.1118H20.2762H20.4396H20.603H20.7666H20.9308H21.0942H21.2576H21.421H21.5855H21.749H21.9124H22.0758H22.2401H22.4036H22.567H22.7304H22.8947H23.0582H23.2216H23.385H23.5495H23.7128H23.8764H24.0398H24.2041H24.3674H24.531V69.2705V69.4376V69.6048V69.7552V69.9223V70.0895V70.2565V70.4237V70.591V70.7412V70.9084V71.0757V71.2427V71.4099V71.577V71.7442V71.8944V72.0617V72.2289V72.3961V72.5631V72.7304V72.8974V73.0478V73.2149V73.3821V73.5493V73.7164V73.8834V74.034V74.2011V74.3681V74.5353L24.4169 74.6354Z"/><path d="M19.1533 36.4977H26.2463V30.9196H19.1533V19.5317H26.5287V13.9535H13.13V54.2119H26.6409V48.6336H19.1533V36.4977Z"/><path d="M69.9588 37.7063V46.7933C69.9588 48.4038 69.2267 49.151 67.7075 49.151H66.5809C65.0049 49.151 64.2728 48.4038 64.2728 46.7933V21.3722C64.2728 19.7619 65.0049 19.0147 66.5809 19.0147H67.5944C69.1145 19.0147 69.8466 19.7619 69.8466 21.3722V29.2521H75.757V21.0271C75.757 16.0241 73.3925 13.6084 68.4958 13.6084H65.5677C60.6708 13.6084 58.2493 16.0811 58.2493 21.0851V47.0804C58.2493 52.0846 60.6708 54.5571 65.5677 54.5571H68.5517C73.4497 54.5571 75.8699 52.0846 75.8699 47.0804V37.7063H69.9588Z"/><path d="M49.0417 54.2119H55.066V13.9533H49.0417V54.2119Z"/><path d="M40.3009 31.8396C40.3009 33.4501 39.5698 34.1982 38.0497 34.1982H35.5723V19.3596H38.0497C39.5698 19.3596 40.3009 20.107 40.3009 21.7171V31.8396ZM39.0062 13.9533H29.5488V54.2119H35.5723V39.6034H39.0062C43.904 39.6034 46.3244 37.1308 46.3244 32.1278V21.43C46.3244 16.426 43.904 13.9533 39.0062 13.9533Z"/><path fill-rule="evenodd" clip-rule="evenodd" d="M27.3401 90.6136H61.8223L44.222 96.5146L27.3401 90.6136Z"/></g></g><defs><clipPath id="aclip0_2001_64"><rect width="89" height="105"/></clipPath></defs></symbol><symbol viewBox="0 0 256 60" id="logo_nintendo" xmlns="http://www.w3.org/2000/svg"><path d="M33.4831 60C13.4116 59.9935 0 46.4611 0 30.0534C0 13.6457 13.4422 -0.0419492 33.4525 9.66321e-05H222.548C242.558 -0.0419539 256 13.6457 256 30.0534C256 46.4611 242.588 59.9935 222.517 60H33.4831ZM33.5443 7.38083C17.6544 7.40994 7.90077 17.514 7.90077 30.0146C7.90077 42.512 17.5932 52.7002 33.5443 52.6452H222.456C238.407 52.6969 248.103 42.512 248.103 30.0146C248.103 17.5172 238.349 7.41316 222.459 7.38405L33.5443 7.38083ZM232.617 17.9312C234.062 17.9312 234.779 18.3969 234.779 19.3187C234.779 19.9526 234.365 20.4313 233.675 20.5963L234.807 22.7471H233.437L232.468 20.7742H231.866V22.7471H230.632V17.9312H232.617ZM232.505 16.0488C229.983 16.0488 227.936 17.9959 227.936 20.3957C227.936 22.7956 229.983 24.7427 232.505 24.7427C235.028 24.7427 237.074 22.7956 237.074 20.3957C237.074 17.9959 235.028 16.0488 232.505 16.0488ZM236.2 20.399C236.2 22.3396 234.545 23.9147 232.505 23.9147C230.465 23.9147 228.81 22.3396 228.81 20.399C228.81 18.4584 230.465 16.8833 232.505 16.8833C234.545 16.8833 236.2 18.4551 236.2 20.399ZM231.866 20.0691H232.468C233.171 20.0691 233.511 19.8653 233.511 19.3866C233.511 18.8853 233.148 18.6686 232.406 18.6686H231.866V20.0691ZM128.598 31.8388C128.585 30.1925 128.622 29.0928 129.19 28.1549C129.887 26.997 131.168 26.4472 132.331 26.4407H132.328C133.49 26.4472 134.772 26.997 135.469 28.1549C136.037 29.0961 136.06 30.1957 136.047 31.842L128.598 31.8388ZM136.016 37.5021C136.016 37.5021 136.023 37.5862 136.023 38.6406C136.023 42.0754 133.647 42.8387 132.328 42.8387C131.009 42.8387 128.592 42.0754 128.592 38.6406C128.592 37.612 128.598 34.7626 128.598 34.7626C128.598 34.7626 145.416 34.7691 145.416 34.7593C145.416 28.9343 139.504 24.1086 132.243 24.1086C124.981 24.1086 119.096 28.8307 119.096 34.6558C119.096 40.4808 124.981 45.1997 132.243 45.1997C138.267 45.1997 143.356 41.9298 144.91 37.4955L136.016 37.5021ZM164.108 24.4225C167.446 24.3319 174.218 26.4116 174.171 33.8473C174.164 35.1669 174.167 44.0677 174.167 44.0677H165.297C165.297 44.0677 165.297 32.9061 165.297 31.732C165.297 30.0955 163.652 28.2745 161.218 28.2745C158.787 28.2745 156.978 30.0955 156.978 31.732C156.978 32.5341 156.989 44.0677 156.989 44.0677H148.126L148.133 25.286L156.992 25.2796C156.992 25.2796 156.982 26.79 156.992 27.2557C158.699 25.7065 161.16 24.5033 164.108 24.4225ZM91.5524 24.4225C94.8909 24.3319 101.663 26.4116 101.615 33.8473C101.609 35.1669 101.612 44.0677 101.612 44.0677H92.7422C92.7422 44.0677 92.7422 32.9061 92.7422 31.732C92.7422 30.0955 91.0968 28.2745 88.6626 28.2745C86.2319 28.2745 84.4233 30.0955 84.4233 31.732C84.4233 32.5341 84.4335 44.0677 84.4335 44.0677H75.5706L75.5671 25.286L84.4368 25.2796C84.4368 25.2796 84.4266 26.79 84.4368 27.2557C86.1434 25.7065 88.6015 24.5033 91.5524 24.4225ZM193.413 15.8289H202.224V44.0742H193.399C193.399 44.0742 193.395 43.1621 193.395 42.9875C189.979 45.0283 186.124 45.0251 183.122 43.6926C182.316 43.3368 177.016 40.9175 177.016 34.3809C177.016 29.4227 181.932 24.0085 188.367 24.5454C190.485 24.7232 191.991 25.4574 193.419 26.2207C193.412 21.8738 193.413 15.8289 193.413 15.8289ZM193.477 34.5879C193.477 34.5879 193.477 32.2333 193.477 31.2307C193.477 28.3263 191.369 27.5856 189.982 27.5856C188.561 27.5856 186.481 28.3263 186.481 31.2307C186.481 32.1945 186.484 34.5782 186.484 34.5782C186.484 34.5782 186.481 36.9199 186.481 37.9193C186.481 40.8205 188.561 41.5806 189.979 41.5806C191.369 41.5806 193.481 40.8205 193.481 37.9193C193.481 36.7129 193.477 34.5879 193.477 34.5879ZM221.766 34.533C221.766 34.533 221.762 37.3727 221.762 38.5112C221.762 41.5062 219.902 42.7417 218.114 42.7417C216.323 42.7417 214.456 41.5062 214.456 38.5112C214.456 37.3727 214.46 34.4618 214.46 34.4618C214.46 34.4618 214.467 31.6835 214.467 30.5451C214.467 27.563 216.336 26.3372 218.114 26.3372C219.896 26.3372 221.762 27.563 221.762 30.5451C221.762 31.6835 221.759 33.7891 221.769 34.5426L221.766 34.533ZM218.179 24.0085C210.972 24.0085 205.131 28.7306 205.131 34.5556C205.131 40.3806 210.975 45.1027 218.179 45.1027C225.386 45.1027 231.227 40.3806 231.227 34.5556C231.227 28.7306 225.386 24.0085 218.179 24.0085ZM61.7035 21.5957V15.8224H70.6514V21.5957H61.7035ZM61.7239 44.0742V25.2893L70.6514 25.2926V44.0743L61.7239 44.0742ZM106.514 44.0742L106.518 25.3281H101.663V22.5401L106.521 22.5368L106.514 18.7332H115.449V22.5335H120.283V25.328H115.449L115.455 44.0741L106.514 44.0742ZM25.3919 44.0742L25.3953 15.8289H34.6458L47.442 35.5259L47.4352 15.8289H56.6143V44.0742H47.4488L34.5846 24.3772V44.0742H25.3919Z" fill-opacity="0.8"/></symbol><symbol viewBox="0 0 327 60" id="logo_playstation" xmlns="http://www.w3.org/2000/svg"><g clip-path="url(#cclip0_2001_87)"><path d="M26.9074 0.000190735V52.4786L38.6451 56.2432V12.2407C38.6451 10.1673 39.5583 8.79057 41.023 9.26402C42.9381 9.80173 43.3103 11.7118 43.3103 13.7621V31.336C50.6164 34.9159 56.3685 31.3342 56.3685 21.8888C56.3685 12.237 52.9961 7.93723 43.0731 4.48021C39.159 3.16091 31.9053 0.93462 26.9074 0.000190735Z" fill-opacity="0.8"/><path d="M40.8776 48.5712L59.7292 41.7788C61.8619 40.9785 62.1878 39.8912 60.4619 39.3198C58.7088 38.7378 55.5798 38.9044 53.4244 39.6879L40.8776 44.1685V37.0193L41.5961 36.7792C41.5961 36.7792 45.2279 35.4767 50.3361 34.9159C55.4344 34.3501 61.6869 34.9895 66.6009 36.8646C72.1368 38.6449 72.7573 41.2417 71.3567 43.0488C69.9357 44.8372 66.4906 46.1309 66.4906 46.1309L40.8776 55.4453" fill-opacity="0.8"/><path d="M5.40127 47.8482C-0.274418 46.2476 -1.22088 42.8654 1.36833 40.9117C3.75667 39.1277 7.82412 37.7847 7.82412 37.7847L24.638 31.7159V38.623L12.5497 43.0095C10.4084 43.7849 10.0874 44.8759 11.8121 45.4466C13.5676 46.0405 16.683 45.8808 18.8255 45.0805L24.638 42.959V49.1251C24.2634 49.1887 23.8468 49.253 23.4666 49.3185C17.6714 50.2922 11.4972 49.8923 5.40127 47.8482Z" fill-opacity="0.8"/><path d="M68.362 52.6644C68.362 52.839 68.3207 52.9532 68.2326 53.0106C68.1309 53.0804 67.9978 53.1154 67.8302 53.1154H66.9873V52.2445H67.8795C68.0058 52.2445 68.1001 52.2664 68.1759 52.2963C68.2991 52.3575 68.362 52.4803 68.362 52.6644ZM68.9714 54.6611C68.9289 54.6486 68.8993 54.6062 68.8746 54.5345C68.8635 54.4789 68.8555 54.4003 68.8531 54.2993L68.8395 53.9044C68.8333 53.7217 68.7988 53.5794 68.723 53.4946C68.6855 53.4279 68.6183 53.3854 68.5542 53.3393C68.638 53.2619 68.715 53.1827 68.7804 53.096C68.8555 52.9731 68.8993 52.8066 68.8993 52.6288C68.8993 52.2664 68.7452 52.0088 68.4451 51.8659C68.2954 51.8017 68.1001 51.7599 67.8678 51.7599H66.4444V54.8595H66.9873V53.5975H67.8148C67.9688 53.5975 68.0724 53.6175 68.1481 53.6431C68.2504 53.7092 68.3059 53.809 68.3127 53.9805L68.3392 54.464C68.3472 54.5875 68.3552 54.6611 68.362 54.7172L68.4026 54.8239L68.4137 54.8595H69.0096V54.6829M65.3291 53.3798C65.3291 52.7467 65.5632 52.1659 65.9909 51.7355C66.429 51.2958 67.0137 51.0587 67.6213 51.0587C68.2295 51.0587 68.7995 51.2958 69.2271 51.7355C69.6584 52.1659 69.8913 52.7467 69.8913 53.3798C69.8913 54.6486 68.8722 55.6785 67.6213 55.6785C67.0137 55.6785 66.429 55.4439 65.9909 55.0098C65.5632 54.5719 65.3291 53.9974 65.3291 53.3798ZM67.6213 56.1538C68.3552 56.1538 69.0367 55.8606 69.5561 55.3416C70.0694 54.8133 70.359 54.1234 70.359 53.3798C70.359 52.6294 70.0694 51.9277 69.5561 51.4093C69.0367 50.8791 68.3552 50.5953 67.6213 50.5953C66.0981 50.5953 64.8663 51.8397 64.8663 53.3798C64.8663 54.1234 65.1504 54.8133 65.6637 55.3416C66.1837 55.8606 66.8874 56.1538 67.6213 56.1538Z" fill-opacity="0.8"/><path d="M110.22 13.7719L96.0448 13.7656C95.9863 13.7656 95.9395 13.8124 95.9395 13.8667V47.4276C95.9395 47.4812 95.9863 47.5317 96.0448 47.5317H101.79L101.891 47.4276L101.897 17.5096L101.931 17.4597L108.509 17.4472C110.904 17.4472 112.22 19.8906 112.22 24.3182C112.22 28.7483 110.904 31.1973 108.509 31.1973L104.55 31.1929C104.491 31.1929 104.451 31.2385 104.451 31.2959V34.7778C104.451 34.8458 104.491 34.887 104.55 34.887H110.22C112.22 34.887 114.179 33.9488 115.592 32.3363C117.267 30.4226 118.149 27.6598 118.149 24.3488C118.149 17.9325 115.053 13.7719 110.22 13.7719Z" fill-opacity="0.8"/><path d="M127.544 13.7656H121.796C121.73 13.7656 121.684 13.8124 121.684 13.8667V47.4276C121.684 47.4818 121.73 47.5317 121.796 47.5317H127.544L127.65 47.4276V13.8667L127.544 13.7656Z" fill-opacity="0.8"/><path d="M152.614 21.9348C152.614 21.8756 152.563 21.8307 152.506 21.8307H142.269C133.09 21.8307 131.917 28.6518 131.917 34.6463L131.923 39.8306C131.923 44.2919 134.664 47.5312 138.432 47.5312H144.017L144.118 47.4277V43.9495C144.118 43.8927 144.071 43.8422 144.017 43.8422L140.028 43.849C139.109 43.8297 137.872 43.4361 137.872 40.2373V34.6401C137.867 30.9205 138.209 28.5426 138.972 27.1896C139.798 25.6963 141.099 25.496 142.269 25.496H146.632L146.669 25.5484L146.664 47.4277C146.664 47.4807 146.708 47.5312 146.769 47.5312H152.507C152.564 47.5312 152.614 47.4807 152.614 47.4277" fill-opacity="0.8"/><path d="M193.965 27.8103L191.134 27.592C189.011 27.4067 187.433 26.2165 187.433 22.6952C187.433 18.5839 189.254 17.4592 191.686 17.4592H199.52L199.625 17.3569V13.8668L199.52 13.7664H199.356L190.869 13.7682C185.521 13.7682 181.719 16.9477 181.719 23.2841V23.5598C181.719 28.5594 184.758 32.168 189.287 32.5186L192.104 32.7301C194.253 32.8948 195.592 34.8403 195.592 37.7927V38.623C195.592 40.4688 195.136 43.8459 191.225 43.8459H183.085C183.03 43.8459 182.983 43.894 182.983 43.9532V47.4271L183.085 47.5312H193.192C196.306 47.5312 201.521 46.2556 201.521 37.6748C201.521 34.5659 200.823 32.1156 199.409 30.3447C198.204 28.8239 196.418 28.0012 193.965 27.8103Z" fill-opacity="0.8"/><path d="M241.042 21.9348C241.042 21.8756 240.993 21.8307 240.939 21.8307H230.68C221.52 21.8307 220.334 28.6518 220.334 34.6463L220.342 39.8306C220.342 44.2919 223.08 47.5312 226.868 47.5312H232.438L232.541 47.4277V43.9495C232.541 43.8927 232.492 43.8422 232.438 43.8422L228.446 43.849C227.53 43.8297 226.304 43.4361 226.3 40.2373V34.6401C226.3 30.9205 226.646 28.5426 227.391 27.1896C228.218 25.6963 229.527 25.496 230.678 25.496H235.061L235.104 25.5484L235.093 47.4277C235.093 47.4807 235.141 47.5312 235.198 47.5312H240.944C241.001 47.5312 241.042 47.4807 241.042 47.4277" fill-opacity="0.8"/><path d="M217.948 21.8312H211.712L211.679 21.7925V17.5632C211.679 17.5071 211.637 17.4597 211.579 17.4597H205.836C205.778 17.4597 205.726 17.5071 205.726 17.5632V39.8336C205.726 44.2943 208.473 47.5317 212.256 47.5317H216.369C216.428 47.5317 216.473 47.4812 216.473 47.4276V43.9531C216.473 43.8963 216.428 43.8427 216.369 43.8427H213.843C213.196 43.8327 211.679 43.7996 211.673 40.5129V25.5202L211.708 25.4865C213.619 25.4965 217.948 25.4865 217.948 25.4865L218.049 25.3911V21.9353C218.049 21.8767 218.001 21.8312 217.948 21.8312Z" fill-opacity="0.8"/><path d="M258.054 21.8312H251.853L251.811 21.7925V17.5632L251.716 17.4597H245.962C245.905 17.4597 245.856 17.5071 245.856 17.5632V39.8336C245.856 44.2943 248.598 47.5317 252.377 47.5317H256.489C256.551 47.5317 256.591 47.4812 256.591 47.4276V43.9531C256.591 43.8963 256.551 43.8427 256.489 43.8427H253.965C253.316 43.8327 251.811 43.7996 251.811 40.5129V25.5202L251.846 25.4865C253.741 25.4965 258.054 25.4865 258.054 25.4865L258.156 25.3911V21.9353C258.156 21.8767 258.104 21.8312 258.054 21.8312Z" fill-opacity="0.8"/><path d="M267.55 21.8312H261.808C261.754 21.8312 261.703 21.8767 261.703 21.9353V47.4276L261.808 47.5317H267.55C267.613 47.5317 267.656 47.4812 267.656 47.4276V21.9353C267.656 21.8767 267.613 21.8312 267.55 21.8312Z" fill-opacity="0.8"/><path d="M267.55 13.7656H261.808L261.703 13.8667V18.7403C261.703 18.7996 261.754 18.8433 261.808 18.8433H267.55C267.613 18.8433 267.656 18.7996 267.656 18.7403V13.8667C267.656 13.8124 267.613 13.7656 267.55 13.7656Z" fill-opacity="0.8"/><path d="M307.282 21.8312H297.033C296.979 21.8312 296.932 21.8767 296.932 21.9353L296.929 47.4276L297.025 47.5317H302.778L302.875 47.4276L302.867 25.5421L302.907 25.4996L307.277 25.4965C308.459 25.4965 309.755 25.6893 310.585 27.0728C311.343 28.3229 311.687 30.5205 311.687 33.9694C311.692 34.1185 311.683 47.4276 311.683 47.4276C311.683 47.4812 311.728 47.5317 311.785 47.5317H317.513C317.575 47.5317 317.621 47.4812 317.621 47.4276V34.6431C317.621 28.6516 316.439 21.8312 307.282 21.8312Z" fill-opacity="0.8"/><path d="M285.943 42.1546C285.039 43.6616 283.604 43.8631 282.302 43.8631C281.013 43.8631 279.573 43.6616 278.66 42.1546C277.836 40.7984 277.454 38.4224 277.454 34.676V34.646C277.454 30.2247 277.992 27.7127 279.194 26.5163C279.913 25.7902 280.845 25.4957 282.302 25.4957C283.78 25.4957 284.703 25.7902 285.421 26.5163C286.613 27.7127 287.151 30.2353 287.151 34.676C287.151 38.4274 286.769 40.8053 285.943 42.1546ZM282.302 21.831C272.709 21.831 271.483 28.6839 271.483 34.676C271.483 40.6749 272.709 47.5503 282.302 47.5503C291.895 47.5503 293.118 40.6749 293.118 34.676C293.118 28.6839 291.895 21.831 282.302 21.831Z" fill-opacity="0.8"/><path d="M155.855 21.8312L155.789 21.9323L164.31 47.1912C164.324 47.248 164.324 47.3353 164.306 47.3908L159.508 59.8971C159.488 59.9563 159.514 60 159.571 60H164.567C164.629 60 164.693 59.9563 164.714 59.8971L179.671 21.9323C179.692 21.8717 179.666 21.8312 179.607 21.8312H174.156C174.097 21.8312 174.035 21.8767 174.016 21.9323L167.684 38.5306H167.613L162.022 21.9323C162.009 21.8717 161.945 21.8312 161.888 21.8312" fill-opacity="0.8"/><path d="M325.007 44.0485C325.007 44.2169 324.961 44.3267 324.873 44.3922C324.775 44.4633 324.641 44.4933 324.476 44.4933H323.634V43.6256H324.523C324.65 43.6256 324.747 43.6456 324.818 43.6792C324.939 43.7398 325.007 43.8608 325.007 44.0485ZM325.612 46.044C325.573 46.0284 325.541 45.986 325.516 45.9155C325.508 45.8631 325.5 45.777 325.498 45.6803L325.485 45.2905C325.477 45.0996 325.443 44.9568 325.364 44.8788C325.326 44.8102 325.261 44.7634 325.199 44.7154C325.279 44.6405 325.358 44.5638 325.423 44.4752C325.5 44.3523 325.541 44.1926 325.541 44.0148C325.541 43.6456 325.388 43.3898 325.09 43.2482C324.934 43.1846 324.747 43.1422 324.511 43.1422H323.091V46.2405H323.634V44.9767H324.459C324.611 44.9767 324.72 44.9986 324.789 45.0235C324.891 45.0896 324.947 45.1913 324.957 45.361L324.984 45.8469C324.991 45.9667 324.997 46.044 325.007 46.0927L325.044 46.2031L325.055 46.2405H325.652V46.0609M321.972 44.7609C321.972 44.1259 322.207 43.5495 322.638 43.1128C323.075 42.6781 323.658 42.4398 324.262 42.4398C324.872 42.4398 325.44 42.6781 325.869 43.1128C326.302 43.5495 326.537 44.1259 326.537 44.7609C326.537 46.0297 325.514 47.0602 324.262 47.0602C323.658 47.0602 323.075 46.825 322.638 46.3908C322.207 45.9561 321.972 45.3772 321.972 44.7609ZM324.262 47.5317C324.998 47.5317 325.683 47.2386 326.203 46.7233C326.712 46.1975 327 45.5013 327 44.7609C327 44.0105 326.712 43.3075 326.203 42.7891C325.683 42.262 324.998 41.9763 324.262 41.9763C322.746 41.9763 321.513 43.2189 321.513 44.7609C321.513 45.5013 321.795 46.1975 322.31 46.7233C322.83 47.2386 323.531 47.5317 324.262 47.5317Z" fill-opacity="0.8"/></g><defs><clipPath id="cclip0_2001_87"><rect width="327" height="60"/></clipPath></defs></symbol><symbol viewBox="0 0 198 60" id="logo_steam" xmlns="http://www.w3.org/2000/svg"><g clip-path="url(#dclip0_2001_130)"><path d="M29.852 0.405273C14.1712 0.405273 1.32519 12.4398 0.104492 27.7338L16.1038 34.3179C17.4594 33.3951 19.0971 32.8544 20.859 32.8544C21.0169 32.8544 21.1741 32.8598 21.33 32.8685L28.445 22.6038C28.445 22.5548 28.4443 22.5071 28.4443 22.4587C28.4443 16.2803 33.4938 11.2537 39.7019 11.2537C45.9093 11.2537 50.9587 16.2803 50.9587 22.4587C50.9587 28.6372 45.9093 33.6644 39.7019 33.6644C39.6162 33.6644 39.5312 33.6624 39.4461 33.6604L29.2986 40.8671C29.304 40.9981 29.3087 41.1318 29.3087 41.2648C29.3087 45.9031 25.5184 49.6751 20.859 49.6751C16.7691 49.6751 13.3493 46.7696 12.5746 42.9217L1.13287 38.2135C4.67552 50.6846 16.1868 59.8277 29.852 59.8277C46.3384 59.8277 59.7027 46.5251 59.7027 30.1175C59.7027 13.7072 46.3378 0.405273 29.852 0.405273Z" fill-opacity="0.8"/><path d="M18.812 45.4854L15.1451 43.9775C15.795 45.3242 16.9192 46.4519 18.4118 47.0711C21.6387 48.409 25.3588 46.8851 26.7036 43.6706C27.3548 42.1164 27.3588 40.4004 26.7131 38.8421C26.0687 37.2833 24.8527 36.0676 23.2892 35.4188C21.7378 34.776 20.0758 34.7995 18.6156 35.3482L22.4032 36.9071C24.7832 37.8945 25.9087 40.6146 24.9168 42.9835C23.9269 45.3531 21.1919 46.4734 18.812 45.4854Z" fill-opacity="0.8"/><path d="M47.2027 22.4543C47.2027 18.3378 43.8382 14.9883 39.7018 14.9883C35.566 14.9883 32.2008 18.3378 32.2008 22.4543C32.2008 26.5715 35.566 29.9196 39.7018 29.9196C43.8382 29.9189 47.2027 26.5708 47.2027 22.4543ZM34.0794 22.4415C34.0794 19.3439 36.6025 16.8333 39.7146 16.8333C42.8267 16.8333 45.3498 19.3439 45.3498 22.4415C45.3498 25.5391 42.8267 28.0497 39.7146 28.0497C36.6025 28.0497 34.0794 25.5385 34.0794 22.4415Z" fill-opacity="0.8"/><path d="M91.5811 20.7352L89.581 24.2345C88.0404 23.1632 85.9526 22.5184 84.13 22.5184C82.0469 22.5184 80.7581 23.3768 80.7581 24.9142C80.7581 26.782 83.0477 27.2166 86.4506 28.4323C90.1087 29.7198 92.2113 31.233 92.2113 34.5677C92.2113 39.1302 88.6066 41.6925 83.4255 41.6925C80.9005 41.6925 77.8545 41.0437 75.5129 39.6259L76.9718 35.7465C78.8741 36.7465 81.1495 37.3396 83.1779 37.3396C85.9121 37.3396 87.2118 36.3355 87.2118 34.8512C87.2118 33.1526 85.2299 32.6421 82.0307 31.5876C78.3849 30.376 75.8584 28.7862 75.8584 25.0955C75.8584 20.9334 79.2074 18.543 84.0261 18.543C87.3845 18.543 90.0837 19.6022 91.5811 20.7352Z" fill-opacity="0.8"/><path d="M107.216 22.9477V41.3098H102.507V22.9477H95.6709V18.9272H114.031V22.9477H107.216Z" fill-opacity="0.8"/><path d="M123.96 22.9356V27.979H132.972V31.9995H123.96V37.2524H134.416V41.3098H119.252V18.9272H134.416V22.9356H123.96Z" fill-opacity="0.8"/><path d="M144.927 36.9636L143.438 41.3098H138.501L146.933 18.9272H151.673L160.343 41.3091H155.239L153.718 36.9629L144.927 36.9636ZM149.276 24.2661L146.205 33.2279H152.411L149.276 24.2661Z" fill-opacity="0.8"/><path d="M184.514 27.5787L178.36 40.6576H175.703L169.648 27.6956V41.3098H165.139V18.9272H169.638L177.196 35.0843L184.485 18.9272H189.024V41.3098H184.515L184.514 27.5787Z" fill-opacity="0.8"/><path d="M198.126 21.748C198.126 23.6716 196.678 24.8705 195.016 24.8705C193.348 24.8705 191.896 23.6716 191.896 21.748C191.896 19.8251 193.348 18.6343 195.016 18.6343C196.679 18.6343 198.126 19.8251 198.126 21.748ZM192.419 21.748C192.419 23.3573 193.584 24.3681 195.016 24.3681C196.443 24.3681 197.603 23.3573 197.603 21.748C197.603 20.1341 196.443 19.1387 195.016 19.1387C193.588 19.1387 192.419 20.1461 192.419 21.748ZM195.059 20.1569C195.866 20.1569 196.137 20.5814 196.137 21.0401C196.137 21.4606 195.887 21.7426 195.582 21.8864L196.304 23.2344H195.712L195.103 22.0395H194.475V23.2344H193.982V20.1569H195.059ZM194.48 21.5888H195.029C195.384 21.5888 195.594 21.3665 195.594 21.0871C195.594 20.805 195.444 20.6237 195.028 20.6237H194.479V21.5888H194.48Z" fill-opacity="0.8"/></g><defs><clipPath id="dclip0_2001_130"><rect width="198" height="60"/></clipPath></defs></symbol><symbol viewBox="0 0 116 105" id="logo_ubisoft" xmlns="http://www.w3.org/2000/svg"><g clip-path="url(#eclip0_2001_125)"><path d="M0 83.5194V96.3318C0 101.534 3.58382 104.85 8.80336 104.85C14.2936 104.85 17.6542 101.353 17.6542 95.9809V83.5194H13.0072V95.7469C13.0072 98.6762 11.5164 100.493 8.85289 100.493C5.93386 100.493 4.64708 98.4037 4.64708 95.9809V83.5194H0ZM19.9135 83.6964V104.641H27.315C31.4143 104.641 34.8976 102.572 34.8976 98.4688C34.8976 94.1857 31.1099 93.2363 31.1099 93.2363C31.1099 93.2363 33.9146 92.4654 33.9146 88.8009C33.9146 85.1389 30.3696 83.6964 27.315 83.6964H19.9135ZM24.5952 87.6747H26.8421C28.4013 87.6747 29.399 88.4874 29.399 89.9015C29.399 91.1665 28.5526 92.121 26.9603 92.121H24.5954V87.6747H24.5952ZM24.5952 95.3974H27.0785C29.4135 95.3974 30.2232 96.5842 30.2232 98.0007C30.2232 99.6489 29.1759 100.615 27.315 100.615H24.5954V95.3975L24.5952 95.3974ZM36.6565 83.6949H41.3272V104.64H36.6565V83.6949ZM87.6208 104.64H82.9501V83.6949H97.6126V88.0243H87.6208V92.8217H96.7258V96.3318H87.6208V104.64ZM99.3273 83.6949V88.0243H105.358V104.64H110.088V88.0243H116V83.6949H99.3273ZM46.6594 97.6753L42.9489 100.36C42.9489 100.36 44.231 105 50.6588 105C54.9392 105 58.089 102.528 58.089 98.1826C58.089 91.1794 48.193 92.6651 48.193 89.0636C48.193 88.1158 49.0448 87.2785 50.6168 87.2785C53.1391 87.2785 54.0978 89.7269 54.0978 89.7269L57.8093 87.1494C57.8093 87.1494 56.3596 83.3255 50.8032 83.3255C46.2369 83.3255 43.8112 86.2245 43.8112 89.2158C43.8112 96.3526 53.419 94.8036 53.419 98.549C53.419 99.8129 52.4125 100.742 50.8449 100.731C47.739 100.731 46.6594 97.6753 46.6594 97.6753ZM70.1498 83.3159C64.6495 83.3159 62.1978 86.2704 62.1978 86.2704L62.9073 86.9724C62.9073 86.9724 59.3487 89.4736 59.3487 94.8449C59.3487 101.026 64.1659 104.995 70.1757 104.995C77.1587 104.995 81.1209 99.8969 81.1209 94.1648C81.1209 88.0524 76.5974 83.3159 70.1498 83.3159ZM70.2496 87.6635C73.979 87.6635 76.3984 90.4842 76.3984 94.1465C76.3984 97.7709 74.0079 100.67 70.2496 100.67C66.5366 100.67 64.0971 98.1041 64.0971 94.6987C64.0971 91.5993 66.2181 90.2486 66.2181 90.2486L65.4495 89.4881C65.4495 89.4881 67.085 87.6635 70.2496 87.6635ZM55.8559 0C31.8673 0 21.5129 21.1289 21.5129 21.1289L24.5608 23.288C24.5608 23.288 20.7253 30.5056 20.8314 39.7632C20.8314 58.6616 36.0341 76.464 58.4138 76.464C78.7449 76.464 95.5396 60.089 95.5396 39.8097C95.5396 13.361 74.8125 0 55.856 0H55.8559ZM56.064 6.4473C74.8062 6.4473 89.3497 21.3924 89.3497 38.7668C89.3497 57.1848 75.3508 69.9934 59.0381 69.9934C47.0323 69.9934 36.202 60.9464 36.202 48.5423C36.202 41.378 40.0502 36.3832 44.3623 33.7212L44.9934 34.3988C43.8133 35.3125 40.4484 40.6612 40.4484 45.9183C40.4484 55.6776 48.1826 62.4367 57.927 62.4367C70.3397 62.4367 78.6181 51.9605 78.6181 39.7965C78.6181 25.6439 65.9934 13.6287 50.8006 13.6287C42.3973 13.6287 35.2652 17.2047 31.1669 20.3617L30.5291 19.7904C35.8907 11.6099 45.1757 6.4473 56.064 6.4473ZM50.4716 19.9863C60.1669 19.9863 69.6325 26.3332 71.9952 35.3421L71.1358 35.6643C66.8936 30.1209 59.9423 25.5268 51.7337 25.5268C36.6291 25.5268 28.6965 39.1086 29.8611 50.4522L28.9716 50.7745C28.9716 50.7745 27.3033 47.1319 27.3033 42.8125C27.3033 30.3043 37.6839 19.9863 50.4716 19.9863ZM56.8797 35.6842C61.4698 35.6842 65.1407 39.3657 65.1407 43.736C65.1407 47.3524 62.7943 49.4957 62.7943 49.4957L65.5736 51.4188C65.5736 51.4188 62.8176 55.7005 57.1918 55.7005C51.8105 55.7005 47.0511 51.4024 47.0511 45.6226C47.0511 39.667 52.228 35.6842 56.8797 35.6842Z" fill-opacity="0.8"/></g><defs><clipPath id="eclip0_2001_125"><rect width="116" height="105"/></clipPath></defs></symbol><symbol viewBox="0 0 133 105" id="logo_xbox" xmlns="http://www.w3.org/2000/svg"><g clip-path="url(#fclip0_2001_57)"><path d="M33.3246 104.261H27.2113L16.6996 89.8416L6.11323 104.261H0L13.5684 85.7007L1.11827 68.6197H7.2315L16.6996 81.5599L26.1676 68.6197H32.2808L19.7562 85.7007L33.3246 104.261ZM65.0835 94.1303C65.0835 97.2359 64.0398 99.75 61.9524 101.525C59.8649 103.299 56.8828 104.261 53.0062 104.261H36.2321V88.3627H28.1805L31.5353 83.7782H36.2321V68.6197H52.3352C55.9882 68.6197 58.7466 69.507 60.685 71.2077C62.6233 72.9085 63.5925 75.2007 63.5925 77.9366C63.5925 81.338 62.0269 84 58.8957 85.7007C60.9086 86.4401 62.3997 87.6232 63.4434 89.0282C64.5617 90.4331 65.0835 92.2077 65.0835 94.1303ZM41.6743 83.8521H51.9624C54.0499 83.8521 55.6155 83.4085 56.6592 82.4472C57.7029 81.5599 58.2248 80.1549 58.2248 78.3063C58.2248 76.7535 57.7029 75.4965 56.5846 74.6092C55.5409 73.7218 53.9753 73.2782 51.9624 73.2782H41.6743V83.8521ZM59.5667 93.9824C59.5667 92.1338 58.9703 90.6549 57.852 89.7676C56.7337 88.8063 55.0191 88.3627 52.7825 88.3627H41.6743V99.5282H52.708C54.87 99.5282 56.5846 99.0106 57.7775 98.1232C58.9703 97.162 59.5667 95.757 59.5667 93.9824ZM102.061 86.4401C102.061 89.1761 101.688 91.7641 100.868 93.9824C100.048 96.2007 98.8554 98.1972 97.2898 99.8979C95.6497 101.599 93.7859 102.93 91.6984 103.743C89.611 104.63 87.2253 105 84.5415 105C81.9322 105 79.472 104.556 77.3845 103.743C75.2971 102.856 73.4333 101.599 71.7932 99.8979C70.153 98.1972 68.9602 96.2007 68.1401 93.9824C67.3201 91.7641 66.9473 89.1761 66.9473 86.4401C66.9473 83.7042 67.3201 81.1162 68.1401 78.8979C68.9602 76.6796 70.153 74.6092 71.7932 72.9084C73.3587 71.2077 75.2225 69.9507 77.3845 69.0634C79.472 68.25 81.9322 67.8063 84.5415 67.8063C87.1508 67.8063 89.5364 68.25 91.6984 69.0634C93.7859 69.8768 95.7242 71.2077 97.2898 72.9084C98.8554 74.6092 100.123 76.6796 100.868 78.8979C101.614 81.1162 102.061 83.6303 102.061 86.4401ZM72.6132 86.4401C72.6132 90.6549 73.7315 93.9824 75.8935 96.4225C78.0555 98.8627 80.8885 100.12 84.5415 100.12C88.12 100.12 91.0275 98.8627 93.1895 96.4225C95.3515 93.9824 96.3952 90.6549 96.3952 86.4401C96.3952 82.2254 95.3515 78.8239 93.1895 76.3838C91.0275 73.9437 88.12 72.6866 84.5415 72.6866C80.963 72.6866 78.0555 73.9437 75.8935 76.3838C73.7315 78.8979 72.6132 82.2254 72.6132 86.4401ZM119.357 85.7007L131.882 68.6197H125.768L116.3 81.5599L106.832 68.6197H100.719L113.244 85.7007L99.6754 104.261H105.789L116.3 89.8416L126.887 104.261H133L119.357 85.7007ZM66.5 23.8099C75.5207 30.6127 90.8038 47.3239 86.1816 52.0563C80.8885 56.6408 74.0297 59.3768 66.5 59.3768C58.9703 59.3768 52.037 56.6408 46.8184 52.0563C42.1216 47.3239 57.4793 30.6127 66.4254 23.8838C66.4254 23.8099 66.5 23.8099 66.5 23.8099ZM82.0813 4.36268C77.5336 1.62676 72.5387 0 66.5 0C60.4613 0 55.4664 1.62676 50.9187 4.36268C50.8442 4.36268 50.8442 4.43662 50.8442 4.51056C50.8442 4.58451 50.9187 4.58451 50.9933 4.58451C56.8083 3.32746 65.6054 8.28169 66.4254 8.7993H66.5746C67.3946 8.28169 76.1917 3.32746 82.0067 4.58451C82.0813 4.58451 82.1558 4.58451 82.1558 4.51056C82.1558 4.43662 82.1558 4.36268 82.0813 4.36268ZM45.551 8.50352C45.4765 8.50352 45.4765 8.57747 45.4019 8.57747C39.9596 13.9754 36.6048 21.4437 36.6048 29.6514C36.6048 36.3803 38.9159 42.6655 42.718 47.6197C42.718 47.6937 42.7926 47.6937 42.8672 47.6937C42.9417 47.6937 42.9417 47.6197 42.8672 47.5458C40.5561 40.5211 52.2606 23.588 58.2993 16.4894L58.3739 16.4155C58.3739 16.3416 58.3739 16.3415 58.2993 16.3415C49.1295 7.32042 46.0729 8.28169 45.551 8.50352ZM74.7007 16.2676L74.6261 16.3415C74.6261 16.3415 74.6261 16.4155 74.7007 16.4155C80.7393 23.5141 92.3694 40.4472 90.1329 47.4718V47.6197C90.2074 47.6197 90.282 47.6197 90.282 47.5458C94.0841 42.5916 96.3952 36.3063 96.3952 29.5775C96.3952 21.3697 93.0404 13.9014 87.5235 8.50352C87.449 8.42958 87.449 8.42958 87.3744 8.42958C86.9271 8.28169 83.8705 7.32042 74.7007 16.2676Z" fill-opacity="0.8"/></g><defs><clipPath id="fclip0_2001_57"><rect width="133" height="105"/></clipPath></defs></symbol></svg>