<svg width="140" height="161" viewBox="0 0 140 161" fill="none" xmlns="http://www.w3.org/2000/svg">
<path d="M139.746 42.9785H129.04V139.545H139.746V42.9785Z" fill="#0F0F0F"/>
<path d="M129.037 139.524H118.33V150.23H129.037V139.524Z" fill="#0F0F0F"/>
<path d="M107.552 85.8678H118.328V42.9729H129.035V32.1964H118.328V21.4902H107.552V85.8678Z" fill="#0F0F0F"/>
<path d="M118.335 150.227H53.8865V161.003H118.335V150.227Z" fill="#0F0F0F"/>
<path d="M107.555 118.036H96.8491V128.812H107.555V118.036Z" fill="#0F0F0F"/>
<path d="M107.555 96.5752H96.8491V107.352H107.555V96.5752Z" fill="#0F0F0F"/>
<path d="M86.0707 85.8592H96.8472V21.4816H107.553V10.7051H86.0707V85.8592Z" fill="#0F0F0F"/>
<path d="M96.8505 128.821H75.3678V139.527H96.8505V128.821Z" fill="#0F0F0F"/>
<path d="M75.3642 118.036H64.6581V128.812H75.3642V118.036Z" fill="#0F0F0F"/>
<path d="M75.3642 96.5752H64.6581V107.352H75.3642V96.5752Z" fill="#0F0F0F"/>
<path d="M64.663 85.8625H75.3692V10.7083H86.0753V0.00219727H64.663V10.7083H53.8865V21.4849H64.663V85.8625Z" fill="#0F0F0F"/>
<path d="M53.8829 139.524H43.1768V150.23H53.8829V139.524Z" fill="#0F0F0F"/>
<path d="M43.1801 118.036H32.474V139.519H43.1801V118.036Z" fill="#0F0F0F"/>
<path d="M43.1801 85.8678V96.574H53.8862V21.4902H43.1801V75.1617H32.474V85.8678H43.1801Z" fill="#0F0F0F"/>
<path d="M32.4721 107.333H21.6956V118.039H32.4721V107.333Z" fill="#0F0F0F"/>
<path d="M32.4685 64.3843H10.9858V75.1608H32.4685V64.3843Z" fill="#0F0F0F"/>
<path d="M21.692 96.5752H10.9858V107.352H21.692V96.5752Z" fill="#0F0F0F"/>
<path d="M10.9908 75.1421H0.214233V96.5543H10.9908V75.1421Z" fill="#0F0F0F"/>
</svg>
