<svg width="78" height="25" viewBox="0 0 78 25" fill="none" xmlns="http://www.w3.org/2000/svg">
<path d="M20.8 2.73375H23.7714V0.259725H38.6286V2.73375H41.6V22.526H38.6286V25H23.7714V22.526H20.8V2.73375ZM32.6857 17.5779H35.6571V7.68181H32.6857V5.20778H29.7143V7.68181H26.7429V17.5779H29.7143V20.0519H32.6857V17.5779Z" fill="#0F0F0F"/>
<path d="M19.6604 0V24.6632H16.7549L3.24445 5.29873H3.00232V24.6632H0V0H2.90547L16.4644 19.4126H16.7065V0H19.6604Z" fill="#0F0F0F"/>
<path d="M50.4232 24.6632H42.7721V0H50.7621C53.1672 0 55.2253 0.493746 56.9363 1.48124C58.6473 2.4607 59.9588 3.86968 60.8708 5.70818C61.7828 7.53866 62.2388 9.7304 62.2388 12.2834C62.2388 14.8525 61.7787 17.0643 60.8587 18.9189C59.9386 20.7654 58.5989 22.1864 56.8394 23.182C55.08 24.1695 52.9412 24.6632 50.4232 24.6632ZM45.7744 22.0138H50.2295C52.2794 22.0138 53.9783 21.6204 55.3262 20.8337C56.674 20.0469 57.6788 18.9269 58.3406 17.4738C59.0024 16.0206 59.3333 14.2905 59.3333 12.2834C59.3333 10.2924 59.0064 8.57833 58.3527 7.14125C57.699 5.69614 56.7224 4.58822 55.423 3.8175C54.1236 3.03874 52.5054 2.64937 50.5684 2.64937H45.7744V22.0138Z" fill="#0F0F0F"/>
<path d="M62.8431 24.6632V0H77.8063V2.64937H65.8454V10.9828H77.0315V13.6322H65.8454V22.0138H78V24.6632H62.8431Z" fill="#0F0F0F"/>
</svg>
