<svg width="130" height="27" viewBox="0 0 130 27" fill="none" xmlns="http://www.w3.org/2000/svg">
<mask id="path-1-outside-1_4001_342" maskUnits="userSpaceOnUse" x="0" y="0" width="130" height="27" fill="black">
<rect fill="white" width="130" height="27"/>
<path d="M1 25.6858V2.70556H10.5535C12.1962 2.70556 13.6335 3.04219 14.8655 3.71544C16.0975 4.38869 17.0558 5.33498 17.7402 6.55431C18.4247 7.77364 18.7669 9.19868 18.7669 10.8294C18.7669 12.4752 18.4139 13.9002 17.7078 15.1046C17.0089 16.3089 16.0255 17.2365 14.7575 17.8873C13.4966 18.5382 12.0233 18.8636 10.3373 18.8636H4.63119V14.0162H9.12695C9.83301 14.0162 10.4346 13.889 10.9317 13.6347C11.4361 13.3728 11.8215 13.0025 12.0881 12.5238C12.3619 12.045 12.4988 11.4803 12.4988 10.8294C12.4988 10.1712 12.3619 9.61011 12.0881 9.14632C11.8215 8.67504 11.4361 8.31598 10.9317 8.06912C10.4346 7.81478 9.83301 7.68761 9.12695 7.68761H7.00875V25.6858H1Z"/>
<path d="M23.7231 25.9551C22.664 25.9551 21.7274 25.7756 20.9133 25.4165C20.1064 25.05 19.4723 24.4964 19.0112 23.7558C18.5501 23.0153 18.3196 22.0727 18.3196 20.9282C18.3196 19.9856 18.4745 19.1815 18.7843 18.5157C19.0941 17.8425 19.5264 17.2926 20.0811 16.8662C20.6359 16.4399 21.2807 16.1145 22.0156 15.89C22.7577 15.6656 23.5574 15.5197 24.4148 15.4524C25.3442 15.3776 26.0899 15.2879 26.6519 15.1831C27.221 15.0709 27.6317 14.9176 27.8839 14.7231C28.136 14.5211 28.2621 14.2555 28.2621 13.9264V13.8815C28.2621 13.4327 28.0964 13.0886 27.765 12.8492C27.4336 12.6098 27.0085 12.4901 26.4898 12.4901C25.9206 12.4901 25.4559 12.621 25.0956 12.8829C24.7426 13.1372 24.5301 13.5299 24.458 14.061H18.968C19.0401 13.0138 19.3607 12.0488 19.9298 11.1661C20.5062 10.2759 21.3456 9.56523 22.4479 9.03411C23.5502 8.49551 24.9263 8.22621 26.5762 8.22621C27.765 8.22621 28.8313 8.37208 29.7751 8.66382C30.7189 8.94809 31.5223 9.34829 32.1851 9.86445C32.848 10.3731 33.3523 10.9716 33.6981 11.6598C34.0511 12.3405 34.2277 13.0811 34.2277 13.8815V25.6858H28.6512V23.2621H28.5215C28.1901 23.9054 27.7866 24.4253 27.3111 24.8218C26.8428 25.2183 26.306 25.5063 25.7008 25.6858C25.1029 25.8654 24.4436 25.9551 23.7231 25.9551ZM25.6684 22.0503C26.1223 22.0503 26.5474 21.953 26.9437 21.7585C27.3471 21.564 27.6749 21.2835 27.9271 20.917C28.1793 20.5504 28.3054 20.1053 28.3054 19.5817V18.1454C28.1469 18.2127 27.9775 18.2763 27.7974 18.3362C27.6245 18.396 27.4372 18.4521 27.2355 18.5045C27.0409 18.5569 26.832 18.6055 26.6086 18.6504C26.3925 18.6952 26.1656 18.7364 25.9278 18.7738C25.4667 18.8486 25.0884 18.972 24.793 19.1441C24.5049 19.3086 24.2887 19.5144 24.1446 19.7612C24.0077 20.0006 23.9393 20.2699 23.9393 20.5691C23.9393 21.0479 24.1014 21.4144 24.4256 21.6688C24.7498 21.9231 25.1641 22.0503 25.6684 22.0503Z"/>
<path d="M38.8003 25.6858L34.6503 8.45063H40.6158L42.5179 18.9533H42.6476L44.7658 8.45063H50.5584L52.763 18.8636H52.8927L54.7083 8.45063H60.6739L56.5239 25.6858H50.0829L47.7485 16.4399H47.5756L45.2413 25.6858H38.8003Z"/>
<path d="M76.4453 14.061H70.9553C70.9265 13.7095 70.8076 13.4065 70.5987 13.1522C70.3897 12.8978 70.1196 12.7033 69.7881 12.5687C69.4639 12.4265 69.1037 12.3555 68.7074 12.3555C68.1959 12.3555 67.7564 12.4527 67.389 12.6472C67.0215 12.8417 66.8414 13.1185 66.8486 13.4776C66.8414 13.7319 66.9459 13.9675 67.162 14.1845C67.3854 14.4014 67.814 14.5697 68.4481 14.6894L71.8199 15.3178C73.5202 15.6394 74.7846 16.1818 75.6132 16.9448C76.4489 17.7003 76.8704 18.7139 76.8776 19.9856C76.8704 21.2124 76.5174 22.2784 75.8185 23.1836C75.1269 24.0812 74.1794 24.7769 72.9762 25.2706C71.7802 25.7569 70.415 26 68.8803 26C66.3443 26 64.3594 25.4614 62.9256 24.3842C61.4991 23.307 60.703 21.8857 60.5372 20.1203H66.4595C66.5388 20.6664 66.7982 21.089 67.2377 21.3882C67.6843 21.68 68.2463 21.8259 68.9236 21.8259C69.4711 21.8259 69.9214 21.7286 70.2745 21.5341C70.6347 21.3396 70.8184 21.0628 70.8256 20.7038C70.8184 20.3746 70.6599 20.1128 70.3501 19.9183C70.0475 19.7238 69.572 19.5667 68.9236 19.447L65.984 18.9084C64.2909 18.6017 63.0229 18.0183 62.1799 17.158C61.337 16.2977 60.9191 15.1906 60.9263 13.8366C60.9191 12.6397 61.2217 11.6261 61.8341 10.7958C62.4537 9.95796 63.3363 9.32211 64.4818 8.88824C65.6346 8.44689 66.9999 8.22621 68.5777 8.22621C70.9769 8.22621 72.8682 8.74237 74.2515 9.77469C75.642 10.807 76.3733 12.2358 76.4453 14.061Z"/>
<path d="M77.946 25.6858V8.45063H83.9115V25.6858H77.946ZM80.9288 6.6553C80.1218 6.6553 79.4302 6.37852 78.8538 5.82496C78.2774 5.27139 77.9892 4.60562 77.9892 3.82765C77.9892 3.04967 78.2774 2.3839 78.8538 1.83034C79.4302 1.27678 80.1218 1 80.9288 1C81.7429 1 82.4346 1.27678 83.0037 1.83034C83.5801 2.3839 83.8683 3.04967 83.8683 3.82765C83.8683 4.60562 83.5801 5.27139 83.0037 5.82496C82.4346 6.37852 81.7429 6.6553 80.9288 6.6553Z"/>
<path d="M85.6473 25.6858V2.70556H91.6128V11.4578H91.6992C91.9154 10.8743 92.2324 10.3395 92.6503 9.85323C93.0681 9.35951 93.5869 8.96679 94.2065 8.67504C94.8261 8.37582 95.5466 8.22621 96.3679 8.22621C97.463 8.22621 98.5041 8.52917 99.4912 9.1351C100.485 9.74102 101.292 10.6948 101.912 11.9964C102.539 13.298 102.852 14.9886 102.852 17.0682C102.852 19.058 102.553 20.7075 101.955 22.0166C101.364 23.3257 100.572 24.3019 99.5776 24.9452C98.5906 25.5886 97.5063 25.9102 96.3247 25.9102C95.5466 25.9102 94.8513 25.7793 94.2389 25.5175C93.6337 25.2482 93.115 24.8854 92.6827 24.4291C92.2576 23.9653 91.9298 23.4417 91.6992 22.8582H91.5696V25.6858H85.6473ZM91.4831 17.0682C91.4831 17.906 91.5876 18.6317 91.7965 19.2451C92.0126 19.851 92.3152 20.3223 92.7043 20.6589C93.1006 20.988 93.5725 21.1526 94.12 21.1526C94.6676 21.1526 95.1323 20.9918 95.5141 20.6701C95.9032 20.341 96.1986 19.8734 96.4003 19.2675C96.6093 18.6541 96.7137 17.921 96.7137 17.0682C96.7137 16.2154 96.6093 15.4861 96.4003 14.8802C96.1986 14.2668 95.9032 13.7992 95.5141 13.4776C95.1323 13.1484 94.6676 12.9838 94.12 12.9838C93.5725 12.9838 93.1006 13.1484 92.7043 13.4776C92.3152 13.7992 92.0126 14.2668 91.7965 14.8802C91.5876 15.4861 91.4831 16.2154 91.4831 17.0682Z"/>
<path d="M110.097 2.70556V25.6858H104.131V2.70556H110.097Z"/>
<path d="M119.873 26C118.101 26 116.573 25.6484 115.291 24.9452C114.016 24.2346 113.032 23.2172 112.341 21.8932C111.656 20.5616 111.314 18.9683 111.314 17.1131C111.314 15.3327 111.66 13.7768 112.351 12.4452C113.043 11.1137 114.019 10.0776 115.28 9.33707C116.541 8.5965 118.029 8.22621 119.743 8.22621C120.997 8.22621 122.132 8.42819 123.148 8.83214C124.163 9.23609 125.032 9.82331 125.752 10.5938C126.473 11.3568 127.027 12.2844 127.416 13.3766C127.805 14.4687 128 15.6993 128 17.0682V18.5045H113.173V15.0934H122.51C122.503 14.5996 122.38 14.1658 122.143 13.7917C121.912 13.4102 121.599 13.1148 121.202 12.9053C120.813 12.6884 120.37 12.5799 119.873 12.5799C119.39 12.5799 118.947 12.6884 118.544 12.9053C118.14 13.1148 117.816 13.4065 117.571 13.7805C117.333 14.1545 117.207 14.5922 117.193 15.0934V18.7738C117.193 19.3273 117.305 19.8211 117.528 20.2549C117.751 20.6888 118.072 21.0292 118.49 21.276C118.908 21.5229 119.412 21.6463 120.003 21.6463C120.413 21.6463 120.788 21.5865 121.127 21.4668C121.473 21.3471 121.768 21.175 122.013 20.9506C122.258 20.7187 122.438 20.442 122.553 20.1203H128C127.813 21.3172 127.37 22.357 126.671 23.2397C125.972 24.1149 125.046 24.7956 123.893 25.2819C122.748 25.7606 121.408 26 119.873 26Z"/>
</mask>
<path d="M1 25.6858V2.70556H10.5535C12.1962 2.70556 13.6335 3.04219 14.8655 3.71544C16.0975 4.38869 17.0558 5.33498 17.7402 6.55431C18.4247 7.77364 18.7669 9.19868 18.7669 10.8294C18.7669 12.4752 18.4139 13.9002 17.7078 15.1046C17.0089 16.3089 16.0255 17.2365 14.7575 17.8873C13.4966 18.5382 12.0233 18.8636 10.3373 18.8636H4.63119V14.0162H9.12695C9.83301 14.0162 10.4346 13.889 10.9317 13.6347C11.4361 13.3728 11.8215 13.0025 12.0881 12.5238C12.3619 12.045 12.4988 11.4803 12.4988 10.8294C12.4988 10.1712 12.3619 9.61011 12.0881 9.14632C11.8215 8.67504 11.4361 8.31598 10.9317 8.06912C10.4346 7.81478 9.83301 7.68761 9.12695 7.68761H7.00875V25.6858H1Z" fill="white"/>
<path d="M23.7231 25.9551C22.664 25.9551 21.7274 25.7756 20.9133 25.4165C20.1064 25.05 19.4723 24.4964 19.0112 23.7558C18.5501 23.0153 18.3196 22.0727 18.3196 20.9282C18.3196 19.9856 18.4745 19.1815 18.7843 18.5157C19.0941 17.8425 19.5264 17.2926 20.0811 16.8662C20.6359 16.4399 21.2807 16.1145 22.0156 15.89C22.7577 15.6656 23.5574 15.5197 24.4148 15.4524C25.3442 15.3776 26.0899 15.2879 26.6519 15.1831C27.221 15.0709 27.6317 14.9176 27.8839 14.7231C28.136 14.5211 28.2621 14.2555 28.2621 13.9264V13.8815C28.2621 13.4327 28.0964 13.0886 27.765 12.8492C27.4336 12.6098 27.0085 12.4901 26.4898 12.4901C25.9206 12.4901 25.4559 12.621 25.0956 12.8829C24.7426 13.1372 24.5301 13.5299 24.458 14.061H18.968C19.0401 13.0138 19.3607 12.0488 19.9298 11.1661C20.5062 10.2759 21.3456 9.56523 22.4479 9.03411C23.5502 8.49551 24.9263 8.22621 26.5762 8.22621C27.765 8.22621 28.8313 8.37208 29.7751 8.66382C30.7189 8.94809 31.5223 9.34829 32.1851 9.86445C32.848 10.3731 33.3523 10.9716 33.6981 11.6598C34.0511 12.3405 34.2277 13.0811 34.2277 13.8815V25.6858H28.6512V23.2621H28.5215C28.1901 23.9054 27.7866 24.4253 27.3111 24.8218C26.8428 25.2183 26.306 25.5063 25.7008 25.6858C25.1029 25.8654 24.4436 25.9551 23.7231 25.9551ZM25.6684 22.0503C26.1223 22.0503 26.5474 21.953 26.9437 21.7585C27.3471 21.564 27.6749 21.2835 27.9271 20.917C28.1793 20.5504 28.3054 20.1053 28.3054 19.5817V18.1454C28.1469 18.2127 27.9775 18.2763 27.7974 18.3362C27.6245 18.396 27.4372 18.4521 27.2355 18.5045C27.0409 18.5569 26.832 18.6055 26.6086 18.6504C26.3925 18.6952 26.1656 18.7364 25.9278 18.7738C25.4667 18.8486 25.0884 18.972 24.793 19.1441C24.5049 19.3086 24.2887 19.5144 24.1446 19.7612C24.0077 20.0006 23.9393 20.2699 23.9393 20.5691C23.9393 21.0479 24.1014 21.4144 24.4256 21.6688C24.7498 21.9231 25.1641 22.0503 25.6684 22.0503Z" fill="white"/>
<path d="M38.8003 25.6858L34.6503 8.45063H40.6158L42.5179 18.9533H42.6476L44.7658 8.45063H50.5584L52.763 18.8636H52.8927L54.7083 8.45063H60.6739L56.5239 25.6858H50.0829L47.7485 16.4399H47.5756L45.2413 25.6858H38.8003Z" fill="white"/>
<path d="M76.4453 14.061H70.9553C70.9265 13.7095 70.8076 13.4065 70.5987 13.1522C70.3897 12.8978 70.1196 12.7033 69.7881 12.5687C69.4639 12.4265 69.1037 12.3555 68.7074 12.3555C68.1959 12.3555 67.7564 12.4527 67.389 12.6472C67.0215 12.8417 66.8414 13.1185 66.8486 13.4776C66.8414 13.7319 66.9459 13.9675 67.162 14.1845C67.3854 14.4014 67.814 14.5697 68.4481 14.6894L71.8199 15.3178C73.5202 15.6394 74.7846 16.1818 75.6132 16.9448C76.4489 17.7003 76.8704 18.7139 76.8776 19.9856C76.8704 21.2124 76.5174 22.2784 75.8185 23.1836C75.1269 24.0812 74.1794 24.7769 72.9762 25.2706C71.7802 25.7569 70.415 26 68.8803 26C66.3443 26 64.3594 25.4614 62.9256 24.3842C61.4991 23.307 60.703 21.8857 60.5372 20.1203H66.4595C66.5388 20.6664 66.7982 21.089 67.2377 21.3882C67.6843 21.68 68.2463 21.8259 68.9236 21.8259C69.4711 21.8259 69.9214 21.7286 70.2745 21.5341C70.6347 21.3396 70.8184 21.0628 70.8256 20.7038C70.8184 20.3746 70.6599 20.1128 70.3501 19.9183C70.0475 19.7238 69.572 19.5667 68.9236 19.447L65.984 18.9084C64.2909 18.6017 63.0229 18.0183 62.1799 17.158C61.337 16.2977 60.9191 15.1906 60.9263 13.8366C60.9191 12.6397 61.2217 11.6261 61.8341 10.7958C62.4537 9.95796 63.3363 9.32211 64.4818 8.88824C65.6346 8.44689 66.9999 8.22621 68.5777 8.22621C70.9769 8.22621 72.8682 8.74237 74.2515 9.77469C75.642 10.807 76.3733 12.2358 76.4453 14.061Z" fill="white"/>
<path d="M77.946 25.6858V8.45063H83.9115V25.6858H77.946ZM80.9288 6.6553C80.1218 6.6553 79.4302 6.37852 78.8538 5.82496C78.2774 5.27139 77.9892 4.60562 77.9892 3.82765C77.9892 3.04967 78.2774 2.3839 78.8538 1.83034C79.4302 1.27678 80.1218 1 80.9288 1C81.7429 1 82.4346 1.27678 83.0037 1.83034C83.5801 2.3839 83.8683 3.04967 83.8683 3.82765C83.8683 4.60562 83.5801 5.27139 83.0037 5.82496C82.4346 6.37852 81.7429 6.6553 80.9288 6.6553Z" fill="white"/>
<path d="M85.6473 25.6858V2.70556H91.6128V11.4578H91.6992C91.9154 10.8743 92.2324 10.3395 92.6503 9.85323C93.0681 9.35951 93.5869 8.96679 94.2065 8.67504C94.8261 8.37582 95.5466 8.22621 96.3679 8.22621C97.463 8.22621 98.5041 8.52917 99.4912 9.1351C100.485 9.74102 101.292 10.6948 101.912 11.9964C102.539 13.298 102.852 14.9886 102.852 17.0682C102.852 19.058 102.553 20.7075 101.955 22.0166C101.364 23.3257 100.572 24.3019 99.5776 24.9452C98.5906 25.5886 97.5063 25.9102 96.3247 25.9102C95.5466 25.9102 94.8513 25.7793 94.2389 25.5175C93.6337 25.2482 93.115 24.8854 92.6827 24.4291C92.2576 23.9653 91.9298 23.4417 91.6992 22.8582H91.5696V25.6858H85.6473ZM91.4831 17.0682C91.4831 17.906 91.5876 18.6317 91.7965 19.2451C92.0126 19.851 92.3152 20.3223 92.7043 20.6589C93.1006 20.988 93.5725 21.1526 94.12 21.1526C94.6676 21.1526 95.1323 20.9918 95.5141 20.6701C95.9032 20.341 96.1986 19.8734 96.4003 19.2675C96.6093 18.6541 96.7137 17.921 96.7137 17.0682C96.7137 16.2154 96.6093 15.4861 96.4003 14.8802C96.1986 14.2668 95.9032 13.7992 95.5141 13.4776C95.1323 13.1484 94.6676 12.9838 94.12 12.9838C93.5725 12.9838 93.1006 13.1484 92.7043 13.4776C92.3152 13.7992 92.0126 14.2668 91.7965 14.8802C91.5876 15.4861 91.4831 16.2154 91.4831 17.0682Z" fill="white"/>
<path d="M110.097 2.70556V25.6858H104.131V2.70556H110.097Z" fill="white"/>
<path d="M119.873 26C118.101 26 116.573 25.6484 115.291 24.9452C114.016 24.2346 113.032 23.2172 112.341 21.8932C111.656 20.5616 111.314 18.9683 111.314 17.1131C111.314 15.3327 111.66 13.7768 112.351 12.4452C113.043 11.1137 114.019 10.0776 115.28 9.33707C116.541 8.5965 118.029 8.22621 119.743 8.22621C120.997 8.22621 122.132 8.42819 123.148 8.83214C124.163 9.23609 125.032 9.82331 125.752 10.5938C126.473 11.3568 127.027 12.2844 127.416 13.3766C127.805 14.4687 128 15.6993 128 17.0682V18.5045H113.173V15.0934H122.51C122.503 14.5996 122.38 14.1658 122.143 13.7917C121.912 13.4102 121.599 13.1148 121.202 12.9053C120.813 12.6884 120.37 12.5799 119.873 12.5799C119.39 12.5799 118.947 12.6884 118.544 12.9053C118.14 13.1148 117.816 13.4065 117.571 13.7805C117.333 14.1545 117.207 14.5922 117.193 15.0934V18.7738C117.193 19.3273 117.305 19.8211 117.528 20.2549C117.751 20.6888 118.072 21.0292 118.49 21.276C118.908 21.5229 119.412 21.6463 120.003 21.6463C120.413 21.6463 120.788 21.5865 121.127 21.4668C121.473 21.3471 121.768 21.175 122.013 20.9506C122.258 20.7187 122.438 20.442 122.553 20.1203H128C127.813 21.3172 127.37 22.357 126.671 23.2397C125.972 24.1149 125.046 24.7956 123.893 25.2819C122.748 25.7606 121.408 26 119.873 26Z" fill="white"/>
<path d="M1 25.6858V2.70556H10.5535C12.1962 2.70556 13.6335 3.04219 14.8655 3.71544C16.0975 4.38869 17.0558 5.33498 17.7402 6.55431C18.4247 7.77364 18.7669 9.19868 18.7669 10.8294C18.7669 12.4752 18.4139 13.9002 17.7078 15.1046C17.0089 16.3089 16.0255 17.2365 14.7575 17.8873C13.4966 18.5382 12.0233 18.8636 10.3373 18.8636H4.63119V14.0162H9.12695C9.83301 14.0162 10.4346 13.889 10.9317 13.6347C11.4361 13.3728 11.8215 13.0025 12.0881 12.5238C12.3619 12.045 12.4988 11.4803 12.4988 10.8294C12.4988 10.1712 12.3619 9.61011 12.0881 9.14632C11.8215 8.67504 11.4361 8.31598 10.9317 8.06912C10.4346 7.81478 9.83301 7.68761 9.12695 7.68761H7.00875V25.6858H1Z" stroke="black" stroke-width="2" mask="url(#path-1-outside-1_4001_342)"/>
<path d="M23.7231 25.9551C22.664 25.9551 21.7274 25.7756 20.9133 25.4165C20.1064 25.05 19.4723 24.4964 19.0112 23.7558C18.5501 23.0153 18.3196 22.0727 18.3196 20.9282C18.3196 19.9856 18.4745 19.1815 18.7843 18.5157C19.0941 17.8425 19.5264 17.2926 20.0811 16.8662C20.6359 16.4399 21.2807 16.1145 22.0156 15.89C22.7577 15.6656 23.5574 15.5197 24.4148 15.4524C25.3442 15.3776 26.0899 15.2879 26.6519 15.1831C27.221 15.0709 27.6317 14.9176 27.8839 14.7231C28.136 14.5211 28.2621 14.2555 28.2621 13.9264V13.8815C28.2621 13.4327 28.0964 13.0886 27.765 12.8492C27.4336 12.6098 27.0085 12.4901 26.4898 12.4901C25.9206 12.4901 25.4559 12.621 25.0956 12.8829C24.7426 13.1372 24.5301 13.5299 24.458 14.061H18.968C19.0401 13.0138 19.3607 12.0488 19.9298 11.1661C20.5062 10.2759 21.3456 9.56523 22.4479 9.03411C23.5502 8.49551 24.9263 8.22621 26.5762 8.22621C27.765 8.22621 28.8313 8.37208 29.7751 8.66382C30.7189 8.94809 31.5223 9.34829 32.1851 9.86445C32.848 10.3731 33.3523 10.9716 33.6981 11.6598C34.0511 12.3405 34.2277 13.0811 34.2277 13.8815V25.6858H28.6512V23.2621H28.5215C28.1901 23.9054 27.7866 24.4253 27.3111 24.8218C26.8428 25.2183 26.306 25.5063 25.7008 25.6858C25.1029 25.8654 24.4436 25.9551 23.7231 25.9551ZM25.6684 22.0503C26.1223 22.0503 26.5474 21.953 26.9437 21.7585C27.3471 21.564 27.6749 21.2835 27.9271 20.917C28.1793 20.5504 28.3054 20.1053 28.3054 19.5817V18.1454C28.1469 18.2127 27.9775 18.2763 27.7974 18.3362C27.6245 18.396 27.4372 18.4521 27.2355 18.5045C27.0409 18.5569 26.832 18.6055 26.6086 18.6504C26.3925 18.6952 26.1656 18.7364 25.9278 18.7738C25.4667 18.8486 25.0884 18.972 24.793 19.1441C24.5049 19.3086 24.2887 19.5144 24.1446 19.7612C24.0077 20.0006 23.9393 20.2699 23.9393 20.5691C23.9393 21.0479 24.1014 21.4144 24.4256 21.6688C24.7498 21.9231 25.1641 22.0503 25.6684 22.0503Z" stroke="black" stroke-width="2" mask="url(#path-1-outside-1_4001_342)"/>
<path d="M38.8003 25.6858L34.6503 8.45063H40.6158L42.5179 18.9533H42.6476L44.7658 8.45063H50.5584L52.763 18.8636H52.8927L54.7083 8.45063H60.6739L56.5239 25.6858H50.0829L47.7485 16.4399H47.5756L45.2413 25.6858H38.8003Z" stroke="black" stroke-width="2" mask="url(#path-1-outside-1_4001_342)"/>
<path d="M76.4453 14.061H70.9553C70.9265 13.7095 70.8076 13.4065 70.5987 13.1522C70.3897 12.8978 70.1196 12.7033 69.7881 12.5687C69.4639 12.4265 69.1037 12.3555 68.7074 12.3555C68.1959 12.3555 67.7564 12.4527 67.389 12.6472C67.0215 12.8417 66.8414 13.1185 66.8486 13.4776C66.8414 13.7319 66.9459 13.9675 67.162 14.1845C67.3854 14.4014 67.814 14.5697 68.4481 14.6894L71.8199 15.3178C73.5202 15.6394 74.7846 16.1818 75.6132 16.9448C76.4489 17.7003 76.8704 18.7139 76.8776 19.9856C76.8704 21.2124 76.5174 22.2784 75.8185 23.1836C75.1269 24.0812 74.1794 24.7769 72.9762 25.2706C71.7802 25.7569 70.415 26 68.8803 26C66.3443 26 64.3594 25.4614 62.9256 24.3842C61.4991 23.307 60.703 21.8857 60.5372 20.1203H66.4595C66.5388 20.6664 66.7982 21.089 67.2377 21.3882C67.6843 21.68 68.2463 21.8259 68.9236 21.8259C69.4711 21.8259 69.9214 21.7286 70.2745 21.5341C70.6347 21.3396 70.8184 21.0628 70.8256 20.7038C70.8184 20.3746 70.6599 20.1128 70.3501 19.9183C70.0475 19.7238 69.572 19.5667 68.9236 19.447L65.984 18.9084C64.2909 18.6017 63.0229 18.0183 62.1799 17.158C61.337 16.2977 60.9191 15.1906 60.9263 13.8366C60.9191 12.6397 61.2217 11.6261 61.8341 10.7958C62.4537 9.95796 63.3363 9.32211 64.4818 8.88824C65.6346 8.44689 66.9999 8.22621 68.5777 8.22621C70.9769 8.22621 72.8682 8.74237 74.2515 9.77469C75.642 10.807 76.3733 12.2358 76.4453 14.061Z" stroke="black" stroke-width="2" mask="url(#path-1-outside-1_4001_342)"/>
<path d="M77.946 25.6858V8.45063H83.9115V25.6858H77.946ZM80.9288 6.6553C80.1218 6.6553 79.4302 6.37852 78.8538 5.82496C78.2774 5.27139 77.9892 4.60562 77.9892 3.82765C77.9892 3.04967 78.2774 2.3839 78.8538 1.83034C79.4302 1.27678 80.1218 1 80.9288 1C81.7429 1 82.4346 1.27678 83.0037 1.83034C83.5801 2.3839 83.8683 3.04967 83.8683 3.82765C83.8683 4.60562 83.5801 5.27139 83.0037 5.82496C82.4346 6.37852 81.7429 6.6553 80.9288 6.6553Z" stroke="black" stroke-width="2" mask="url(#path-1-outside-1_4001_342)"/>
<path d="M85.6473 25.6858V2.70556H91.6128V11.4578H91.6992C91.9154 10.8743 92.2324 10.3395 92.6503 9.85323C93.0681 9.35951 93.5869 8.96679 94.2065 8.67504C94.8261 8.37582 95.5466 8.22621 96.3679 8.22621C97.463 8.22621 98.5041 8.52917 99.4912 9.1351C100.485 9.74102 101.292 10.6948 101.912 11.9964C102.539 13.298 102.852 14.9886 102.852 17.0682C102.852 19.058 102.553 20.7075 101.955 22.0166C101.364 23.3257 100.572 24.3019 99.5776 24.9452C98.5906 25.5886 97.5063 25.9102 96.3247 25.9102C95.5466 25.9102 94.8513 25.7793 94.2389 25.5175C93.6337 25.2482 93.115 24.8854 92.6827 24.4291C92.2576 23.9653 91.9298 23.4417 91.6992 22.8582H91.5696V25.6858H85.6473ZM91.4831 17.0682C91.4831 17.906 91.5876 18.6317 91.7965 19.2451C92.0126 19.851 92.3152 20.3223 92.7043 20.6589C93.1006 20.988 93.5725 21.1526 94.12 21.1526C94.6676 21.1526 95.1323 20.9918 95.5141 20.6701C95.9032 20.341 96.1986 19.8734 96.4003 19.2675C96.6093 18.6541 96.7137 17.921 96.7137 17.0682C96.7137 16.2154 96.6093 15.4861 96.4003 14.8802C96.1986 14.2668 95.9032 13.7992 95.5141 13.4776C95.1323 13.1484 94.6676 12.9838 94.12 12.9838C93.5725 12.9838 93.1006 13.1484 92.7043 13.4776C92.3152 13.7992 92.0126 14.2668 91.7965 14.8802C91.5876 15.4861 91.4831 16.2154 91.4831 17.0682Z" stroke="black" stroke-width="2" mask="url(#path-1-outside-1_4001_342)"/>
<path d="M110.097 2.70556V25.6858H104.131V2.70556H110.097Z" stroke="black" stroke-width="2" mask="url(#path-1-outside-1_4001_342)"/>
<path d="M119.873 26C118.101 26 116.573 25.6484 115.291 24.9452C114.016 24.2346 113.032 23.2172 112.341 21.8932C111.656 20.5616 111.314 18.9683 111.314 17.1131C111.314 15.3327 111.66 13.7768 112.351 12.4452C113.043 11.1137 114.019 10.0776 115.28 9.33707C116.541 8.5965 118.029 8.22621 119.743 8.22621C120.997 8.22621 122.132 8.42819 123.148 8.83214C124.163 9.23609 125.032 9.82331 125.752 10.5938C126.473 11.3568 127.027 12.2844 127.416 13.3766C127.805 14.4687 128 15.6993 128 17.0682V18.5045H113.173V15.0934H122.51C122.503 14.5996 122.38 14.1658 122.143 13.7917C121.912 13.4102 121.599 13.1148 121.202 12.9053C120.813 12.6884 120.37 12.5799 119.873 12.5799C119.39 12.5799 118.947 12.6884 118.544 12.9053C118.14 13.1148 117.816 13.4065 117.571 13.7805C117.333 14.1545 117.207 14.5922 117.193 15.0934V18.7738C117.193 19.3273 117.305 19.8211 117.528 20.2549C117.751 20.6888 118.072 21.0292 118.49 21.276C118.908 21.5229 119.412 21.6463 120.003 21.6463C120.413 21.6463 120.788 21.5865 121.127 21.4668C121.473 21.3471 121.768 21.175 122.013 20.9506C122.258 20.7187 122.438 20.442 122.553 20.1203H128C127.813 21.3172 127.37 22.357 126.671 23.2397C125.972 24.1149 125.046 24.7956 123.893 25.2819C122.748 25.7606 121.408 26 119.873 26Z" stroke="black" stroke-width="2" mask="url(#path-1-outside-1_4001_342)"/>
</svg>
