<svg width="190" height="161" viewBox="0 0 190 161" fill="none" xmlns="http://www.w3.org/2000/svg">
<path d="M9.84698 85.2707H180.296V151.512H189.804V66.3181H180.296V75.7634H161.344V66.3181H151.898V75.7634H38.2449V66.3181H28.7996V75.7634H9.84698V66.3181H0.401733V151.512H9.84698V85.2707Z" fill="#0F0F0F"/>
<path d="M180.294 56.803H170.849V66.3104H180.294V56.803Z" fill="#0F0F0F"/>
<path d="M180.298 151.493H113.995V161.001H180.298V151.493Z" fill="#0F0F0F"/>
<path d="M170.854 47.3606H161.346V56.8058H170.854V47.3606Z" fill="#0F0F0F"/>
<path d="M104.547 94.6936V123.091H113.992V132.537H123.499V142.044H170.85V94.6936H104.547ZM161.342 132.537H151.897V123.091H142.452V113.646H132.945V104.139H161.342V132.537Z" fill="#0F0F0F"/>
<path d="M161.343 37.9185H151.898V47.3637H161.343V37.9185Z" fill="#0F0F0F"/>
<path d="M151.901 56.803H142.455V66.3104H151.901V56.803Z" fill="#0F0F0F"/>
<path d="M151.901 28.4033H142.455V37.9107H151.901V28.4033Z" fill="#0F0F0F"/>
<path d="M142.454 47.3606H132.946V56.8058H142.454V47.3606Z" fill="#0F0F0F"/>
<path d="M142.454 18.9609H132.946V28.4062H142.454V18.9609Z" fill="#0F0F0F"/>
<path d="M132.943 37.9185H123.498V47.3637H132.943V37.9185Z" fill="#0F0F0F"/>
<path d="M132.943 9.51855H123.498V18.9638H132.943V9.51855Z" fill="#0F0F0F"/>
<path d="M123.502 28.4033H113.995V37.9107H123.502V28.4033Z" fill="#0F0F0F"/>
<path d="M123.502 0.00341797H113.995V9.5108H123.502V0.00341797Z" fill="#0F0F0F"/>
<path d="M113.992 142.051H104.547V151.496H113.992V142.051Z" fill="#0F0F0F"/>
<path d="M113.992 9.51855H104.547V28.409H113.992V9.51855Z" fill="#0F0F0F"/>
<path d="M104.548 132.536H85.5952V142.043H104.548V132.536Z" fill="#0F0F0F"/>
<path d="M85.5981 142.051H76.1528V151.496H85.5981V142.051Z" fill="#0F0F0F"/>
<path d="M85.5981 9.51855H76.1528V28.409H85.5981V9.51855Z" fill="#0F0F0F"/>
<path d="M19.3531 94.6936V142.044H66.7037V132.537H76.1489V123.091H85.5941V94.6936H19.3531ZM57.1963 113.646H47.751V123.091H38.2436V132.537H28.7984V104.139H57.1963V113.646Z" fill="#0F0F0F"/>
<path d="M76.1497 28.4033H66.7045V37.9107H76.1497V28.4033Z" fill="#0F0F0F"/>
<path d="M76.1497 0.00341797H66.7045V9.5108H76.1497V0.00341797Z" fill="#0F0F0F"/>
<path d="M76.1472 151.493H9.84412V161.001H76.1472V151.493Z" fill="#0F0F0F"/>
<path d="M66.7027 37.9185H57.1953V47.3637H66.7027V37.9185Z" fill="#0F0F0F"/>
<path d="M66.7027 9.51855H57.1953V18.9638H66.7027V9.51855Z" fill="#0F0F0F"/>
<path d="M57.1983 47.3606H47.7531V56.8058H57.1983V47.3606Z" fill="#0F0F0F"/>
<path d="M57.1983 18.9609H47.7531V28.4062H57.1983V18.9609Z" fill="#0F0F0F"/>
<path d="M47.7513 56.803H38.2439V66.3104H47.7513V56.803Z" fill="#0F0F0F"/>
<path d="M47.7513 28.4033H38.2439V37.9107H47.7513V28.4033Z" fill="#0F0F0F"/>
<path d="M38.2469 37.9185H28.8016V47.3637H38.2469V37.9185Z" fill="#0F0F0F"/>
<path d="M28.7984 47.3606H19.3531V56.8058H28.7984V47.3606Z" fill="#0F0F0F"/>
<path d="M19.3515 56.803H9.84412V66.3104H19.3515V56.803Z" fill="#0F0F0F"/>
</svg>
