<svg width="1520" height="339" viewBox="0 0 1520 339" fill="none" xmlns="http://www.w3.org/2000/svg">
<path d="M405.333 53.2731H463.238V5.0613H752.762V53.2731H810.667V438.968H752.762V487.179H463.238V438.968H405.333V53.2731ZM636.952 342.544H694.857V149.697H636.952V101.485H579.048V149.697H521.143V342.544H579.048V390.756H636.952V342.544Z" fill="white"/>
<path d="M383.125 0V480.616H326.506L63.2251 103.257H58.5068V480.616H0V0H56.6195L320.844 378.298H325.562V0H383.125Z" fill="white"/>
<path d="M982.605 480.616H833.507V0H989.211C1036.08 0 1076.18 9.62172 1109.53 28.8652C1142.87 47.9521 1168.43 75.4092 1186.2 111.236C1203.97 146.907 1212.86 189.618 1212.86 239.369C1212.86 289.434 1203.89 332.536 1185.96 368.676C1168.03 404.66 1141.93 432.351 1107.64 451.751C1073.35 470.995 1031.68 480.616 982.605 480.616ZM892.014 428.988H978.831C1018.78 428.988 1051.89 421.322 1078.15 405.989C1104.42 390.657 1124 368.832 1136.89 340.515C1149.79 312.197 1156.24 278.482 1156.24 239.369C1156.24 200.57 1149.87 167.167 1137.13 139.163C1124.39 111.002 1105.36 89.4115 1080.04 74.3923C1054.72 59.2166 1023.18 51.6287 985.436 51.6287H892.014V428.988Z" fill="white"/>
<path d="M1224.63 480.616V0H1516.23V51.6287H1283.14V214.024H1501.13V265.653H1283.14V428.988H1520V480.616H1224.63Z" fill="white"/>
</svg>
