<svg width="239" height="90" viewBox="0 0 239 90" fill="none" xmlns="http://www.w3.org/2000/svg">
<g clip-path="url(#clip0_4001_261)">
<path d="M37.5355 23.2727V96H22.1591V37.8679H21.733L5.07812 48.3082V34.6719L23.0824 23.2727H37.5355ZM79.3363 97.598C73.2283 97.5743 67.9727 96.071 63.5692 93.0881C59.1895 90.1051 55.8159 85.7846 53.4485 80.1264C51.1048 74.4683 49.9447 67.6619 49.9684 59.7074C49.9684 51.7765 51.1403 45.0175 53.484 39.4304C55.8514 33.8433 59.225 29.5937 63.6048 26.6818C68.0082 23.7462 73.252 22.2784 79.3363 22.2784C85.4206 22.2784 90.6526 23.7462 95.0323 26.6818C99.4357 29.6174 102.821 33.8788 105.189 39.4659C107.556 45.0294 108.728 51.7765 108.704 59.7074C108.704 67.6856 107.52 74.5038 105.153 80.1619C102.809 85.8201 99.4476 90.1406 95.0678 93.1236C90.6881 96.1065 85.4442 97.598 79.3363 97.598ZM79.3363 84.8494C83.503 84.8494 86.8292 82.7543 89.315 78.5639C91.8008 74.3736 93.0318 68.0881 93.0082 59.7074C93.0082 54.1913 92.44 49.5985 91.3036 45.929C90.1909 42.2595 88.6048 39.5014 86.5451 37.6548C84.5091 35.8082 82.1062 34.8849 79.3363 34.8849C75.1933 34.8849 71.8789 36.9564 69.3931 41.0994C66.9073 45.2424 65.6526 51.4451 65.6289 59.7074C65.6289 65.2945 66.1853 69.9583 67.2979 73.6989C68.4343 77.4157 70.0323 80.2093 72.092 82.0795C74.1516 83.9261 76.5664 84.8494 79.3363 84.8494ZM116.094 96V23.2727H131.471V55.3395H132.43L158.602 23.2727H177.032L150.043 55.8366L177.352 96H158.957L139.035 66.0994L131.471 75.3324V96H116.094ZM197.952 84.9205V34.6364H210.665V84.9205H197.952ZM179.167 66.1349V53.4219H229.451V66.1349H179.167Z" fill="white"/>
<line y1="89.5" x2="239" y2="89.5" stroke="white"/>
</g>
<defs>
<clipPath id="clip0_4001_261">
<rect width="239" height="90" fill="white"/>
</clipPath>
</defs>
</svg>
