<svg width="258" height="90" viewBox="0 0 258 90" fill="none" xmlns="http://www.w3.org/2000/svg">
<g clip-path="url(#clip0_4001_268)">
<path d="M32.4574 96.9943C27.4384 96.9943 22.964 96.071 19.0341 94.2244C15.1278 92.3778 12.0265 89.8329 9.73011 86.5895C7.43371 83.3461 6.23816 79.6293 6.14347 75.4389H21.0582C21.224 78.2562 22.4077 80.5407 24.6094 82.2926C26.8111 84.0445 29.4271 84.9205 32.4574 84.9205C34.8722 84.9205 37.0028 84.3878 38.8494 83.3224C40.7197 82.2334 42.1757 80.7301 43.2173 78.8125C44.2827 76.8712 44.8153 74.6458 44.8153 72.1364C44.8153 69.5795 44.2708 67.3305 43.1818 65.3892C42.1165 63.4479 40.6368 61.9328 38.7429 60.8438C36.849 59.7547 34.6828 59.1984 32.2443 59.1747C30.1136 59.1747 28.0421 59.6127 26.0298 60.4886C24.0412 61.3646 22.4905 62.5601 21.3778 64.0753L7.70597 61.625L11.1506 23.2727H55.6108V35.8438H23.8281L21.946 54.0611H22.3722C23.6506 52.2618 25.58 50.7704 28.1605 49.5866C30.741 48.4029 33.6293 47.8111 36.8253 47.8111C41.205 47.8111 45.1113 48.8409 48.544 50.9006C51.9768 52.9602 54.6875 55.7893 56.6761 59.3878C58.6648 62.9626 59.6473 67.0819 59.6236 71.7457C59.6473 76.6463 58.5109 81.0024 56.2145 84.8139C53.9418 88.6018 50.7576 91.5848 46.6619 93.7628C42.59 95.9171 37.8551 96.9943 32.4574 96.9943ZM94.8636 97.598C88.7557 97.5743 83.5 96.071 79.0966 93.0881C74.7169 90.1051 71.3433 85.7846 68.9759 80.1264C66.6321 74.4683 65.4721 67.6619 65.4957 59.7074C65.4957 51.7765 66.6676 45.0175 69.0114 39.4304C71.3788 33.8433 74.7524 29.5937 79.1321 26.6818C83.5355 23.7462 88.7794 22.2784 94.8636 22.2784C100.948 22.2784 106.18 23.7462 110.56 26.6818C114.963 29.6174 118.348 33.8788 120.716 39.4659C123.083 45.0294 124.255 51.7765 124.232 59.7074C124.232 67.6856 123.048 74.5038 120.68 80.1619C118.337 85.8201 114.975 90.1406 110.595 93.1236C106.215 96.1065 100.972 97.598 94.8636 97.598ZM94.8636 84.8494C99.0303 84.8494 102.357 82.7543 104.842 78.5639C107.328 74.3736 108.559 68.0881 108.536 59.7074C108.536 54.1913 107.967 49.5985 106.831 45.929C105.718 42.2595 104.132 39.5014 102.072 37.6548C100.036 35.8082 97.6335 34.8849 94.8636 34.8849C90.7206 34.8849 87.4063 36.9564 84.9205 41.0994C82.4347 45.2424 81.1799 51.4451 81.1562 59.7074C81.1562 65.2945 81.7126 69.9583 82.8253 73.6989C83.9616 77.4157 85.5597 80.2093 87.6193 82.0795C89.679 83.9261 92.0938 84.8494 94.8636 84.8494ZM159.711 97.598C153.603 97.5743 148.348 96.071 143.944 93.0881C139.565 90.1051 136.191 85.7846 133.824 80.1264C131.48 74.4683 130.32 67.6619 130.343 59.7074C130.343 51.7765 131.515 45.0175 133.859 39.4304C136.226 33.8433 139.6 29.5937 143.98 26.6818C148.383 23.7462 153.627 22.2784 159.711 22.2784C165.796 22.2784 171.028 23.7462 175.407 26.6818C179.811 29.6174 183.196 33.8788 185.564 39.4659C187.931 45.0294 189.103 51.7765 189.079 59.7074C189.079 67.6856 187.895 74.5038 185.528 80.1619C183.184 85.8201 179.823 90.1406 175.443 93.1236C171.063 96.1065 165.819 97.598 159.711 97.598ZM159.711 84.8494C163.878 84.8494 167.204 82.7543 169.69 78.5639C172.176 74.3736 173.407 68.0881 173.383 59.7074C173.383 54.1913 172.815 49.5985 171.679 45.929C170.566 42.2595 168.98 39.5014 166.92 37.6548C164.884 35.8082 162.481 34.8849 159.711 34.8849C155.568 34.8849 152.254 36.9564 149.768 41.0994C147.282 45.2424 146.028 51.4451 146.004 59.7074C146.004 65.2945 146.56 69.9583 147.673 73.6989C148.809 77.4157 150.407 80.2093 152.467 82.0795C154.527 83.9261 156.941 84.8494 159.711 84.8494ZM217.776 84.9205V34.6364H230.489V84.9205H217.776ZM198.991 66.1349V53.4219H249.275V66.1349H198.991Z" fill="white"/>
<line y1="89.5" x2="259" y2="89.5" stroke="white"/>
</g>
<defs>
<clipPath id="clip0_4001_268">
<rect width="258" height="90" fill="white"/>
</clipPath>
</defs>
</svg>
