<svg width="127" height="25" viewBox="0 0 127 25" fill="none" xmlns="http://www.w3.org/2000/svg">
<path d="M0 24.6858V1.70556H9.55349C11.1962 1.70556 12.6335 2.04219 13.8655 2.71544C15.0975 3.38869 16.0558 4.33498 16.7402 5.55431C17.4247 6.77364 17.7669 8.19868 17.7669 9.82944C17.7669 11.4752 17.4139 12.9002 16.7078 14.1046C16.0089 15.3089 15.0255 16.2365 13.7575 16.8873C12.4966 17.5382 11.0233 17.8636 9.33735 17.8636H3.63119V13.0162H8.12695C8.83301 13.0162 9.43461 12.889 9.93174 12.6347C10.4361 12.3728 10.8215 12.0025 11.0881 11.5238C11.3619 11.045 11.4988 10.4803 11.4988 9.82944C11.4988 9.17115 11.3619 8.61011 11.0881 8.14632C10.8215 7.67504 10.4361 7.31598 9.93174 7.06912C9.43461 6.81478 8.83301 6.68761 8.12695 6.68761H6.00876V24.6858H0Z" fill="white"/>
<path d="M22.7231 24.9551C21.664 24.9551 20.7274 24.7756 19.9133 24.4165C19.1064 24.05 18.4723 23.4964 18.0112 22.7558C17.5501 22.0153 17.3196 21.0727 17.3196 19.9282C17.3196 18.9856 17.4745 18.1815 17.7843 17.5157C18.0941 16.8425 18.5264 16.2926 19.0811 15.8662C19.6359 15.4399 20.2807 15.1145 21.0156 14.89C21.7577 14.6656 22.5574 14.5197 23.4148 14.4524C24.3442 14.3776 25.0899 14.2879 25.6519 14.1831C26.221 14.0709 26.6317 13.9176 26.8839 13.7231C27.136 13.5211 27.2621 13.2555 27.2621 12.9264V12.8815C27.2621 12.4327 27.0964 12.0886 26.765 11.8492C26.4336 11.6098 26.0085 11.4901 25.4898 11.4901C24.9206 11.4901 24.4559 11.621 24.0956 11.8829C23.7426 12.1372 23.5301 12.5299 23.458 13.061H17.968C18.0401 12.0138 18.3607 11.0488 18.9298 10.1661C19.5062 9.27588 20.3456 8.56523 21.4479 8.03411C22.5502 7.49551 23.9263 7.22621 25.5762 7.22621C26.765 7.22621 27.8313 7.37208 28.7751 7.66382C29.7189 7.94809 30.5223 8.34829 31.1851 8.86445C31.8479 9.37313 32.3523 9.97157 32.6981 10.6598C33.0511 11.3405 33.2277 12.0811 33.2277 12.8815V24.6858H27.6512V22.2621H27.5215C27.1901 22.9054 26.7866 23.4253 26.3111 23.8218C25.8428 24.2183 25.306 24.5063 24.7008 24.6858C24.1029 24.8654 23.4436 24.9551 22.7231 24.9551ZM24.6684 21.0503C25.1223 21.0503 25.5474 20.953 25.9437 20.7585C26.3471 20.564 26.6749 20.2835 26.9271 19.917C27.1793 19.5504 27.3054 19.1053 27.3054 18.5817V17.1454C27.1469 17.2127 26.9775 17.2763 26.7974 17.3362C26.6245 17.396 26.4372 17.4521 26.2355 17.5045C26.0409 17.5569 25.832 17.6055 25.6086 17.6504C25.3925 17.6952 25.1656 17.7364 24.9278 17.7738C24.4667 17.8486 24.0884 17.972 23.793 18.1441C23.5049 18.3086 23.2887 18.5144 23.1446 18.7612C23.0077 19.0006 22.9393 19.2699 22.9393 19.5691C22.9393 20.0479 23.1014 20.4144 23.4256 20.6688C23.7498 20.9231 24.1641 21.0503 24.6684 21.0503Z" fill="white"/>
<path d="M37.8003 24.6858L33.6503 7.45063H39.6158L41.5179 17.9533H41.6476L43.7658 7.45063H49.5584L51.7631 17.8636H51.8927L53.7083 7.45063H59.6739L55.5239 24.6858H49.0829L46.7485 15.4399H46.5756L44.2413 24.6858H37.8003Z" fill="white"/>
<path d="M75.4453 13.061H69.9553C69.9265 12.7095 69.8076 12.4065 69.5987 12.1522C69.3897 11.8978 69.1196 11.7033 68.7881 11.5687C68.4639 11.4265 68.1037 11.3555 67.7074 11.3555C67.1959 11.3555 66.7564 11.4527 66.389 11.6472C66.0215 11.8417 65.8414 12.1185 65.8486 12.4776C65.8414 12.7319 65.9459 12.9675 66.162 13.1845C66.3854 13.4014 66.814 13.5697 67.4481 13.6894L70.8199 14.3178C72.5202 14.6394 73.7846 15.1818 74.6132 15.9448C75.4489 16.7003 75.8704 17.7139 75.8776 18.9856C75.8704 20.2124 75.5174 21.2784 74.8185 22.1836C74.1269 23.0812 73.1794 23.7769 71.9762 24.2706C70.7803 24.7569 69.415 25 67.8803 25C65.3443 25 63.3594 24.4614 61.9256 23.3842C60.4991 22.307 59.703 20.8857 59.5373 19.1203H65.4595C65.5388 19.6664 65.7982 20.089 66.2377 20.3882C66.6843 20.68 67.2463 20.8259 67.9236 20.8259C68.4711 20.8259 68.9214 20.7286 69.2745 20.5341C69.6347 20.3396 69.8184 20.0628 69.8256 19.7038C69.8184 19.3746 69.6599 19.1128 69.3501 18.9183C69.0475 18.7238 68.572 18.5667 67.9236 18.447L64.984 17.9084C63.2909 17.6017 62.0229 17.0183 61.1799 16.158C60.337 15.2977 59.9191 14.1906 59.9263 12.8366C59.9191 11.6397 60.2217 10.6261 60.8341 9.79578C61.4537 8.95796 62.3363 8.32211 63.4818 7.88824C64.6346 7.44689 65.9999 7.22621 67.5777 7.22621C69.9769 7.22621 71.8682 7.74237 73.2515 8.77469C74.642 9.807 75.3733 11.2358 75.4453 13.061Z" fill="white"/>
<path d="M76.946 24.6858V7.45063H82.9115V24.6858H76.946ZM79.9288 5.6553C79.1218 5.6553 78.4302 5.37852 77.8538 4.82496C77.2774 4.27139 76.9892 3.60562 76.9892 2.82765C76.9892 2.04967 77.2774 1.3839 77.8538 0.83034C78.4302 0.27678 79.1218 0 79.9288 0C80.7429 0 81.4345 0.27678 82.0037 0.83034C82.5801 1.3839 82.8683 2.04967 82.8683 2.82765C82.8683 3.60562 82.5801 4.27139 82.0037 4.82496C81.4345 5.37852 80.7429 5.6553 79.9288 5.6553Z" fill="white"/>
<path d="M84.6473 24.6858V1.70556H90.6128V10.4578H90.6992C90.9154 9.87433 91.2324 9.33947 91.6503 8.85323C92.0681 8.35951 92.5869 7.96679 93.2065 7.67504C93.8261 7.37582 94.5466 7.22621 95.3679 7.22621C96.463 7.22621 97.5041 7.52917 98.4912 8.1351C99.4854 8.74102 100.292 9.69479 100.912 10.9964C101.539 12.298 101.852 13.9886 101.852 16.0682C101.852 18.058 101.553 19.7075 100.955 21.0166C100.364 22.3257 99.5719 23.3019 98.5776 23.9452C97.5906 24.5886 96.5063 24.9102 95.3247 24.9102C94.5466 24.9102 93.8513 24.7793 93.2389 24.5175C92.6337 24.2482 92.115 23.8854 91.6827 23.4291C91.2576 22.9653 90.9298 22.4417 90.6992 21.8582H90.5695V24.6858H84.6473ZM90.4831 16.0682C90.4831 16.906 90.5876 17.6317 90.7965 18.2451C91.0126 18.851 91.3152 19.3223 91.7043 19.6589C92.1006 19.988 92.5725 20.1526 93.12 20.1526C93.6676 20.1526 94.1323 19.9918 94.5141 19.6701C94.9032 19.341 95.1986 18.8734 95.4003 18.2675C95.6093 17.6541 95.7137 16.921 95.7137 16.0682C95.7137 15.2154 95.6093 14.4861 95.4003 13.8802C95.1986 13.2668 94.9032 12.7992 94.5141 12.4776C94.1323 12.1484 93.6676 11.9838 93.12 11.9838C92.5725 11.9838 92.1006 12.1484 91.7043 12.4776C91.3152 12.7992 91.0126 13.2668 90.7965 13.8802C90.5876 14.4861 90.4831 15.2154 90.4831 16.0682Z" fill="white"/>
<path d="M109.097 1.70556V24.6858H103.131V1.70556H109.097Z" fill="white"/>
<path d="M118.873 25C117.101 25 115.573 24.6484 114.291 23.9452C113.016 23.2346 112.032 22.2172 111.341 20.8932C110.656 19.5616 110.314 17.9683 110.314 16.1131C110.314 14.3327 110.66 12.7768 111.351 11.4452C112.043 10.1137 113.019 9.07765 114.28 8.33707C115.541 7.5965 117.029 7.22621 118.743 7.22621C119.997 7.22621 121.132 7.42819 122.148 7.83214C123.163 8.23608 124.032 8.82331 124.752 9.59381C125.473 10.3568 126.027 11.2844 126.416 12.3766C126.805 13.4687 127 14.6993 127 16.0682V17.5045H112.173V14.0934H121.51C121.503 13.5996 121.38 13.1658 121.143 12.7917C120.912 12.4102 120.599 12.1148 120.202 11.9053C119.813 11.6884 119.37 11.5799 118.873 11.5799C118.39 11.5799 117.947 11.6884 117.544 11.9053C117.14 12.1148 116.816 12.4065 116.571 12.7805C116.333 13.1545 116.207 13.5922 116.193 14.0934V17.7738C116.193 18.3273 116.305 18.8211 116.528 19.2549C116.751 19.6888 117.072 20.0292 117.49 20.276C117.908 20.5229 118.412 20.6463 119.003 20.6463C119.413 20.6463 119.788 20.5865 120.127 20.4668C120.473 20.3471 120.768 20.175 121.013 19.9506C121.258 19.7187 121.438 19.4419 121.553 19.1203H127C126.813 20.3172 126.37 21.357 125.671 22.2397C124.972 23.1149 124.046 23.7956 122.893 24.2819C121.748 24.7606 120.408 25 118.873 25Z" fill="white"/>
</svg>
