<svg width="216" height="165" viewBox="0 0 216 165" fill="none" xmlns="http://www.w3.org/2000/svg">
<path d="M214.32 31.1797V83.5H202.217V31.1797H214.32Z" fill="#0F0F0F" stroke="#0F0F0F" stroke-width="2"/>
<path d="M204.217 81.5V103.642H192.179V81.5H204.217Z" fill="#0F0F0F" stroke="#0F0F0F" stroke-width="2"/>
<path d="M204.217 21.1406V33.1787H192.179V21.1406H204.217Z" fill="#0F0F0F" stroke="#0F0F0F" stroke-width="2"/>
<path d="M194.179 101.64V113.678H182.141V101.64H194.179Z" fill="#0F0F0F" stroke="#0F0F0F" stroke-width="2"/>
<path d="M194.179 41.2148V63.3564H182.141V41.2148H194.179Z" fill="#0F0F0F" stroke="#0F0F0F" stroke-width="2"/>
<path d="M194.179 11.0352V23.1387H182.141V11.0352H194.179Z" fill="#0F0F0F" stroke="#0F0F0F" stroke-width="2"/>
<path d="M184.142 31.1797V43.2178H172.038V31.1797H184.142Z" fill="#0F0F0F" stroke="#0F0F0F" stroke-width="2"/>
<path d="M184.14 111.679V123.718H161.999V111.679H184.14Z" fill="#0F0F0F" stroke="#0F0F0F" stroke-width="2"/>
<path d="M174.036 21.1406V33.1787H151.895V21.1406H174.036Z" fill="#0F0F0F" stroke="#0F0F0F" stroke-width="2"/>
<path d="M164 121.715V133.818H141.858V121.715H164Z" fill="#0F0F0F" stroke="#0F0F0F" stroke-width="2"/>
<path d="M184.141 1V13.0381H131.82V1H184.141Z" fill="#0F0F0F" stroke="#0F0F0F" stroke-width="2"/>
<path d="M143.858 131.82V143.858H121.717V131.82H143.858Z" fill="#0F0F0F" stroke="#0F0F0F" stroke-width="2"/>
<path d="M133.82 11.0352V23.1387H121.717V11.0352H133.82Z" fill="#0F0F0F" stroke="#0F0F0F" stroke-width="2"/>
<path d="M123.718 141.855V153.894H111.68V141.855H123.718Z" fill="#0F0F0F" stroke="#0F0F0F" stroke-width="2"/>
<path d="M123.718 21.1406V33.1787H111.68V21.1406H123.718Z" fill="#0F0F0F" stroke="#0F0F0F" stroke-width="2"/>
<path d="M113.679 151.898V164.002H101.641V151.898H113.679Z" fill="#0F0F0F" stroke="#0F0F0F" stroke-width="2"/>
<path d="M113.679 31.1797V43.2178H101.641V31.1797H113.679Z" fill="#0F0F0F" stroke="#0F0F0F" stroke-width="2"/>
<path d="M103.642 141.855V153.894H91.5381V141.855H103.642Z" fill="#0F0F0F" stroke="#0F0F0F" stroke-width="2"/>
<path d="M103.641 21.1406V33.1787H91.538V21.1406H103.641Z" fill="#0F0F0F" stroke="#0F0F0F" stroke-width="2"/>
<path d="M93.5389 131.82V143.858H71.3973V131.82H93.5389Z" fill="#0F0F0F" stroke="#0F0F0F" stroke-width="2"/>
<path d="M93.5381 11.0352V23.1387H81.5V11.0352H93.5381Z" fill="#0F0F0F" stroke="#0F0F0F" stroke-width="2"/>
<path d="M73.3965 121.715V133.818H51.3213V121.715H73.3965Z" fill="#0F0F0F" stroke="#0F0F0F" stroke-width="2"/>
<path d="M53.3214 111.679V123.718H31.1798V111.679H53.3214Z" fill="#0F0F0F" stroke="#0F0F0F" stroke-width="2"/>
<path d="M83.5001 1V13.0381H31.1798V1H83.5001Z" fill="#0F0F0F" stroke="#0F0F0F" stroke-width="2"/>
<path d="M33.1797 101.641V113.679H21.1416V101.641H33.1797Z" fill="#0F0F0F" stroke="#0F0F0F" stroke-width="2"/>
<path d="M33.1797 11.0352V23.1387H21.1416V11.0352H33.1797Z" fill="#0F0F0F" stroke="#0F0F0F" stroke-width="2"/>
<path d="M23.1416 81.4998V103.641H11.0381V81.4998H23.1416Z" fill="#0F0F0F" stroke="#0F0F0F" stroke-width="2"/>
<path d="M23.1416 21.1406V33.1787H11.0381V21.1406H23.1416Z" fill="#0F0F0F" stroke="#0F0F0F" stroke-width="2"/>
<path d="M13.0382 31.1797V83.5H1.00012V31.1797H13.0382Z" fill="#0F0F0F" stroke="#0F0F0F" stroke-width="2"/>
</svg>
