<svg width="28" height="26" viewBox="0 0 28 26" fill="none" xmlns="http://www.w3.org/2000/svg">
<path d="M9.51972 11.7652C11.7563 11.7652 13.5754 9.324 13.5754 6.32251C13.5754 3.32123 11.7562 0.879272 9.51972 0.879272C7.28382 0.879272 5.46448 3.32116 5.46448 6.32251C5.46448 9.324 7.28382 11.7652 9.51972 11.7652Z" fill="#9FDD73" fill-opacity="0.5"/>
<path d="M21.5492 17.0597C21.466 16.9464 21.3863 16.8395 21.3436 16.7477C20.4368 14.8065 17.951 12.5181 13.9237 12.4612L13.7688 12.4603C9.80339 12.4603 7.33609 14.6276 6.34894 16.6567C6.31485 16.7261 6.23985 16.8162 6.1604 16.9115C6.06638 17.0231 5.97336 17.1373 5.89384 17.2614C5.05992 18.5586 4.63475 20.0192 4.69748 21.3738C4.76322 22.8119 5.36531 23.967 6.38992 24.6259C6.8039 24.8918 7.25061 25.0258 7.71928 25.0258C8.68569 25.0258 9.57049 24.4815 10.5958 23.8511C11.2477 23.4493 11.9211 23.0347 12.669 22.7245C12.7528 22.6968 13.0963 22.6546 13.6581 22.6546C14.3261 22.6546 14.8058 22.7141 14.9083 22.7494C15.6384 23.0718 16.2796 23.4946 16.8998 23.9027C17.8506 24.5293 18.7483 25.1206 19.7223 25.1206C20.1403 25.1206 20.5455 25.0103 20.9277 24.7931C23.0365 23.5951 23.4382 20.308 21.8237 17.4661C21.7427 17.3235 21.6461 17.1904 21.5492 17.0597Z" fill="#9FDD73" fill-opacity="0.5"/>
<path d="M18.1435 11.7652C20.379 11.7652 22.1986 9.324 22.1986 6.32251C22.1986 3.32123 20.379 0.879272 18.1435 0.879272C15.9068 0.879272 14.0876 3.32116 14.0876 6.32251C14.0876 9.324 15.9068 11.7652 18.1435 11.7652Z" fill="#9FDD73" fill-opacity="0.5"/>
<path d="M24.8039 8.97034C23.0114 8.97034 21.6085 10.8293 21.6085 13.2025C21.6085 15.5746 23.0122 17.4338 24.8039 17.4338C26.5954 17.4338 27.9999 15.5746 27.9999 13.2025C27.9999 10.8294 26.5962 8.97034 24.8039 8.97034Z" fill="#9FDD73" fill-opacity="0.5"/>
<path d="M6.39113 13.2025C6.39113 10.8294 4.98741 8.97034 3.19571 8.97034C1.40393 8.97034 0 10.8294 0 13.2025C0 15.5746 1.40393 17.4338 3.19571 17.4338C4.98749 17.4338 6.39113 15.5746 6.39113 13.2025Z" fill="#9FDD73" fill-opacity="0.5"/>
</svg>
