<svg width="1470" height="192" viewBox="0 0 1470 192" fill="none" xmlns="http://www.w3.org/2000/svg">
<g clip-path="url(#clip0_4001_11)">
<path d="M14.0625 221.816V3.63456H108.239C124.432 3.63456 138.601 6.83058 150.746 13.2226C162.891 19.6147 172.337 28.599 179.084 40.1758C185.831 51.7525 189.205 65.2823 189.205 80.7653C189.205 96.3903 185.724 109.92 178.764 121.355C171.875 132.789 162.18 141.596 149.68 147.775C137.251 153.954 122.727 157.044 106.108 157.044H49.858V111.021H94.1762C101.136 111.021 107.067 109.814 111.967 107.399C116.939 104.913 120.739 101.397 123.366 96.8519C126.065 92.3064 127.415 86.9442 127.415 80.7653C127.415 74.5152 126.065 69.1885 123.366 64.7851C120.739 60.3107 116.939 56.9016 111.967 54.5579C107.067 52.1431 101.136 50.9357 94.1762 50.9357H73.2955V221.816H14.0625ZM228.368 221.816H164.447L236.464 3.63456H317.43L389.447 221.816H325.527L277.799 63.7198H276.095L228.368 221.816ZM216.436 135.737H336.606V180.055H216.436V135.737ZM428.37 221.816L364.024 3.63456H430.075L459.905 137.868H461.609L496.978 3.63456H548.967L584.336 138.294H586.041L615.87 3.63456H681.922L617.575 221.816H560.899L523.825 99.9414H522.12L485.047 221.816H428.37ZM803.196 71.8164C802.628 64.7141 799.964 59.1743 795.206 55.1971C790.518 51.2198 783.38 49.2312 773.792 49.2312C767.684 49.2312 762.677 49.9769 758.771 51.4684C754.936 52.8888 752.095 54.842 750.248 57.3277C748.402 59.8135 747.443 62.6545 747.372 65.8505C747.23 68.4783 747.691 70.8576 748.757 72.9883C749.893 75.0479 751.669 76.93 754.084 78.6346C756.498 80.2681 759.588 81.7596 763.352 83.109C767.116 84.4584 771.591 85.6658 776.775 86.7312L794.673 90.5664C806.747 93.1232 817.081 96.4968 825.674 100.687C834.268 104.877 841.299 109.814 846.768 115.495C852.237 121.106 856.25 127.427 858.807 134.458C861.434 141.49 862.784 149.16 862.855 157.47C862.784 171.816 859.197 183.961 852.095 193.904C844.993 203.848 834.836 211.412 821.626 216.596C808.487 221.781 792.684 224.373 774.218 224.373C755.255 224.373 738.707 221.568 724.574 215.957C710.511 210.346 699.574 201.717 691.761 190.069C684.02 178.35 680.113 163.365 680.042 145.112H736.292C736.647 151.788 738.316 157.399 741.299 161.944C744.282 166.49 748.473 169.934 753.87 172.278C759.339 174.622 765.838 175.794 773.366 175.794C779.687 175.794 784.978 175.012 789.24 173.45C793.501 171.887 796.733 169.721 798.934 166.951C801.136 164.181 802.272 161.021 802.343 157.47C802.272 154.132 801.172 151.22 799.041 148.734C796.981 146.177 793.572 143.904 788.814 141.916C784.055 139.856 777.628 137.939 769.531 136.163L747.798 131.475C728.48 127.285 713.245 120.289 702.095 110.488C691.015 100.616 685.511 87.1573 685.582 70.1118C685.511 56.2624 689.204 44.153 696.662 33.7837C704.19 23.3434 714.595 15.2113 727.876 9.3874C741.228 3.56353 756.534 0.651603 773.792 0.651603C791.406 0.651603 806.64 3.59905 819.495 9.49393C832.351 15.3888 842.258 23.6985 849.218 34.4229C856.25 45.0763 859.801 57.5408 859.872 71.8164H803.196ZM932.62 3.63456V221.816H873.387V3.63456H932.62ZM948.691 221.816V3.63456H1043.29C1059.91 3.63456 1073.87 5.87178 1085.16 10.3462C1096.53 14.8206 1105.08 21.1417 1110.84 29.3093C1116.66 37.4769 1119.57 47.1005 1119.57 58.18C1119.57 66.2056 1117.8 73.5209 1114.25 80.126C1110.77 86.7312 1105.86 92.2709 1099.54 96.7454C1093.22 101.149 1085.84 104.203 1077.38 105.907V108.038C1086.76 108.393 1095.28 110.772 1102.95 115.176C1110.62 119.508 1116.73 125.51 1121.28 133.18C1125.82 140.779 1128.09 149.728 1128.09 160.027C1128.09 171.958 1124.97 182.576 1118.72 191.88C1112.54 201.184 1103.73 208.5 1092.3 213.826C1080.86 219.153 1067.23 221.816 1051.39 221.816H948.691ZM1007.92 174.515H1035.62C1045.57 174.515 1053.02 172.669 1058 168.975C1062.97 165.211 1065.45 159.672 1065.45 152.356C1065.45 147.243 1064.28 142.91 1061.94 139.359C1059.59 135.808 1056.26 133.109 1051.92 131.262C1047.66 129.416 1042.51 128.493 1036.48 128.493H1007.92V174.515ZM1007.92 91.8448H1032.21C1037.4 91.8448 1041.98 91.028 1045.96 89.3945C1049.93 87.761 1053.02 85.4172 1055.23 82.3633C1057.5 79.2383 1058.63 75.4385 1058.63 70.9641C1058.63 64.2169 1056.22 59.0678 1051.39 55.5167C1046.56 51.8945 1040.45 50.0834 1033.07 50.0834H1007.92V91.8448ZM1137.08 221.816V3.63456H1196.32V174.089H1284.53V221.816H1137.08ZM1296.47 221.816V3.63456H1453.71V51.3618H1355.7V88.8618H1445.62V136.589H1355.7V174.089H1453.29V221.816H1296.47Z" fill="white"/>
<line y1="191.5" x2="1470" y2="191.5" stroke="white"/>
</g>
<defs>
<clipPath id="clip0_4001_11">
<rect width="1470" height="192" fill="white"/>
</clipPath>
</defs>
</svg>
