<svg width="193" height="90" viewBox="0 0 193 90" fill="none" xmlns="http://www.w3.org/2000/svg">
<g clip-path="url(#clip0_4001_282)">
<path d="M4.79403 83.2159V71.1065L35.1562 23.2727H45.5966V40.0341H39.4176L20.277 70.3253V70.8935H63.4233V83.2159H4.79403ZM39.7017 96V79.5227L39.9858 74.1605V23.2727H54.4034V96H39.7017ZM96.2308 96.9943C91.2119 96.9943 86.7375 96.071 82.8075 94.2244C78.9013 92.3778 75.8 89.8329 73.5036 86.5895C71.2071 83.3461 70.0116 79.6293 69.9169 75.4389H84.8317C84.9974 78.2562 86.1811 80.5407 88.3828 82.2926C90.5845 84.0445 93.2005 84.9205 96.2308 84.9205C98.6456 84.9205 100.776 84.3878 102.623 83.3224C104.493 82.2334 105.949 80.7301 106.991 78.8125C108.056 76.8712 108.589 74.6458 108.589 72.1364C108.589 69.5795 108.044 67.3305 106.955 65.3892C105.89 63.4479 104.41 61.9328 102.516 60.8438C100.622 59.7547 98.4562 59.1984 96.0178 59.1747C93.8871 59.1747 91.8156 59.6127 89.8033 60.4886C87.8146 61.3646 86.264 62.5601 85.1513 64.0753L71.4794 61.625L74.924 23.2727H119.384V35.8438H87.6016L85.7195 54.0611H86.1456C87.424 52.2618 89.3535 50.7704 91.9339 49.5866C94.5144 48.4029 97.4027 47.8111 100.599 47.8111C104.978 47.8111 108.885 48.8409 112.317 50.9006C115.75 52.9602 118.461 55.7893 120.45 59.3878C122.438 62.9626 123.421 67.0819 123.397 71.7457C123.421 76.6463 122.284 81.0024 119.988 84.8139C117.715 88.6018 114.531 91.5848 110.435 93.7628C106.363 95.9171 101.629 96.9943 96.2308 96.9943ZM151.854 84.9205V34.6364H164.567V84.9205H151.854ZM133.069 66.1349V53.4219H183.353V66.1349H133.069Z" fill="white"/>
<line y1="89.5" x2="193" y2="89.5" stroke="white"/>
</g>
<defs>
<clipPath id="clip0_4001_282">
<rect width="193" height="90" fill="white"/>
</clipPath>
</defs>
</svg>
