<svg width="211" height="90" viewBox="0 0 211 90" fill="none" xmlns="http://www.w3.org/2000/svg">
<g clip-path="url(#clip0_4001_275)">
<path d="M32.2088 22.2784C35.9493 22.2784 39.5478 22.9058 43.0043 24.1605C46.4844 25.4152 49.5857 27.4157 52.3082 30.1619C55.0545 32.9081 57.2206 36.554 58.8068 41.0994C60.4167 45.6212 61.2334 51.1728 61.2571 57.7543C61.2571 63.9332 60.5587 69.4493 59.1619 74.3026C57.7888 79.1321 55.812 83.2396 53.2315 86.625C50.651 90.0104 47.5379 92.5909 43.892 94.3665C40.2462 96.1184 36.1742 96.9943 31.6761 96.9943C26.8229 96.9943 22.5379 96.0592 18.821 94.1889C15.1042 92.295 12.1094 89.7263 9.83665 86.483C7.5876 83.2159 6.22633 79.5464 5.75284 75.4744H20.9162C21.508 78.1259 22.7509 80.1856 24.6449 81.6534C26.5388 83.0975 28.8826 83.8196 31.6761 83.8196C36.411 83.8196 40.0095 81.7599 42.4716 77.6406C44.9337 73.4976 46.1766 67.8277 46.2003 60.6307H45.7031C44.6141 62.7614 43.1463 64.5961 41.2997 66.1349C39.4531 67.6501 37.3343 68.822 34.9432 69.6506C32.5758 70.4792 30.0545 70.8935 27.3793 70.8935C23.0942 70.8935 19.2708 69.8873 15.9091 67.875C12.5473 65.8627 9.89583 63.0928 7.95455 59.5653C6.01326 56.0379 5.04261 52.0133 5.04261 47.4915C5.01894 42.6146 6.14347 38.2704 8.41619 34.4588C10.6889 30.6473 13.8613 27.6643 17.9332 25.5099C22.0289 23.3319 26.7874 22.2547 32.2088 22.2784ZM32.3153 34.3523C29.9242 34.3523 27.7936 34.9205 25.9233 36.0568C24.0767 37.1932 22.6089 38.7202 21.5199 40.6378C20.4545 42.5554 19.9337 44.6979 19.9574 47.0653C19.9574 49.4564 20.4782 51.6108 21.5199 53.5284C22.5852 55.4223 24.0294 56.9375 25.8523 58.0739C27.6989 59.1866 29.8059 59.7429 32.1733 59.7429C33.9489 59.7429 35.5942 59.4115 37.1094 58.7486C38.6245 58.0857 39.9384 57.1742 41.0511 56.0142C42.1875 54.8305 43.0753 53.4692 43.7145 51.9304C44.3537 50.3916 44.6733 48.758 44.6733 47.0298C44.6496 44.7334 44.1051 42.6264 43.0398 40.7088C41.9744 38.7912 40.5066 37.2524 38.6364 36.0923C36.7661 34.9323 34.6591 34.3523 32.3153 34.3523ZM95.0412 96.9943C89.5724 96.9943 84.7074 96.1065 80.446 94.331C76.2083 92.5317 72.8821 90.0814 70.4673 86.9801C68.0526 83.8788 66.8452 80.3632 66.8452 76.4332C66.8452 73.4029 67.5317 70.6212 68.9048 68.0881C70.3016 65.5312 72.1955 63.4124 74.5866 61.7315C76.9777 60.027 79.6529 58.938 82.6122 58.4645V57.9673C78.7296 57.1861 75.581 55.304 73.1662 52.321C70.7514 49.3144 69.544 45.8224 69.544 41.8452C69.544 38.081 70.6449 34.7311 72.8466 31.7955C75.0483 28.8362 78.0668 26.5161 81.902 24.8352C85.7609 23.1307 90.1406 22.2784 95.0412 22.2784C99.9418 22.2784 104.31 23.1307 108.145 24.8352C112.004 26.5398 115.034 28.8717 117.236 31.831C119.438 34.7666 120.55 38.1046 120.574 41.8452C120.55 45.8461 119.319 49.3381 116.881 52.321C114.442 55.304 111.317 57.1861 107.506 57.9673V58.4645C110.418 58.938 113.057 60.027 115.425 61.7315C117.816 63.4124 119.71 65.5312 121.107 68.0881C122.527 70.6212 123.249 73.4029 123.273 76.4332C123.249 80.3632 122.03 83.8788 119.615 86.9801C117.2 90.0814 113.862 92.5317 109.601 94.331C105.363 96.1065 100.51 96.9943 95.0412 96.9943ZM95.0412 85.7017C97.4796 85.7017 99.6103 85.2637 101.433 84.3878C103.256 83.4882 104.677 82.2571 105.695 80.6946C106.736 79.1084 107.257 77.2855 107.257 75.2259C107.257 73.1188 106.724 71.2604 105.659 69.6506C104.594 68.017 103.15 66.7386 101.327 65.8153C99.5038 64.8684 97.4086 64.3949 95.0412 64.3949C92.6974 64.3949 90.6023 64.8684 88.7557 65.8153C86.9091 66.7386 85.4531 68.017 84.3878 69.6506C83.3461 71.2604 82.8253 73.1188 82.8253 75.2259C82.8253 77.2855 83.3343 79.1084 84.3523 80.6946C85.3703 82.2571 86.8026 83.4882 88.6491 84.3878C90.4957 85.2637 92.6264 85.7017 95.0412 85.7017ZM95.0412 53.2088C97.0772 53.2088 98.8883 52.7945 100.474 51.9659C102.061 51.1373 103.304 49.9891 104.203 48.5213C105.103 47.0535 105.553 45.3608 105.553 43.4432C105.553 41.5492 105.103 39.892 104.203 38.4716C103.304 37.0275 102.072 35.9029 100.51 35.098C98.9474 34.2694 97.1245 33.8551 95.0412 33.8551C92.9815 33.8551 91.1586 34.2694 89.5724 35.098C87.9863 35.9029 86.7434 37.0275 85.8438 38.4716C84.9678 39.892 84.5298 41.5492 84.5298 43.4432C84.5298 45.3608 84.9796 47.0535 85.8793 48.5213C86.7789 49.9891 88.0218 51.1373 89.608 51.9659C91.1941 52.7945 93.0052 53.2088 95.0412 53.2088ZM169.832 82.3636V78.5284C169.832 75.6165 170.448 72.9413 171.679 70.5028C172.933 68.0407 174.744 66.0758 177.112 64.608C179.503 63.1165 182.415 62.3707 185.848 62.3707C189.328 62.3707 192.252 63.1046 194.619 64.5724C197.01 66.0402 198.809 68.0052 200.017 70.4673C201.248 72.9058 201.863 75.5928 201.863 78.5284V82.3636C201.863 85.2756 201.248 87.9626 200.017 90.4247C198.786 92.8632 196.975 94.8163 194.583 96.2841C192.192 97.7756 189.28 98.5213 185.848 98.5213C182.368 98.5213 179.444 97.7756 177.076 96.2841C174.709 94.8163 172.91 92.8632 171.679 90.4247C170.448 87.9626 169.832 85.2756 169.832 82.3636ZM180.166 78.5284V82.3636C180.166 84.0445 180.568 85.6307 181.373 87.1222C182.202 88.6136 183.693 89.3594 185.848 89.3594C188.002 89.3594 189.47 88.6255 190.251 87.1577C191.056 85.6899 191.458 84.0919 191.458 82.3636V78.5284C191.458 76.8002 191.08 75.1903 190.322 73.6989C189.565 72.2074 188.073 71.4616 185.848 71.4616C183.717 71.4616 182.237 72.2074 181.409 73.6989C180.58 75.1903 180.166 76.8002 180.166 78.5284ZM132.51 40.7443V36.9091C132.51 33.9735 133.137 31.2865 134.392 28.848C135.646 26.3859 137.458 24.4209 139.825 22.9531C142.216 21.4853 145.104 20.7514 148.49 20.7514C151.993 20.7514 154.929 21.4853 157.297 22.9531C159.664 24.4209 161.463 26.3859 162.694 28.848C163.925 31.2865 164.541 33.9735 164.541 36.9091V40.7443C164.541 43.6799 163.913 46.3669 162.659 48.8054C161.428 51.2438 159.617 53.197 157.225 54.6648C154.858 56.1089 151.946 56.831 148.49 56.831C145.033 56.831 142.109 56.0971 139.718 54.6293C137.351 53.1378 135.552 51.1847 134.321 48.7699C133.113 46.3314 132.51 43.6562 132.51 40.7443ZM142.914 36.9091V40.7443C142.914 42.4725 143.317 44.0705 144.122 45.5384C144.95 47.0062 146.406 47.7401 148.49 47.7401C150.668 47.7401 152.147 47.0062 152.929 45.5384C153.734 44.0705 154.136 42.4725 154.136 40.7443V36.9091C154.136 35.1809 153.757 33.571 153 32.0795C152.242 30.5881 150.739 29.8423 148.49 29.8423C146.383 29.8423 144.927 30.5999 144.122 32.1151C143.317 33.6302 142.914 35.2282 142.914 36.9091ZM137.197 96L187.197 23.2727H196.501L146.501 96H137.197Z" fill="white"/>
<line y1="89.5" x2="211" y2="89.5" stroke="white"/>
</g>
<defs>
<clipPath id="clip0_4001_275">
<rect width="211" height="90" fill="white"/>
</clipPath>
</defs>
</svg>
