<?xml version="1.0" encoding="utf-8"?><svg viewBox="0 0 327 105" xmlns="http://www.w3.org/2000/svg" xmlns:xlink="http://www.w3.org/1999/xlink"><style>:root>svg{display:none}:root>svg:target{display:block}</style><svg fill="none" viewBox="0 0 89 105" id="logo_epic" xmlns="http://www.w3.org/2000/svg">
    <g clip-path="url(#aa)">
        <mask id="ab" style="mask-type:luminance" maskUnits="userSpaceOnUse" x="-39" y="-22" width="166" height="149">
            <path d="M-38.238-21.243h165.027v147.44H-38.238v-147.44Z" fill="#fff"/>
        </mask>
        <g mask="url(#ab)">
            <path fill-rule="evenodd" clip-rule="evenodd" d="M80.918 0H8.082C2.18 0 0 2.215 0 8.22v72.458c0 .68.027 1.311.086 1.896.134 1.31.16 2.58 1.359 4.027.117.142 1.341 1.068 1.341 1.068.658.328 1.108.57 1.85.874l35.866 15.277c1.862.868 2.64 1.206 3.993 1.178v.001h.01v-.001c1.352.028 2.131-.31 3.993-1.178l35.865-15.277c.743-.304 1.192-.546 1.85-.874 0 0 1.225-.926 1.342-1.068 1.2-1.446 1.224-2.716 1.359-4.027.059-.585.086-1.216.086-1.896V8.22C89 2.215 86.82 0 80.918 0Z" fill="#0F0F0F" fill-opacity=".8"/>
            <path d="m76.04 72.847-.017.168-.017.183-.033.167-.049.167-.032.15-.05.168-.065.15-.066.134-.064.15-.083.134-.082.134-.097.134-.083.133-.097.117-.115.117-.098.1-.131.118-.115.1-.131.1-.13.083-.131.1-.148.084-.147.067-.147.083-.165.067-.163.067-.163.05-.164.05-.148.05-.163.034-.147.033-.147.033-.165.034-.163.017-.147.016-.164.017-.18.017-.164.016H70.982l-.164-.016h-.18l-.163-.017-.164-.017-.18-.016-.163-.034-.164-.017-.164-.033-.164-.033-.163-.034-.164-.033-.164-.05-.147-.034-.163-.05-.164-.05-.148-.067-.163-.05-.147-.05-.164-.067-.147-.067-.148-.067-.147-.082-.147-.067-.147-.084-.131-.083-.148-.084-.13-.084-.132-.083-.13-.1-.131-.1-.132-.1-.13-.101-.115-.1-.13-.117.098-.134.114-.117.099-.134.114-.134.098-.117.098-.133.115-.134.098-.117.115-.134.097-.117.115-.133.098-.134.099-.117.114-.134.099-.134.114-.117.098-.133.13.1.148.1.131.1.147.101.132.084.147.1.13.083.148.067.13.084.148.067.148.067.147.066.147.05.148.067.163.05.164.05.147.05.164.034.163.034.164.033.18.017.164.033h.163l.18.017h.36l.18-.017.164-.033.147-.034.147-.033.132-.05.114-.067.131-.1.098-.117.066-.134.05-.15.016-.168v-.033l-.017-.2-.066-.168-.082-.117-.114-.1-.132-.1-.13-.067-.147-.067-.164-.067-.197-.083-.114-.034-.13-.033-.148-.05-.147-.034-.164-.05-.164-.033-.18-.05-.163-.034-.18-.05-.164-.034-.164-.05-.163-.033-.164-.05-.148-.05-.163-.034-.147-.05-.147-.05-.148-.05-.18-.067-.163-.067-.164-.067-.164-.067-.147-.083-.164-.084-.131-.083-.147-.084-.13-.1-.132-.084-.114-.1-.115-.117-.114-.117-.1-.117-.097-.117-.082-.117-.081-.134-.082-.15-.066-.116-.05-.134-.048-.15-.05-.134-.032-.167-.033-.15-.016-.168-.017-.167-.016-.183V67.5l.016-.167.017-.15.016-.168.033-.15.033-.15.05-.151.032-.15.065-.15.066-.151.065-.15.082-.151.082-.15.097-.134.1-.134.113-.134.115-.117.115-.133.13-.118.115-.083.131-.1.131-.1.13-.084.148-.084.148-.067.147-.083.147-.067.164-.05.163-.067.148-.05.13-.034.148-.033.148-.033.163-.034.147-.033.164-.017.164-.017.163-.016.164-.017h.704l.18.017.18.016h.163l.18.017.164.034.18.016.163.034.148.033.164.033.163.034.147.033.165.05.147.05.147.034.164.067.147.05.147.067.147.067.164.067.147.083.13.067.149.084.147.083.13.084.148.1.131.083.131.101.131.1.13.1-.097.134-.082.134-.098.134-.099.133-.097.15-.083.134-.098.134-.098.134-.082.133-.098.134-.098.134-.083.134-.097.15-.099.134-.098.133-.082.134-.097.134-.132-.1-.147-.084-.13-.084-.132-.1-.147-.067-.132-.083-.146-.067-.131-.067-.148-.067-.13-.067-.147-.05-.132-.067-.18-.05-.163-.05-.164-.05-.164-.034-.163-.033-.164-.033-.163-.017-.165-.017-.147-.016h-.359l-.18.033-.165.033-.147.034-.13.067-.115.066-.147.134-.099.15-.065.151-.016.167v.034l.016.217.082.184.065.1.114.117.148.084.13.083.164.067.181.067.196.067.131.033.13.05.148.034.147.05.164.033.18.05.18.05.18.05.18.034.164.05.18.05.164.034.163.05.164.05.147.05.164.05.147.05.147.05.181.067.163.083.164.067.163.083.148.084.147.084.13.083.132.1.13.084.131.117.132.117.114.134.115.117.098.134.098.15.082.133.082.151.066.134.049.15.048.15.033.151.033.167.033.167.016.167.017.184v.401l-.017.184ZM64.561 76.19H55.184V64.023H64.643V66.781H58.31v1.989H64.005v2.59H58.309v2.072H64.725V76.19h-.163Zm-11.958 0h-2.995V68.995l-.082.134-.098.151-.082.134-.098.134-.082.15-.099.134-.08.134-.083.151-.097.134-.083.133-.098.134-.082.152-.098.133-.081.134-.083.15-.098.135-.082.134-.098.15-.081.134-.099.134-.081.151-.083.134-.098.133-.081.151-.099.135-.081.133-.099.134-.082.15-.081.135-.099.134-.08.15-.1.134-.082.134-.098.151-.082.134h-.065l-.098-.15-.082-.135-.098-.15-.082-.135-.098-.15-.082-.135-.098-.15-.082-.134-.099-.15-.08-.134-.1-.151-.08-.134-.1-.15-.082-.134-.097-.151-.082-.134-.098-.15-.099-.134-.082-.152-.098-.133-.082-.15-.097-.134-.083-.152-.097-.134-.082-.15-.099-.134-.081-.15-.099-.135-.081-.15-.099-.134-.082-.15-.097-.134-.083-.152-.097-.133V76.189H40.248V64.023H43.603l.081.134.083.15.097.133.082.15.083.134.08.151.083.133.098.15.082.134.082.133.081.15.083.134.097.15.082.134.083.15.08.133.1.133.082.15.08.134.083.15.081.134.099.15.082.133.081.15.082.133.082.134.098.15.083.134.08.15.083.133.081.15.099.134.082.15.081.133.082-.133.083-.15.097-.133.082-.15.082-.133.082-.15.098-.135.082-.15.082-.134.081-.133.099-.15.081-.134.082-.15.082-.133.098-.15.082-.134.083-.15.08-.133.083-.134.098-.15.082-.133.082-.15.081-.134.099-.15.081-.133.082-.134.083-.15.097-.133.082-.15.081-.134.083-.15.098-.133.082-.15.082-.135H52.767V76.19h-.163Zm-18.989-5.013-.05-.151-.064-.168-.066-.15-.05-.151-.064-.15-.066-.168-.05-.151-.065-.151-.065-.15-.049-.152-.066-.167-.048-.15-.066-.152-.066-.15-.049-.15-.065-.168-.065-.151-.05-.15-.066-.152-.064-.167-.05-.151-.065-.15-.065.15-.05.151-.065.167-.066.152-.048.15-.066.15-.066.169-.064.15-.05.15-.066.152-.066.15-.048.167-.066.152-.065.15-.05.15-.064.152-.066.167-.066.15-.048.152-.066.15-.066.168-.05.151-.064.15h2.766l-.066-.15Zm5.14 5.013H35.546l-.065-.15-.05-.151-.065-.15-.066-.168-.048-.149-.066-.15-.065-.15-.049-.151-.066-.15-.065-.151-.05-.15-.064-.168-.066-.15-.05-.15-.065-.15H29.949l-.065.15-.049.15-.066.15-.066.168-.048.15-.066.15-.065.15-.05.151-.064.15-.066.151-.05.15-.064.167-.066.15-.05.15-.065.151H25.744l.064-.15.066-.151.066-.15.065-.168.049-.149.066-.15.066-.15.064-.151.066-.15.066-.168.065-.15.065-.15.05-.15.065-.151.065-.15.066-.168.066-.15.064-.15.066-.151.066-.15.05-.151.064-.167.066-.15.066-.151.064-.15.066-.15.066-.151.065-.168.05-.15.065-.15.066-.15.065-.151.065-.15.066-.168.065-.15.065-.15.05-.151.066-.15.064-.15.066-.168.066-.15.065-.15.065-.151.066-.15.05-.151.064-.15.066-.167.066-.15.064-.15.066-.151.066-.15.065-.15.049-.168.066-.15.066-.15.064-.151.066-.15.066-.151.065-.167.065-.15.05-.15.065-.151.065-.15.066-.151.066-.167.065-.15.065-.151.066-.15.048-.15.066-.151.066-.167.066-.15.065-.151.065-.15.066-.151.065-.15.05-.168.065-.15.066-.15.065-.151H33.843l.066.15.066.15.065.151.065.167.05.15.064.151.066.15.066.151.066.15.064.168.066.15.066.15.048.15.066.151.066.15.066.168.064.15.066.15.066.151.065.15.049.15.066.168.065.15.065.15.066.151.066.15.065.151.065.167.05.15.064.151.066.15.066.151.066.15.064.168.066.149.066.15.048.15.066.151.066.15.065.151.065.167.066.15.066.151.065.15.049.15.066.151.065.167.065.15.066.151.066.15.065.151.065.15.05.168.064.15.066.15.066.151.065.15.066.15.065.168.066.15.048.15.066.151.066.15.065.151.065.167.066.15.066.151.065.15.05.15.065.151.065.167.065.15.066.151.065.15.066.151.065.15.05.167.064.15.066.15.066.151h-.163Zm-14.338-1.554-.132.1-.114.084-.131.1-.13.084-.131.1-.132.084-.13.084-.148.083-.147.084-.148.083-.147.066-.147.084-.164.067-.147.067-.164.066-.147.067-.147.05-.148.05-.147.05-.163.05-.147.051-.165.033-.147.034-.163.033-.164.034-.164.016-.18.017-.163.017-.18.016-.165.017-.18.017h-.703l-.164-.017-.18-.017-.163-.016-.163-.017-.165-.017-.163-.033-.164-.034-.147-.033-.164-.033-.147-.05-.163-.034-.148-.05-.148-.067-.146-.05-.164-.067-.148-.067-.147-.067-.147-.066-.148-.084-.13-.083-.147-.083-.132-.084-.13-.083-.132-.1-.13-.1-.131-.101-.115-.1-.114-.1-.115-.118-.114-.1-.115-.117-.114-.117-.1-.117-.097-.134-.098-.117-.083-.133-.097-.134-.082-.134-.082-.134-.082-.15-.082-.134-.065-.15-.066-.15-.065-.151-.065-.15-.05-.134-.065-.15-.033-.151-.048-.15-.033-.167-.05-.15-.032-.168-.017-.15-.033-.168-.016-.15-.017-.167-.015-.167-.017-.167v-.552l.017-.184v-.167l.015-.167.017-.184.033-.166.016-.167.033-.15.05-.168.032-.167.048-.15.05-.167.049-.15.066-.168.065-.15.065-.15.066-.151.065-.15.082-.151.082-.134.082-.134.082-.133.082-.134.098-.134.098-.133.098-.134.098-.117.115-.117.098-.117.114-.117.116-.117.114-.1.131-.117.114-.1.13-.1.132-.084.13-.1.132-.084.13-.084.148-.083.148-.084.147-.084.147-.066.148-.067.163-.084.13-.05.164-.05.148-.067.147-.033.147-.05.164-.034.147-.05.164-.033.163-.017.165-.034.163-.016.163-.017.164-.017.164-.017h.704l.18.017.18.017h.163l.164.017.18.033.148.017.163.033.164.034.147.033.147.033.148.034.148.05.146.034.13.05.149.05.147.067.147.066.148.067.147.084.147.067.131.083.147.084.13.083.149.084.13.1.13.084.132.1.13.1.132.117.13.1-.098.135-.114.116-.098.134-.114.134-.1.134-.097.116-.115.134-.098.134-.098.117-.114.134-.099.133-.114.134-.099.117-.097.134-.115.133-.098.134-.115.117-.098.134-.131-.1-.131-.117-.131-.084-.131-.1-.13-.084-.132-.084-.13-.083-.148-.084-.131-.066-.13-.067-.132-.05-.147-.05-.147-.05-.148-.034-.163-.034-.164-.033-.163-.016-.18-.017-.181-.017H19.147l-.164.017-.148.017-.163.033-.147.033-.148.05-.147.05-.147.067-.147.067-.131.084-.13.083-.133.084-.114.1-.115.1-.114.1-.098.118-.114.117-.1.133-.08.118-.083.133-.08.15-.083.134-.066.15-.049.151-.065.15-.05.168-.032.166-.033.15-.033.184-.016.167-.016.167v.385l.016.167.016.15.017.168.032.15.033.15.033.15.05.151.048.134.066.167.065.15.082.15.082.135.082.133.098.134.098.117.114.117.1.117.113.1.132.1.13.1.13.084.132.084.147.067.147.067.148.066.164.05.163.05.165.034.163.034.163.016.18.017h.376l.181-.017.18-.016.163-.017.164-.034.164-.033.164-.05.146-.034.148-.066.131-.067.147-.067.115-.067.13-.084V71.544H19.13V69.104H24.531V74.535l-.114.1ZM19.153 36.498h7.093V30.92h-7.093V19.532h7.376v-5.579H13.13v40.259h13.51v-5.578h-7.487V36.498ZM69.959 37.706v9.087c0 1.61-.732 2.358-2.252 2.358h-1.126c-1.576 0-2.308-.747-2.308-2.358v-25.42c0-1.611.732-2.358 2.308-2.358h1.013c1.52 0 2.253.747 2.253 2.357v7.88h5.91v-8.225c0-5.003-2.365-7.419-7.261-7.419h-2.928c-4.897 0-7.319 2.473-7.319 7.477V47.08c0 5.005 2.422 7.477 7.319 7.477h2.984c4.898 0 7.318-2.472 7.318-7.477v-9.374h-5.911ZM49.042 54.212h6.024V13.953h-6.024v40.259ZM40.3 31.84c0 1.61-.73 2.358-2.25 2.358h-2.478V19.36h2.478c1.52 0 2.25.747 2.25 2.357V31.84Zm-1.294-17.887H29.55v40.259h6.023V39.603h3.434c4.898 0 7.318-2.472 7.318-7.475V21.43c0-5.004-2.42-7.477-7.318-7.477Z" fill="#fff"/>
            <path fill-rule="evenodd" clip-rule="evenodd" d="M27.34 90.614h34.482l-17.6 5.9-16.882-5.9Z" fill="#fff"/>
        </g>
    </g>
    <defs>
        <clipPath id="aa">
            <path fill="#fff" d="M0 0h89v105H0z"/>
        </clipPath>
    </defs>
</svg><svg fill="none" viewBox="0 0 256 60" id="logo_nintendo" xmlns="http://www.w3.org/2000/svg">
    <path d="M33.483 60C13.412 59.993 0 46.461 0 30.053 0 13.646 13.442-.042 33.453 0h189.095C242.558-.042 256 13.646 256 30.053c0 16.408-13.412 29.94-33.483 29.947H33.483Zm.061-52.62c-15.89.03-25.643 10.134-25.643 22.635 0 12.497 9.692 22.685 25.643 22.63h188.912c15.951.052 25.647-10.133 25.647-22.63 0-12.498-9.754-22.602-25.644-22.63L33.544 7.38Zm199.073 10.551c1.445 0 2.162.466 2.162 1.388 0 .634-.414 1.112-1.104 1.277l1.132 2.151h-1.37l-.969-1.973h-.602v1.973h-1.234v-4.816h1.985Zm-.112-1.882c-2.522 0-4.569 1.947-4.569 4.347 0 2.4 2.047 4.347 4.569 4.347 2.523 0 4.569-1.947 4.569-4.347 0-2.4-2.046-4.347-4.569-4.347Zm3.695 4.35c0 1.94-1.655 3.516-3.695 3.516s-3.695-1.575-3.695-3.516c0-1.94 1.655-3.516 3.695-3.516s3.695 1.572 3.695 3.516Zm-4.334-.33h.602c.703 0 1.043-.204 1.043-.682 0-.502-.363-.718-1.105-.718h-.54v1.4ZM128.598 31.84c-.013-1.646.024-2.746.592-3.684.697-1.158 1.978-1.708 3.141-1.714h-.003c1.162.006 2.444.556 3.141 1.714.568.941.591 2.04.578 3.687l-7.449-.003Zm7.418 5.663s.007.084.007 1.139c0 3.434-2.376 4.198-3.695 4.198s-3.736-.764-3.736-4.198c0-1.029.006-3.878.006-3.878s16.818.006 16.818-.004c0-5.825-5.912-10.65-13.173-10.65-7.262 0-13.147 4.722-13.147 10.547S124.981 45.2 132.243 45.2c6.024 0 11.113-3.27 12.667-7.705l-8.894.007Zm28.092-13.08c3.338-.09 10.11 1.99 10.063 9.425-.007 1.32-.004 10.22-.004 10.22h-8.87V31.733c0-1.636-1.645-3.457-4.079-3.457-2.431 0-4.24 1.82-4.24 3.457l.011 12.336h-8.863l.007-18.782 8.859-.006s-.01 1.51 0 1.976a11.031 11.031 0 0 1 7.116-2.834Zm-72.556 0c3.339-.09 10.111 1.99 10.063 9.425-.006 1.32-.003 10.22-.003 10.22h-8.87V31.733c0-1.636-1.645-3.457-4.08-3.457-2.43 0-4.239 1.82-4.239 3.457l.01 12.336h-8.862l-.004-18.782 8.87-.006s-.01 1.51 0 1.976a11.023 11.023 0 0 1 7.115-2.834Zm101.861-8.593h8.811v28.245h-8.825l-.004-1.087c-3.416 2.041-7.271 2.038-10.273.706-.806-.356-6.106-2.776-6.106-9.312 0-4.958 4.916-10.372 11.351-9.836 2.118.178 3.624.912 5.052 1.676-.007-4.347-.006-10.392-.006-10.392Zm.064 18.759V31.23c0-2.905-2.108-3.645-3.495-3.645-1.421 0-3.501.74-3.501 3.645l.003 3.347-.003 3.341c0 2.902 2.08 3.662 3.498 3.662 1.39 0 3.502-.76 3.502-3.662 0-1.206-.004-3.331-.004-3.331Zm28.289-.055s-.004 2.84-.004 3.978c0 2.995-1.86 4.23-3.648 4.23-1.791 0-3.658-1.235-3.658-4.23 0-1.138.004-4.05.004-4.05s.007-2.777.007-3.916c0-2.982 1.869-4.208 3.647-4.208 1.782 0 3.648 1.226 3.648 4.208 0 1.138-.003 3.244.007 3.998l-.003-.01Zm-3.587-10.524c-7.207 0-13.048 4.722-13.048 10.547s5.844 10.547 13.048 10.547c7.207 0 13.048-4.722 13.048-10.547s-5.841-10.547-13.048-10.547ZM61.703 21.596v-5.774h8.948v5.774h-8.947Zm.02 22.478V25.29l8.928.004v18.781h-8.927Zm44.791 0 .004-18.746h-4.855V22.54l4.858-.003-.007-3.804h8.935v3.8h4.834v2.795h-4.834l.006 18.746h-8.941Zm-81.122 0 .003-28.245h9.25l12.797 19.697-.007-19.697h9.18v28.245h-9.166L34.585 24.377v19.697h-9.193Z" fill="#0F0F0F" fill-opacity=".8"/>
</svg><svg fill="none" viewBox="0 0 327 60" id="logo_playstation" xmlns="http://www.w3.org/2000/svg">
    <g clip-path="url(#ca)" fill="#0F0F0F" fill-opacity=".8">
        <path d="M26.907 0V52.48l11.738 3.764V12.241c0-2.074.913-3.45 2.378-2.977 1.915.538 2.287 2.448 2.287 4.498v17.574c7.306 3.58 13.058-.002 13.058-9.447 0-9.652-3.372-13.952-13.295-17.409C39.16 3.16 31.905.935 26.907 0Z"/>
        <path d="m40.878 48.571 18.851-6.792c2.133-.8 2.459-1.888.733-2.46-1.753-.581-4.882-.415-7.038.369l-12.546 4.48V37.02l.718-.24s3.632-1.302 8.74-1.863c5.098-.566 11.35.074 16.265 1.949 5.536 1.78 6.156 4.377 4.756 6.184-1.421 1.788-4.866 3.082-4.866 3.082l-25.613 9.314M5.401 47.848c-5.675-1.6-6.622-4.983-4.033-6.936 2.389-1.784 6.456-3.127 6.456-3.127l16.814-6.07v6.908L12.55 43.01c-2.142.775-2.463 1.866-.738 2.437 1.756.593 4.871.434 7.014-.367l5.812-2.121v6.166c-.375.064-.791.128-1.171.194-5.796.973-11.97.573-18.066-1.47ZM68.362 52.664c0 .175-.041.29-.13.347a.696.696 0 0 1-.402.104h-.843v-.87h.892c.127 0 .221.021.297.051.123.062.186.184.186.368Zm.61 1.997c-.043-.012-.073-.055-.097-.127a1.427 1.427 0 0 1-.022-.235l-.013-.395c-.007-.182-.041-.325-.117-.41-.037-.066-.105-.109-.169-.155a1.86 1.86 0 0 0 .226-.243.911.911 0 0 0 .12-.467c0-.363-.155-.62-.455-.763a1.474 1.474 0 0 0-.577-.106h-1.424v3.1h.543v-1.263h.828c.154 0 .257.02.333.046.102.066.158.166.165.337l.026.484c.008.123.016.197.023.253l.04.107.012.035h.596v-.176m-3.68-1.303c0-.633.233-1.214.66-1.645a2.293 2.293 0 0 1 1.631-.676c.609 0 1.178.237 1.606.677.431.43.664 1.01.664 1.644 0 1.269-1.019 2.298-2.27 2.298a2.309 2.309 0 0 1-1.63-.668 2.31 2.31 0 0 1-.662-1.63Zm2.291 2.774c.734 0 1.416-.293 1.935-.812a2.795 2.795 0 0 0 .803-1.962c0-.75-.29-1.452-.803-1.97-.52-.53-1.2-.815-1.935-.815-1.523 0-2.755 1.245-2.755 2.785 0 .743.284 1.433.798 1.962.52.519 1.223.812 1.957.812ZM110.22 13.772l-14.175-.006a.104.104 0 0 0-.106.1v33.562c0 .053.047.104.106.104h5.745l.101-.104.006-29.918.034-.05 6.578-.013c2.395 0 3.711 2.444 3.711 6.871 0 4.43-1.316 6.88-3.711 6.88l-3.959-.005c-.059 0-.099.045-.099.103v3.482c0 .068.04.109.099.109h5.67c2 0 3.959-.938 5.372-2.55 1.675-1.914 2.557-4.677 2.557-7.988 0-6.416-3.096-10.577-7.929-10.577ZM127.544 13.766h-5.748c-.066 0-.112.046-.112.1v33.562c0 .054.046.104.112.104h5.748l.106-.104V13.867l-.106-.101ZM152.614 21.935a.107.107 0 0 0-.108-.104h-10.237c-9.179 0-10.352 6.82-10.352 12.815l.006 5.185c0 4.46 2.741 7.7 6.509 7.7h5.585l.101-.103V43.95c0-.057-.047-.108-.101-.108l-3.989.007c-.919-.02-2.156-.413-2.156-3.612V34.64c-.005-3.72.337-6.097 1.1-7.45.826-1.494 2.127-1.694 3.297-1.694h4.363l.037.052-.005 21.88c0 .053.044.103.105.103h5.738c.057 0 .107-.05.107-.103M193.965 27.81l-2.831-.218c-2.123-.185-3.701-1.375-3.701-4.897 0-4.111 1.821-5.236 4.253-5.236h7.834l.105-.102v-3.49l-.105-.1h-.164l-8.487.001c-5.348 0-9.15 3.18-9.15 9.516v.276c0 5 3.039 8.608 7.568 8.959l2.817.211c2.149.165 3.488 2.11 3.488 5.063v.83c0 1.846-.456 5.223-4.367 5.223h-8.14a.106.106 0 0 0-.102.107v3.474l.102.104h10.107c3.114 0 8.329-1.275 8.329-9.856 0-3.11-.698-5.56-2.112-7.33-1.205-1.521-2.991-2.344-5.444-2.535ZM241.042 21.935a.104.104 0 0 0-.103-.104H230.68c-9.16 0-10.346 6.82-10.346 12.815l.008 5.185c0 4.46 2.738 7.7 6.526 7.7h5.57l.103-.103V43.95c0-.057-.049-.108-.103-.108l-3.992.007c-.916-.02-2.142-.413-2.146-3.612V34.64c0-3.72.346-6.097 1.091-7.45.827-1.494 2.136-1.694 3.287-1.694h4.383l.043.052-.011 21.88c0 .053.048.103.105.103h5.746c.057 0 .098-.05.098-.103M217.948 21.831h-6.236l-.033-.038v-4.23a.1.1 0 0 0-.1-.103h-5.743c-.058 0-.11.047-.11.103v22.27c0 4.461 2.747 7.699 6.53 7.699h4.113c.059 0 .104-.05.104-.104v-3.475c0-.057-.045-.11-.104-.11h-2.526c-.647-.01-2.164-.043-2.17-3.33V25.52l.035-.034c1.911.01 6.24 0 6.24 0l.101-.095v-3.456a.104.104 0 0 0-.101-.104ZM258.054 21.831h-6.201l-.042-.038v-4.23l-.095-.103h-5.754a.106.106 0 0 0-.106.103v22.27c0 4.461 2.742 7.699 6.521 7.699h4.112c.062 0 .102-.05.102-.104v-3.475c0-.057-.04-.11-.102-.11h-2.524c-.649-.01-2.154-.043-2.154-3.33V25.52l.035-.034c1.895.01 6.208 0 6.208 0l.102-.095v-3.456a.107.107 0 0 0-.102-.104ZM267.55 21.831h-5.742a.106.106 0 0 0-.105.104v25.493l.105.104h5.742c.063 0 .106-.05.106-.104V21.935a.102.102 0 0 0-.106-.104ZM267.55 13.766h-5.742l-.105.1v4.874c0 .06.051.103.105.103h5.742c.063 0 .106-.043.106-.103v-4.873a.102.102 0 0 0-.106-.101ZM307.282 21.831h-10.249a.103.103 0 0 0-.101.104l-.003 25.493.096.104h5.753l.097-.104-.008-21.886.04-.042 4.37-.003c1.182 0 2.478.192 3.308 1.576.758 1.25 1.102 3.447 1.102 6.896.005.15-.004 13.459-.004 13.459 0 .053.045.104.102.104h5.728c.062 0 .108-.05.108-.104V34.643c0-5.991-1.182-12.812-10.339-12.812ZM285.943 42.155c-.904 1.507-2.339 1.708-3.641 1.708-1.289 0-2.729-.201-3.642-1.708-.824-1.357-1.206-3.733-1.206-7.479v-.03c0-4.421.538-6.933 1.74-8.13.719-.726 1.651-1.02 3.108-1.02 1.478 0 2.401.294 3.119 1.02 1.192 1.197 1.73 3.72 1.73 8.16 0 3.751-.382 6.13-1.208 7.479Zm-3.641-20.324c-9.593 0-10.819 6.853-10.819 12.845 0 5.999 1.226 12.874 10.819 12.874s10.816-6.875 10.816-12.874c0-5.992-1.223-12.845-10.816-12.845ZM155.855 21.831l-.066.101 8.521 25.26a.42.42 0 0 1-.004.199l-4.798 12.506c-.02.06.006.103.063.103h4.996a.163.163 0 0 0 .147-.103l14.957-37.965c.021-.06-.005-.1-.064-.1h-5.451a.158.158 0 0 0-.14.1l-6.332 16.599h-.071l-5.591-16.599c-.013-.06-.077-.1-.134-.1M325.007 44.048c0 .169-.046.279-.134.344-.098.071-.232.101-.397.101h-.842v-.867h.889c.127 0 .224.02.295.053.121.06.189.182.189.37Zm.605 1.996c-.039-.016-.071-.058-.096-.128a1.945 1.945 0 0 1-.018-.236l-.013-.39c-.008-.19-.042-.333-.121-.411-.038-.069-.103-.116-.165-.164.08-.075.159-.151.224-.24a.868.868 0 0 0 .118-.46c0-.37-.153-.625-.451-.767a1.504 1.504 0 0 0-.579-.106h-1.42v3.098h.543v-1.263h.825c.152 0 .261.022.33.047.102.066.158.167.168.337l.027.486c.007.12.013.197.023.246l.037.11.011.037h.597v-.18m-3.68-1.3c0-.634.235-1.21.666-1.647a2.3 2.3 0 0 1 1.624-.673c.61 0 1.178.238 1.607.673.433.437.668 1.013.668 1.648 0 1.269-1.023 2.3-2.275 2.3a2.299 2.299 0 0 1-1.624-.67 2.297 2.297 0 0 1-.666-1.63Zm2.29 2.772c.736 0 1.421-.293 1.941-.809a2.81 2.81 0 0 0 .797-1.962c0-.75-.288-1.454-.797-1.972a2.698 2.698 0 0 0-1.941-.813c-1.516 0-2.749 1.243-2.749 2.785 0 .74.282 1.436.797 1.962.52.516 1.221.809 1.952.809Z"/>
    </g>
    <defs>
        <clipPath id="ca">
            <path fill="#fff" d="M0 0h327v60H0z"/>
        </clipPath>
    </defs>
</svg><svg fill="none" viewBox="0 0 198 60" id="logo_steam" xmlns="http://www.w3.org/2000/svg">
    <g clip-path="url(#da)" fill="#0F0F0F" fill-opacity=".8">
        <path d="M29.852.405C14.172.405 1.325 12.44.104 27.734l16 6.584a8.424 8.424 0 0 1 5.226-1.45l7.115-10.264v-.145c0-6.179 5.049-11.205 11.257-11.205 6.207 0 11.257 5.026 11.257 11.205 0 6.178-5.05 11.205-11.257 11.205-.086 0-.17-.002-.256-.004L29.3 40.867c.005.131.01.265.01.398 0 4.638-3.79 8.41-8.45 8.41-4.09 0-7.51-2.905-8.284-6.753L1.133 38.214c3.543 12.47 15.054 21.614 28.719 21.614 16.486 0 29.85-13.303 29.85-29.71 0-16.41-13.364-29.713-29.85-29.713Z"/>
        <path d="m18.812 45.485-3.667-1.508a6.297 6.297 0 0 0 3.267 3.094c3.227 1.338 6.947-.186 8.292-3.4a6.236 6.236 0 0 0 .01-4.829 6.284 6.284 0 0 0-3.425-3.423 6.341 6.341 0 0 0-4.673-.07l3.787 1.558a4.639 4.639 0 0 1 2.514 6.077c-.99 2.37-3.725 3.49-6.105 2.501ZM47.203 22.454c0-4.116-3.365-7.466-7.501-7.466s-7.501 3.35-7.501 7.466c0 4.117 3.365 7.466 7.5 7.466 4.137-.001 7.502-3.35 7.502-7.466Zm-13.124-.012c0-3.098 2.523-5.609 5.636-5.609 3.112 0 5.635 2.51 5.635 5.609 0 3.097-2.523 5.608-5.635 5.608-3.113 0-5.636-2.512-5.636-5.608ZM91.581 20.735l-2 3.5c-1.54-1.072-3.628-1.717-5.451-1.717-2.083 0-3.372.859-3.372 2.396 0 1.868 2.29 2.303 5.693 3.518 3.658 1.288 5.76 2.801 5.76 6.136 0 4.562-3.604 7.125-8.785 7.125-2.526 0-5.572-.65-7.913-2.067l1.459-3.88c1.902 1 4.178 1.594 6.206 1.594 2.734 0 4.034-1.005 4.034-2.489 0-1.698-1.982-2.209-5.181-3.263-3.646-1.212-6.173-2.802-6.173-6.492 0-4.163 3.35-6.553 8.168-6.553 3.359 0 6.058 1.06 7.555 2.192ZM107.216 22.948V41.31h-4.709V22.948h-6.836v-4.02h18.36v4.02h-6.815ZM123.96 22.936v5.043h9.012v4.02h-9.012v5.253h10.456v4.058h-15.164V18.927h15.164v4.009H123.96ZM144.927 36.964l-1.489 4.346h-4.937l8.432-22.383h4.74l8.67 22.382h-5.104l-1.521-4.346h-8.791Zm4.349-12.698-3.071 8.962h6.206l-3.135-8.962ZM184.514 27.579l-6.154 13.079h-2.657l-6.055-12.962V41.31h-4.509V18.927h4.499l7.558 16.157 7.289-16.157h4.539V41.31h-4.509l-.001-13.731ZM198.126 21.748c0 1.924-1.448 3.122-3.11 3.122-1.668 0-3.12-1.198-3.12-3.122 0-1.923 1.452-3.114 3.12-3.114 1.663 0 3.11 1.191 3.11 3.114Zm-5.707 0c0 1.61 1.165 2.62 2.597 2.62 1.427 0 2.587-1.01 2.587-2.62 0-1.614-1.16-2.61-2.587-2.61-1.428 0-2.597 1.008-2.597 2.61Zm2.64-1.591c.807 0 1.078.424 1.078.883 0 .42-.25.703-.555.846l.722 1.348h-.592l-.609-1.195h-.628v1.195h-.493v-3.077h1.077Zm-.579 1.432h.549c.355 0 .565-.223.565-.502 0-.282-.15-.463-.566-.463h-.549v.965h.001Z"/>
    </g>
    <defs>
        <clipPath id="da">
            <path fill="#fff" d="M0 0h198v60H0z"/>
        </clipPath>
    </defs>
</svg><svg fill="none" viewBox="0 0 116 105" id="logo_ubisoft" xmlns="http://www.w3.org/2000/svg">
    <g clip-path="url(#ea)">
        <path d="M0 83.52v12.812c0 5.202 3.584 8.518 8.803 8.518 5.49 0 8.851-3.497 8.851-8.87V83.52h-4.647v12.227c0 2.93-1.49 4.746-4.154 4.746-2.92 0-4.206-2.09-4.206-4.512V83.519H0Zm19.913.176v20.945h7.402c4.1 0 7.583-2.069 7.583-6.172 0-4.283-3.788-5.233-3.788-5.233s2.805-.77 2.805-4.435c0-3.662-3.545-5.105-6.6-5.105h-7.402Zm4.682 3.979h2.247c1.56 0 2.557.812 2.557 2.227 0 1.264-.846 2.219-2.439 2.219h-2.365v-4.446Zm0 7.722h2.483c2.335 0 3.145 1.187 3.145 2.604 0 1.648-1.047 2.614-2.908 2.614h-2.72v-5.218Zm12.062-11.702h4.67v20.945h-4.67V83.695ZM87.62 104.64h-4.67V83.695h14.662v4.33H87.62v4.797h9.105v3.51H87.62v8.308Zm11.706-20.945v4.33h6.031v16.615h4.73V88.024H116v-4.33H99.327ZM46.66 97.675l-3.71 2.685s1.282 4.64 7.71 4.64c4.28 0 7.43-2.472 7.43-6.817 0-7.004-9.896-5.518-9.896-9.12 0-.947.852-1.785 2.424-1.785 2.522 0 3.48 2.449 3.48 2.449l3.712-2.578s-1.45-3.823-7.006-3.823c-4.566 0-6.992 2.899-6.992 5.89 0 7.137 9.608 5.588 9.608 9.333 0 1.264-1.006 2.193-2.574 2.182-3.106 0-4.186-3.056-4.186-3.056Zm23.49-14.36c-5.5 0-7.951 2.955-7.951 2.955l.71.702s-3.56 2.502-3.56 7.873c0 6.181 4.818 10.15 10.828 10.15 6.983 0 10.945-5.098 10.945-10.83 0-6.113-4.524-10.85-10.971-10.85Zm.1 4.349c3.73 0 6.15 2.82 6.15 6.483 0 3.624-2.391 6.523-6.15 6.523-3.712 0-6.152-2.566-6.152-5.971 0-3.1 2.121-4.45 2.121-4.45l-.769-.76s1.636-1.826 4.8-1.826ZM55.857 0C31.867 0 21.513 21.129 21.513 21.129l3.048 2.159s-3.836 7.218-3.73 16.475c0 18.899 15.203 36.701 37.583 36.701 20.33 0 37.126-16.375 37.126-36.654C95.54 13.36 74.812 0 55.856 0Zm.208 6.447c18.742 0 33.286 14.945 33.286 32.32 0 18.418-14 31.226-30.312 31.226-12.006 0-22.836-9.047-22.836-21.45 0-7.165 3.848-12.16 8.16-14.822l.631.678c-1.18.913-4.545 6.262-4.545 11.52 0 9.759 7.735 16.518 17.479 16.518 12.413 0 20.691-10.476 20.691-22.64 0-14.153-12.625-26.168-27.817-26.168-8.404 0-15.536 3.576-19.634 6.733l-.638-.572c5.362-8.18 14.647-13.343 25.535-13.343Zm-5.592 13.54c9.695 0 19.16 6.346 21.523 15.355l-.86.322c-4.241-5.543-11.193-10.137-19.401-10.137-15.105 0-23.038 13.582-21.873 24.925l-.89.323s-1.668-3.643-1.668-7.962c0-12.509 10.38-22.827 23.169-22.827Zm6.408 15.697c4.59 0 8.26 3.682 8.26 8.052 0 3.616-2.346 5.76-2.346 5.76l2.78 1.923S62.818 55.7 57.192 55.7c-5.382 0-10.14-4.299-10.14-10.078 0-5.956 5.176-9.939 9.828-9.939Z" fill="#0F0F0F" fill-opacity=".8"/>
    </g>
    <defs>
        <clipPath id="ea">
            <path fill="#fff" d="M0 0h116v105H0z"/>
        </clipPath>
    </defs>
</svg><svg fill="none" viewBox="0 0 133 105" id="logo_xbox" xmlns="http://www.w3.org/2000/svg">
    <g clip-path="url(#fa)">
        <path d="M33.325 104.261H27.21L16.7 89.841l-10.587 14.42H0l13.568-18.56L1.118 68.62h6.113L16.7 81.56l9.468-12.94h6.113L19.756 85.7l13.569 18.561Zm31.758-10.13c0 3.105-1.043 5.619-3.13 7.394-2.088 1.774-5.07 2.736-8.947 2.736H36.232V88.363H28.18l3.355-4.585h4.697V68.62h16.103c3.653 0 6.412.887 8.35 2.588 1.938 1.7 2.907 3.993 2.907 6.729 0 3.401-1.565 6.063-4.696 7.764 2.013.74 3.504 1.922 4.547 3.327 1.119 1.405 1.64 3.18 1.64 5.102ZM41.675 83.851h10.288c2.088 0 3.653-.444 4.697-1.405 1.044-.887 1.566-2.292 1.566-4.14 0-1.553-.522-2.81-1.64-3.698-1.044-.887-2.61-1.33-4.623-1.33H41.674v10.573Zm17.893 10.13c0-1.848-.597-3.327-1.715-4.214-1.118-.962-2.833-1.405-5.07-1.405H41.674v11.165h11.034c2.162 0 3.877-.517 5.07-1.405 1.192-.961 1.789-2.366 1.789-4.14Zm42.494-7.542c0 2.736-.373 5.324-1.193 7.542-.82 2.219-2.013 4.215-3.578 5.916-1.64 1.701-3.504 3.032-5.592 3.845-2.087.887-4.473 1.257-7.156 1.257-2.61 0-5.07-.444-7.157-1.257a16.779 16.779 0 0 1-5.592-3.845c-1.64-1.7-2.833-3.697-3.653-5.916-.82-2.218-1.193-4.806-1.193-7.542 0-2.736.373-5.324 1.193-7.542.82-2.218 2.013-4.289 3.653-5.99 1.566-1.7 3.43-2.957 5.591-3.845 2.088-.813 4.548-1.257 7.157-1.257 2.61 0 4.995.444 7.157 1.257 2.088.814 4.026 2.145 5.592 3.845 1.565 1.701 2.833 3.772 3.578 5.99.746 2.218 1.193 4.732 1.193 7.542Zm-29.448 0c0 4.215 1.118 7.542 3.28 9.983 2.162 2.44 4.995 3.697 8.648 3.697 3.579 0 6.487-1.257 8.648-3.698 2.163-2.44 3.206-5.767 3.206-9.982 0-4.215-1.043-7.616-3.206-10.056-2.161-2.44-5.069-3.697-8.647-3.697-3.579 0-6.487 1.257-8.648 3.697-2.163 2.514-3.28 5.841-3.28 10.056Zm46.744-.74 12.525-17.08h-6.114L116.3 81.56l-9.468-12.94h-6.113l12.525 17.08-13.569 18.561h6.114l10.511-14.42 10.587 14.42H133l-13.643-18.56ZM66.5 23.81c9.02 6.803 24.304 23.514 19.682 28.246-5.294 4.585-12.152 7.32-19.682 7.32-7.53 0-14.463-2.735-19.682-7.32-4.696-4.732 10.661-21.443 19.607-28.172 0-.074.075-.074.075-.074ZM82.081 4.363C77.534 1.627 72.54 0 66.5 0S55.466 1.627 50.919 4.363c-.075 0-.075.074-.075.148s.075.074.15.074c5.814-1.258 14.611 3.697 15.431 4.214h.15c.82-.517 9.617-5.472 15.432-4.214.074 0 .149 0 .149-.074s0-.148-.075-.148Zm-36.53 4.14c-.075 0-.075.074-.15.074-5.441 5.398-8.796 12.867-8.796 21.074a29.561 29.561 0 0 0 6.113 17.969c0 .074.075.074.15.074.074 0 .074-.074 0-.148-2.312-7.025 9.393-23.958 15.431-31.057l.075-.073c0-.074 0-.075-.075-.075-9.17-9.02-12.226-8.06-12.748-7.837Zm29.15 7.765-.075.073s0 .075.075.075c6.038 7.098 17.668 24.031 15.432 31.056v.148c.074 0 .149 0 .149-.074a29.561 29.561 0 0 0 6.113-17.968c0-8.208-3.355-15.677-8.871-21.074-.075-.074-.075-.074-.15-.074-.447-.148-3.503-1.11-12.673 7.838Z" fill="#0F0F0F" fill-opacity=".8"/>
    </g>
    <defs>
        <clipPath id="fa">
            <path fill="#fff" d="M0 0h133v105H0z"/>
        </clipPath>
    </defs>
</svg></svg>