<svg width="198" height="60" viewBox="0 0 198 60" fill="none" xmlns="http://www.w3.org/2000/svg">
<g clip-path="url(#clip0_2001_130)">
<path d="M29.852 0.405273C14.1712 0.405273 1.32519 12.4398 0.104492 27.7338L16.1038 34.3179C17.4594 33.3951 19.0971 32.8544 20.859 32.8544C21.0169 32.8544 21.1741 32.8598 21.33 32.8685L28.445 22.6038C28.445 22.5548 28.4443 22.5071 28.4443 22.4587C28.4443 16.2803 33.4938 11.2537 39.7019 11.2537C45.9093 11.2537 50.9587 16.2803 50.9587 22.4587C50.9587 28.6372 45.9093 33.6644 39.7019 33.6644C39.6162 33.6644 39.5312 33.6624 39.4461 33.6604L29.2986 40.8671C29.304 40.9981 29.3087 41.1318 29.3087 41.2648C29.3087 45.9031 25.5184 49.6751 20.859 49.6751C16.7691 49.6751 13.3493 46.7696 12.5746 42.9217L1.13287 38.2135C4.67552 50.6846 16.1868 59.8277 29.852 59.8277C46.3384 59.8277 59.7027 46.5251 59.7027 30.1175C59.7027 13.7072 46.3378 0.405273 29.852 0.405273Z" fill="#0F0F0F" fill-opacity="0.8"/>
<path d="M18.812 45.4854L15.1451 43.9775C15.795 45.3242 16.9192 46.4519 18.4118 47.0711C21.6387 48.409 25.3588 46.8851 26.7036 43.6706C27.3548 42.1164 27.3588 40.4004 26.7131 38.8421C26.0687 37.2833 24.8527 36.0676 23.2892 35.4188C21.7378 34.776 20.0758 34.7995 18.6156 35.3482L22.4032 36.9071C24.7832 37.8945 25.9087 40.6146 24.9168 42.9835C23.9269 45.3531 21.1919 46.4734 18.812 45.4854Z" fill="#0F0F0F" fill-opacity="0.8"/>
<path d="M47.2027 22.4543C47.2027 18.3378 43.8382 14.9883 39.7018 14.9883C35.566 14.9883 32.2008 18.3378 32.2008 22.4543C32.2008 26.5715 35.566 29.9196 39.7018 29.9196C43.8382 29.9189 47.2027 26.5708 47.2027 22.4543ZM34.0794 22.4415C34.0794 19.3439 36.6025 16.8333 39.7146 16.8333C42.8267 16.8333 45.3498 19.3439 45.3498 22.4415C45.3498 25.5391 42.8267 28.0497 39.7146 28.0497C36.6025 28.0497 34.0794 25.5385 34.0794 22.4415Z" fill="#0F0F0F" fill-opacity="0.8"/>
<path d="M91.5811 20.7352L89.581 24.2345C88.0404 23.1632 85.9526 22.5184 84.13 22.5184C82.0469 22.5184 80.7581 23.3768 80.7581 24.9142C80.7581 26.782 83.0477 27.2166 86.4506 28.4323C90.1087 29.7198 92.2113 31.233 92.2113 34.5677C92.2113 39.1302 88.6066 41.6925 83.4255 41.6925C80.9005 41.6925 77.8545 41.0437 75.5129 39.6259L76.9718 35.7465C78.8741 36.7465 81.1495 37.3396 83.1779 37.3396C85.9121 37.3396 87.2118 36.3355 87.2118 34.8512C87.2118 33.1526 85.2299 32.6421 82.0307 31.5876C78.3849 30.376 75.8584 28.7862 75.8584 25.0955C75.8584 20.9334 79.2074 18.543 84.0261 18.543C87.3845 18.543 90.0837 19.6022 91.5811 20.7352Z" fill="#0F0F0F" fill-opacity="0.8"/>
<path d="M107.216 22.9477V41.3098H102.507V22.9477H95.6709V18.9272H114.031V22.9477H107.216Z" fill="#0F0F0F" fill-opacity="0.8"/>
<path d="M123.96 22.9356V27.979H132.972V31.9995H123.96V37.2524H134.416V41.3098H119.252V18.9272H134.416V22.9356H123.96Z" fill="#0F0F0F" fill-opacity="0.8"/>
<path d="M144.927 36.9636L143.438 41.3098H138.501L146.933 18.9272H151.673L160.343 41.3091H155.239L153.718 36.9629L144.927 36.9636ZM149.276 24.2661L146.205 33.2279H152.411L149.276 24.2661Z" fill="#0F0F0F" fill-opacity="0.8"/>
<path d="M184.514 27.5787L178.36 40.6576H175.703L169.648 27.6956V41.3098H165.139V18.9272H169.638L177.196 35.0843L184.485 18.9272H189.024V41.3098H184.515L184.514 27.5787Z" fill="#0F0F0F" fill-opacity="0.8"/>
<path d="M198.126 21.748C198.126 23.6716 196.678 24.8705 195.016 24.8705C193.348 24.8705 191.896 23.6716 191.896 21.748C191.896 19.8251 193.348 18.6343 195.016 18.6343C196.679 18.6343 198.126 19.8251 198.126 21.748ZM192.419 21.748C192.419 23.3573 193.584 24.3681 195.016 24.3681C196.443 24.3681 197.603 23.3573 197.603 21.748C197.603 20.1341 196.443 19.1387 195.016 19.1387C193.588 19.1387 192.419 20.1461 192.419 21.748ZM195.059 20.1569C195.866 20.1569 196.137 20.5814 196.137 21.0401C196.137 21.4606 195.887 21.7426 195.582 21.8864L196.304 23.2344H195.712L195.103 22.0395H194.475V23.2344H193.982V20.1569H195.059ZM194.48 21.5888H195.029C195.384 21.5888 195.594 21.3665 195.594 21.0871C195.594 20.805 195.444 20.6237 195.028 20.6237H194.479V21.5888H194.48Z" fill="#0F0F0F" fill-opacity="0.8"/>
</g>
<defs>
<clipPath id="clip0_2001_130">
<rect width="198" height="60" fill="white"/>
</clipPath>
</defs>
</svg>
