<svg width="116" height="105" viewBox="0 0 116 105" fill="none" xmlns="http://www.w3.org/2000/svg">
<g clip-path="url(#clip0_2001_125)">
<path d="M0 83.5194V96.3318C0 101.534 3.58382 104.85 8.80336 104.85C14.2936 104.85 17.6542 101.353 17.6542 95.9809V83.5194H13.0072V95.7469C13.0072 98.6762 11.5164 100.493 8.85289 100.493C5.93386 100.493 4.64708 98.4037 4.64708 95.9809V83.5194H0ZM19.9135 83.6964V104.641H27.315C31.4143 104.641 34.8976 102.572 34.8976 98.4688C34.8976 94.1857 31.1099 93.2363 31.1099 93.2363C31.1099 93.2363 33.9146 92.4654 33.9146 88.8009C33.9146 85.1389 30.3696 83.6964 27.315 83.6964H19.9135ZM24.5952 87.6747H26.8421C28.4013 87.6747 29.399 88.4874 29.399 89.9015C29.399 91.1665 28.5526 92.121 26.9603 92.121H24.5954V87.6747H24.5952ZM24.5952 95.3974H27.0785C29.4135 95.3974 30.2232 96.5842 30.2232 98.0007C30.2232 99.6489 29.1759 100.615 27.315 100.615H24.5954V95.3975L24.5952 95.3974ZM36.6565 83.6949H41.3272V104.64H36.6565V83.6949ZM87.6208 104.64H82.9501V83.6949H97.6126V88.0243H87.6208V92.8217H96.7258V96.3318H87.6208V104.64ZM99.3273 83.6949V88.0243H105.358V104.64H110.088V88.0243H116V83.6949H99.3273ZM46.6594 97.6753L42.9489 100.36C42.9489 100.36 44.231 105 50.6588 105C54.9392 105 58.089 102.528 58.089 98.1826C58.089 91.1794 48.193 92.6651 48.193 89.0636C48.193 88.1158 49.0448 87.2785 50.6168 87.2785C53.1391 87.2785 54.0978 89.7269 54.0978 89.7269L57.8093 87.1494C57.8093 87.1494 56.3596 83.3255 50.8032 83.3255C46.2369 83.3255 43.8112 86.2245 43.8112 89.2158C43.8112 96.3526 53.419 94.8036 53.419 98.549C53.419 99.8129 52.4125 100.742 50.8449 100.731C47.739 100.731 46.6594 97.6753 46.6594 97.6753ZM70.1498 83.3159C64.6495 83.3159 62.1978 86.2704 62.1978 86.2704L62.9073 86.9724C62.9073 86.9724 59.3487 89.4736 59.3487 94.8449C59.3487 101.026 64.1659 104.995 70.1757 104.995C77.1587 104.995 81.1209 99.8969 81.1209 94.1648C81.1209 88.0524 76.5974 83.3159 70.1498 83.3159ZM70.2496 87.6635C73.979 87.6635 76.3984 90.4842 76.3984 94.1465C76.3984 97.7709 74.0079 100.67 70.2496 100.67C66.5366 100.67 64.0971 98.1041 64.0971 94.6987C64.0971 91.5993 66.2181 90.2486 66.2181 90.2486L65.4495 89.4881C65.4495 89.4881 67.085 87.6635 70.2496 87.6635ZM55.8559 0C31.8673 0 21.5129 21.1289 21.5129 21.1289L24.5608 23.288C24.5608 23.288 20.7253 30.5056 20.8314 39.7632C20.8314 58.6616 36.0341 76.464 58.4138 76.464C78.7449 76.464 95.5396 60.089 95.5396 39.8097C95.5396 13.361 74.8125 0 55.856 0H55.8559ZM56.064 6.4473C74.8062 6.4473 89.3497 21.3924 89.3497 38.7668C89.3497 57.1848 75.3508 69.9934 59.0381 69.9934C47.0323 69.9934 36.202 60.9464 36.202 48.5423C36.202 41.378 40.0502 36.3832 44.3623 33.7212L44.9934 34.3988C43.8133 35.3125 40.4484 40.6612 40.4484 45.9183C40.4484 55.6776 48.1826 62.4367 57.927 62.4367C70.3397 62.4367 78.6181 51.9605 78.6181 39.7965C78.6181 25.6439 65.9934 13.6287 50.8006 13.6287C42.3973 13.6287 35.2652 17.2047 31.1669 20.3617L30.5291 19.7904C35.8907 11.6099 45.1757 6.4473 56.064 6.4473ZM50.4716 19.9863C60.1669 19.9863 69.6325 26.3332 71.9952 35.3421L71.1358 35.6643C66.8936 30.1209 59.9423 25.5268 51.7337 25.5268C36.6291 25.5268 28.6965 39.1086 29.8611 50.4522L28.9716 50.7745C28.9716 50.7745 27.3033 47.1319 27.3033 42.8125C27.3033 30.3043 37.6839 19.9863 50.4716 19.9863ZM56.8797 35.6842C61.4698 35.6842 65.1407 39.3657 65.1407 43.736C65.1407 47.3524 62.7943 49.4957 62.7943 49.4957L65.5736 51.4188C65.5736 51.4188 62.8176 55.7005 57.1918 55.7005C51.8105 55.7005 47.0511 51.4024 47.0511 45.6226C47.0511 39.667 52.228 35.6842 56.8797 35.6842Z" fill="#0F0F0F" fill-opacity="0.8"/>
</g>
<defs>
<clipPath id="clip0_2001_125">
<rect width="116" height="105" fill="white"/>
</clipPath>
</defs>
</svg>
