<svg width="327" height="60" viewBox="0 0 327 60" fill="none" xmlns="http://www.w3.org/2000/svg">
<g clip-path="url(#clip0_2001_87)">
<path d="M26.9074 0.000190735V52.4786L38.6451 56.2432V12.2407C38.6451 10.1673 39.5583 8.79057 41.023 9.26402C42.9381 9.80173 43.3103 11.7118 43.3103 13.7621V31.336C50.6164 34.9159 56.3685 31.3342 56.3685 21.8888C56.3685 12.237 52.9961 7.93723 43.0731 4.48021C39.159 3.16091 31.9053 0.93462 26.9074 0.000190735Z" fill="#0F0F0F" fill-opacity="0.8"/>
<path d="M40.8776 48.5712L59.7292 41.7788C61.8619 40.9785 62.1878 39.8912 60.4619 39.3198C58.7088 38.7378 55.5798 38.9044 53.4244 39.6879L40.8776 44.1685V37.0193L41.5961 36.7792C41.5961 36.7792 45.2279 35.4767 50.3361 34.9159C55.4344 34.3501 61.6869 34.9895 66.6009 36.8646C72.1368 38.6449 72.7573 41.2417 71.3567 43.0488C69.9357 44.8372 66.4906 46.1309 66.4906 46.1309L40.8776 55.4453" fill="#0F0F0F" fill-opacity="0.8"/>
<path d="M5.40127 47.8482C-0.274418 46.2476 -1.22088 42.8654 1.36833 40.9117C3.75667 39.1277 7.82412 37.7847 7.82412 37.7847L24.638 31.7159V38.623L12.5497 43.0095C10.4084 43.7849 10.0874 44.8759 11.8121 45.4466C13.5676 46.0405 16.683 45.8808 18.8255 45.0805L24.638 42.959V49.1251C24.2634 49.1887 23.8468 49.253 23.4666 49.3185C17.6714 50.2922 11.4972 49.8923 5.40127 47.8482Z" fill="#0F0F0F" fill-opacity="0.8"/>
<path d="M68.362 52.6644C68.362 52.839 68.3207 52.9532 68.2326 53.0106C68.1309 53.0804 67.9978 53.1154 67.8302 53.1154H66.9873V52.2445H67.8795C68.0058 52.2445 68.1001 52.2664 68.1759 52.2963C68.2991 52.3575 68.362 52.4803 68.362 52.6644ZM68.9714 54.6611C68.9289 54.6486 68.8993 54.6062 68.8746 54.5345C68.8635 54.4789 68.8555 54.4003 68.8531 54.2993L68.8395 53.9044C68.8333 53.7217 68.7988 53.5794 68.723 53.4946C68.6855 53.4279 68.6183 53.3854 68.5542 53.3393C68.638 53.2619 68.715 53.1827 68.7804 53.096C68.8555 52.9731 68.8993 52.8066 68.8993 52.6288C68.8993 52.2664 68.7452 52.0088 68.4451 51.8659C68.2954 51.8017 68.1001 51.7599 67.8678 51.7599H66.4444V54.8595H66.9873V53.5975H67.8148C67.9688 53.5975 68.0724 53.6175 68.1481 53.6431C68.2504 53.7092 68.3059 53.809 68.3127 53.9805L68.3392 54.464C68.3472 54.5875 68.3552 54.6611 68.362 54.7172L68.4026 54.8239L68.4137 54.8595H69.0096V54.6829M65.3291 53.3798C65.3291 52.7467 65.5632 52.1659 65.9909 51.7355C66.429 51.2958 67.0137 51.0587 67.6213 51.0587C68.2295 51.0587 68.7995 51.2958 69.2271 51.7355C69.6584 52.1659 69.8913 52.7467 69.8913 53.3798C69.8913 54.6486 68.8722 55.6785 67.6213 55.6785C67.0137 55.6785 66.429 55.4439 65.9909 55.0098C65.5632 54.5719 65.3291 53.9974 65.3291 53.3798ZM67.6213 56.1538C68.3552 56.1538 69.0367 55.8606 69.5561 55.3416C70.0694 54.8133 70.359 54.1234 70.359 53.3798C70.359 52.6294 70.0694 51.9277 69.5561 51.4093C69.0367 50.8791 68.3552 50.5953 67.6213 50.5953C66.0981 50.5953 64.8663 51.8397 64.8663 53.3798C64.8663 54.1234 65.1504 54.8133 65.6637 55.3416C66.1837 55.8606 66.8874 56.1538 67.6213 56.1538Z" fill="#0F0F0F" fill-opacity="0.8"/>
<path d="M110.22 13.7719L96.0448 13.7656C95.9863 13.7656 95.9395 13.8124 95.9395 13.8667V47.4276C95.9395 47.4812 95.9863 47.5317 96.0448 47.5317H101.79L101.891 47.4276L101.897 17.5096L101.931 17.4597L108.509 17.4472C110.904 17.4472 112.22 19.8906 112.22 24.3182C112.22 28.7483 110.904 31.1973 108.509 31.1973L104.55 31.1929C104.491 31.1929 104.451 31.2385 104.451 31.2959V34.7778C104.451 34.8458 104.491 34.887 104.55 34.887H110.22C112.22 34.887 114.179 33.9488 115.592 32.3363C117.267 30.4226 118.149 27.6598 118.149 24.3488C118.149 17.9325 115.053 13.7719 110.22 13.7719Z" fill="#0F0F0F" fill-opacity="0.8"/>
<path d="M127.544 13.7656H121.796C121.73 13.7656 121.684 13.8124 121.684 13.8667V47.4276C121.684 47.4818 121.73 47.5317 121.796 47.5317H127.544L127.65 47.4276V13.8667L127.544 13.7656Z" fill="#0F0F0F" fill-opacity="0.8"/>
<path d="M152.614 21.9348C152.614 21.8756 152.563 21.8307 152.506 21.8307H142.269C133.09 21.8307 131.917 28.6518 131.917 34.6463L131.923 39.8306C131.923 44.2919 134.664 47.5312 138.432 47.5312H144.017L144.118 47.4277V43.9495C144.118 43.8927 144.071 43.8422 144.017 43.8422L140.028 43.849C139.109 43.8297 137.872 43.4361 137.872 40.2373V34.6401C137.867 30.9205 138.209 28.5426 138.972 27.1896C139.798 25.6963 141.099 25.496 142.269 25.496H146.632L146.669 25.5484L146.664 47.4277C146.664 47.4807 146.708 47.5312 146.769 47.5312H152.507C152.564 47.5312 152.614 47.4807 152.614 47.4277" fill="#0F0F0F" fill-opacity="0.8"/>
<path d="M193.965 27.8103L191.134 27.592C189.011 27.4067 187.433 26.2165 187.433 22.6952C187.433 18.5839 189.254 17.4592 191.686 17.4592H199.52L199.625 17.3569V13.8668L199.52 13.7664H199.356L190.869 13.7682C185.521 13.7682 181.719 16.9477 181.719 23.2841V23.5598C181.719 28.5594 184.758 32.168 189.287 32.5186L192.104 32.7301C194.253 32.8948 195.592 34.8403 195.592 37.7927V38.623C195.592 40.4688 195.136 43.8459 191.225 43.8459H183.085C183.03 43.8459 182.983 43.894 182.983 43.9532V47.4271L183.085 47.5312H193.192C196.306 47.5312 201.521 46.2556 201.521 37.6748C201.521 34.5659 200.823 32.1156 199.409 30.3447C198.204 28.8239 196.418 28.0012 193.965 27.8103Z" fill="#0F0F0F" fill-opacity="0.8"/>
<path d="M241.042 21.9348C241.042 21.8756 240.993 21.8307 240.939 21.8307H230.68C221.52 21.8307 220.334 28.6518 220.334 34.6463L220.342 39.8306C220.342 44.2919 223.08 47.5312 226.868 47.5312H232.438L232.541 47.4277V43.9495C232.541 43.8927 232.492 43.8422 232.438 43.8422L228.446 43.849C227.53 43.8297 226.304 43.4361 226.3 40.2373V34.6401C226.3 30.9205 226.646 28.5426 227.391 27.1896C228.218 25.6963 229.527 25.496 230.678 25.496H235.061L235.104 25.5484L235.093 47.4277C235.093 47.4807 235.141 47.5312 235.198 47.5312H240.944C241.001 47.5312 241.042 47.4807 241.042 47.4277" fill="#0F0F0F" fill-opacity="0.8"/>
<path d="M217.948 21.8312H211.712L211.679 21.7925V17.5632C211.679 17.5071 211.637 17.4597 211.579 17.4597H205.836C205.778 17.4597 205.726 17.5071 205.726 17.5632V39.8336C205.726 44.2943 208.473 47.5317 212.256 47.5317H216.369C216.428 47.5317 216.473 47.4812 216.473 47.4276V43.9531C216.473 43.8963 216.428 43.8427 216.369 43.8427H213.843C213.196 43.8327 211.679 43.7996 211.673 40.5129V25.5202L211.708 25.4865C213.619 25.4965 217.948 25.4865 217.948 25.4865L218.049 25.3911V21.9353C218.049 21.8767 218.001 21.8312 217.948 21.8312Z" fill="#0F0F0F" fill-opacity="0.8"/>
<path d="M258.054 21.8312H251.853L251.811 21.7925V17.5632L251.716 17.4597H245.962C245.905 17.4597 245.856 17.5071 245.856 17.5632V39.8336C245.856 44.2943 248.598 47.5317 252.377 47.5317H256.489C256.551 47.5317 256.591 47.4812 256.591 47.4276V43.9531C256.591 43.8963 256.551 43.8427 256.489 43.8427H253.965C253.316 43.8327 251.811 43.7996 251.811 40.5129V25.5202L251.846 25.4865C253.741 25.4965 258.054 25.4865 258.054 25.4865L258.156 25.3911V21.9353C258.156 21.8767 258.104 21.8312 258.054 21.8312Z" fill="#0F0F0F" fill-opacity="0.8"/>
<path d="M267.55 21.8312H261.808C261.754 21.8312 261.703 21.8767 261.703 21.9353V47.4276L261.808 47.5317H267.55C267.613 47.5317 267.656 47.4812 267.656 47.4276V21.9353C267.656 21.8767 267.613 21.8312 267.55 21.8312Z" fill="#0F0F0F" fill-opacity="0.8"/>
<path d="M267.55 13.7656H261.808L261.703 13.8667V18.7403C261.703 18.7996 261.754 18.8433 261.808 18.8433H267.55C267.613 18.8433 267.656 18.7996 267.656 18.7403V13.8667C267.656 13.8124 267.613 13.7656 267.55 13.7656Z" fill="#0F0F0F" fill-opacity="0.8"/>
<path d="M307.282 21.8312H297.033C296.979 21.8312 296.932 21.8767 296.932 21.9353L296.929 47.4276L297.025 47.5317H302.778L302.875 47.4276L302.867 25.5421L302.907 25.4996L307.277 25.4965C308.459 25.4965 309.755 25.6893 310.585 27.0728C311.343 28.3229 311.687 30.5205 311.687 33.9694C311.692 34.1185 311.683 47.4276 311.683 47.4276C311.683 47.4812 311.728 47.5317 311.785 47.5317H317.513C317.575 47.5317 317.621 47.4812 317.621 47.4276V34.6431C317.621 28.6516 316.439 21.8312 307.282 21.8312Z" fill="#0F0F0F" fill-opacity="0.8"/>
<path d="M285.943 42.1546C285.039 43.6616 283.604 43.8631 282.302 43.8631C281.013 43.8631 279.573 43.6616 278.66 42.1546C277.836 40.7984 277.454 38.4224 277.454 34.676V34.646C277.454 30.2247 277.992 27.7127 279.194 26.5163C279.913 25.7902 280.845 25.4957 282.302 25.4957C283.78 25.4957 284.703 25.7902 285.421 26.5163C286.613 27.7127 287.151 30.2353 287.151 34.676C287.151 38.4274 286.769 40.8053 285.943 42.1546ZM282.302 21.831C272.709 21.831 271.483 28.6839 271.483 34.676C271.483 40.6749 272.709 47.5503 282.302 47.5503C291.895 47.5503 293.118 40.6749 293.118 34.676C293.118 28.6839 291.895 21.831 282.302 21.831Z" fill="#0F0F0F" fill-opacity="0.8"/>
<path d="M155.855 21.8312L155.789 21.9323L164.31 47.1912C164.324 47.248 164.324 47.3353 164.306 47.3908L159.508 59.8971C159.488 59.9563 159.514 60 159.571 60H164.567C164.629 60 164.693 59.9563 164.714 59.8971L179.671 21.9323C179.692 21.8717 179.666 21.8312 179.607 21.8312H174.156C174.097 21.8312 174.035 21.8767 174.016 21.9323L167.684 38.5306H167.613L162.022 21.9323C162.009 21.8717 161.945 21.8312 161.888 21.8312" fill="#0F0F0F" fill-opacity="0.8"/>
<path d="M325.007 44.0485C325.007 44.2169 324.961 44.3267 324.873 44.3922C324.775 44.4633 324.641 44.4933 324.476 44.4933H323.634V43.6256H324.523C324.65 43.6256 324.747 43.6456 324.818 43.6792C324.939 43.7398 325.007 43.8608 325.007 44.0485ZM325.612 46.044C325.573 46.0284 325.541 45.986 325.516 45.9155C325.508 45.8631 325.5 45.777 325.498 45.6803L325.485 45.2905C325.477 45.0996 325.443 44.9568 325.364 44.8788C325.326 44.8102 325.261 44.7634 325.199 44.7154C325.279 44.6405 325.358 44.5638 325.423 44.4752C325.5 44.3523 325.541 44.1926 325.541 44.0148C325.541 43.6456 325.388 43.3898 325.09 43.2482C324.934 43.1846 324.747 43.1422 324.511 43.1422H323.091V46.2405H323.634V44.9767H324.459C324.611 44.9767 324.72 44.9986 324.789 45.0235C324.891 45.0896 324.947 45.1913 324.957 45.361L324.984 45.8469C324.991 45.9667 324.997 46.044 325.007 46.0927L325.044 46.2031L325.055 46.2405H325.652V46.0609M321.972 44.7609C321.972 44.1259 322.207 43.5495 322.638 43.1128C323.075 42.6781 323.658 42.4398 324.262 42.4398C324.872 42.4398 325.44 42.6781 325.869 43.1128C326.302 43.5495 326.537 44.1259 326.537 44.7609C326.537 46.0297 325.514 47.0602 324.262 47.0602C323.658 47.0602 323.075 46.825 322.638 46.3908C322.207 45.9561 321.972 45.3772 321.972 44.7609ZM324.262 47.5317C324.998 47.5317 325.683 47.2386 326.203 46.7233C326.712 46.1975 327 45.5013 327 44.7609C327 44.0105 326.712 43.3075 326.203 42.7891C325.683 42.262 324.998 41.9763 324.262 41.9763C322.746 41.9763 321.513 43.2189 321.513 44.7609C321.513 45.5013 321.795 46.1975 322.31 46.7233C322.83 47.2386 323.531 47.5317 324.262 47.5317Z" fill="#0F0F0F" fill-opacity="0.8"/>
</g>
<defs>
<clipPath id="clip0_2001_87">
<rect width="327" height="60" fill="white"/>
</clipPath>
</defs>
</svg>
