<svg width="133" height="105" viewBox="0 0 133 105" fill="none" xmlns="http://www.w3.org/2000/svg">
<g clip-path="url(#clip0_2001_57)">
<path d="M33.3246 104.261H27.2113L16.6996 89.8416L6.11323 104.261H0L13.5684 85.7007L1.11827 68.6197H7.2315L16.6996 81.5599L26.1676 68.6197H32.2808L19.7562 85.7007L33.3246 104.261ZM65.0835 94.1303C65.0835 97.2359 64.0398 99.75 61.9524 101.525C59.8649 103.299 56.8828 104.261 53.0062 104.261H36.2321V88.3627H28.1805L31.5353 83.7782H36.2321V68.6197H52.3352C55.9882 68.6197 58.7466 69.507 60.685 71.2077C62.6233 72.9085 63.5925 75.2007 63.5925 77.9366C63.5925 81.338 62.0269 84 58.8957 85.7007C60.9086 86.4401 62.3997 87.6232 63.4434 89.0282C64.5617 90.4331 65.0835 92.2077 65.0835 94.1303ZM41.6743 83.8521H51.9624C54.0499 83.8521 55.6155 83.4085 56.6592 82.4472C57.7029 81.5599 58.2248 80.1549 58.2248 78.3063C58.2248 76.7535 57.7029 75.4965 56.5846 74.6092C55.5409 73.7218 53.9753 73.2782 51.9624 73.2782H41.6743V83.8521ZM59.5667 93.9824C59.5667 92.1338 58.9703 90.6549 57.852 89.7676C56.7337 88.8063 55.0191 88.3627 52.7825 88.3627H41.6743V99.5282H52.708C54.87 99.5282 56.5846 99.0106 57.7775 98.1232C58.9703 97.162 59.5667 95.757 59.5667 93.9824ZM102.061 86.4401C102.061 89.1761 101.688 91.7641 100.868 93.9824C100.048 96.2007 98.8554 98.1972 97.2898 99.8979C95.6497 101.599 93.7859 102.93 91.6984 103.743C89.611 104.63 87.2253 105 84.5415 105C81.9322 105 79.472 104.556 77.3845 103.743C75.2971 102.856 73.4333 101.599 71.7932 99.8979C70.153 98.1972 68.9602 96.2007 68.1401 93.9824C67.3201 91.7641 66.9473 89.1761 66.9473 86.4401C66.9473 83.7042 67.3201 81.1162 68.1401 78.8979C68.9602 76.6796 70.153 74.6092 71.7932 72.9084C73.3587 71.2077 75.2225 69.9507 77.3845 69.0634C79.472 68.25 81.9322 67.8063 84.5415 67.8063C87.1508 67.8063 89.5364 68.25 91.6984 69.0634C93.7859 69.8768 95.7242 71.2077 97.2898 72.9084C98.8554 74.6092 100.123 76.6796 100.868 78.8979C101.614 81.1162 102.061 83.6303 102.061 86.4401ZM72.6132 86.4401C72.6132 90.6549 73.7315 93.9824 75.8935 96.4225C78.0555 98.8627 80.8885 100.12 84.5415 100.12C88.12 100.12 91.0275 98.8627 93.1895 96.4225C95.3515 93.9824 96.3952 90.6549 96.3952 86.4401C96.3952 82.2254 95.3515 78.8239 93.1895 76.3838C91.0275 73.9437 88.12 72.6866 84.5415 72.6866C80.963 72.6866 78.0555 73.9437 75.8935 76.3838C73.7315 78.8979 72.6132 82.2254 72.6132 86.4401ZM119.357 85.7007L131.882 68.6197H125.768L116.3 81.5599L106.832 68.6197H100.719L113.244 85.7007L99.6754 104.261H105.789L116.3 89.8416L126.887 104.261H133L119.357 85.7007ZM66.5 23.8099C75.5207 30.6127 90.8038 47.3239 86.1816 52.0563C80.8885 56.6408 74.0297 59.3768 66.5 59.3768C58.9703 59.3768 52.037 56.6408 46.8184 52.0563C42.1216 47.3239 57.4793 30.6127 66.4254 23.8838C66.4254 23.8099 66.5 23.8099 66.5 23.8099ZM82.0813 4.36268C77.5336 1.62676 72.5387 0 66.5 0C60.4613 0 55.4664 1.62676 50.9187 4.36268C50.8442 4.36268 50.8442 4.43662 50.8442 4.51056C50.8442 4.58451 50.9187 4.58451 50.9933 4.58451C56.8083 3.32746 65.6054 8.28169 66.4254 8.7993H66.5746C67.3946 8.28169 76.1917 3.32746 82.0067 4.58451C82.0813 4.58451 82.1558 4.58451 82.1558 4.51056C82.1558 4.43662 82.1558 4.36268 82.0813 4.36268ZM45.551 8.50352C45.4765 8.50352 45.4765 8.57747 45.4019 8.57747C39.9596 13.9754 36.6048 21.4437 36.6048 29.6514C36.6048 36.3803 38.9159 42.6655 42.718 47.6197C42.718 47.6937 42.7926 47.6937 42.8672 47.6937C42.9417 47.6937 42.9417 47.6197 42.8672 47.5458C40.5561 40.5211 52.2606 23.588 58.2993 16.4894L58.3739 16.4155C58.3739 16.3416 58.3739 16.3415 58.2993 16.3415C49.1295 7.32042 46.0729 8.28169 45.551 8.50352ZM74.7007 16.2676L74.6261 16.3415C74.6261 16.3415 74.6261 16.4155 74.7007 16.4155C80.7393 23.5141 92.3694 40.4472 90.1329 47.4718V47.6197C90.2074 47.6197 90.282 47.6197 90.282 47.5458C94.0841 42.5916 96.3952 36.3063 96.3952 29.5775C96.3952 21.3697 93.0404 13.9014 87.5235 8.50352C87.449 8.42958 87.449 8.42958 87.3744 8.42958C86.9271 8.28169 83.8705 7.32042 74.7007 16.2676Z" fill="#0F0F0F" fill-opacity="0.8"/>
</g>
<defs>
<clipPath id="clip0_2001_57">
<rect width="133" height="105" fill="white"/>
</clipPath>
</defs>
</svg>
