<svg width="256" height="60" viewBox="0 0 256 60" fill="none" xmlns="http://www.w3.org/2000/svg">
<path d="M33.4831 60C13.4116 59.9935 0 46.4611 0 30.0534C0 13.6457 13.4422 -0.0419492 33.4525 9.66321e-05H222.548C242.558 -0.0419539 256 13.6457 256 30.0534C256 46.4611 242.588 59.9935 222.517 60H33.4831ZM33.5443 7.38083C17.6544 7.40994 7.90077 17.514 7.90077 30.0146C7.90077 42.512 17.5932 52.7002 33.5443 52.6452H222.456C238.407 52.6969 248.103 42.512 248.103 30.0146C248.103 17.5172 238.349 7.41316 222.459 7.38405L33.5443 7.38083ZM232.617 17.9312C234.062 17.9312 234.779 18.3969 234.779 19.3187C234.779 19.9526 234.365 20.4313 233.675 20.5963L234.807 22.7471H233.437L232.468 20.7742H231.866V22.7471H230.632V17.9312H232.617ZM232.505 16.0488C229.983 16.0488 227.936 17.9959 227.936 20.3957C227.936 22.7956 229.983 24.7427 232.505 24.7427C235.028 24.7427 237.074 22.7956 237.074 20.3957C237.074 17.9959 235.028 16.0488 232.505 16.0488ZM236.2 20.399C236.2 22.3396 234.545 23.9147 232.505 23.9147C230.465 23.9147 228.81 22.3396 228.81 20.399C228.81 18.4584 230.465 16.8833 232.505 16.8833C234.545 16.8833 236.2 18.4551 236.2 20.399ZM231.866 20.0691H232.468C233.171 20.0691 233.511 19.8653 233.511 19.3866C233.511 18.8853 233.148 18.6686 232.406 18.6686H231.866V20.0691ZM128.598 31.8388C128.585 30.1925 128.622 29.0928 129.19 28.1549C129.887 26.997 131.168 26.4472 132.331 26.4407H132.328C133.49 26.4472 134.772 26.997 135.469 28.1549C136.037 29.0961 136.06 30.1957 136.047 31.842L128.598 31.8388ZM136.016 37.5021C136.016 37.5021 136.023 37.5862 136.023 38.6406C136.023 42.0754 133.647 42.8387 132.328 42.8387C131.009 42.8387 128.592 42.0754 128.592 38.6406C128.592 37.612 128.598 34.7626 128.598 34.7626C128.598 34.7626 145.416 34.7691 145.416 34.7593C145.416 28.9343 139.504 24.1086 132.243 24.1086C124.981 24.1086 119.096 28.8307 119.096 34.6558C119.096 40.4808 124.981 45.1997 132.243 45.1997C138.267 45.1997 143.356 41.9298 144.91 37.4955L136.016 37.5021ZM164.108 24.4225C167.446 24.3319 174.218 26.4116 174.171 33.8473C174.164 35.1669 174.167 44.0677 174.167 44.0677H165.297C165.297 44.0677 165.297 32.9061 165.297 31.732C165.297 30.0955 163.652 28.2745 161.218 28.2745C158.787 28.2745 156.978 30.0955 156.978 31.732C156.978 32.5341 156.989 44.0677 156.989 44.0677H148.126L148.133 25.286L156.992 25.2796C156.992 25.2796 156.982 26.79 156.992 27.2557C158.699 25.7065 161.16 24.5033 164.108 24.4225ZM91.5524 24.4225C94.8909 24.3319 101.663 26.4116 101.615 33.8473C101.609 35.1669 101.612 44.0677 101.612 44.0677H92.7422C92.7422 44.0677 92.7422 32.9061 92.7422 31.732C92.7422 30.0955 91.0968 28.2745 88.6626 28.2745C86.2319 28.2745 84.4233 30.0955 84.4233 31.732C84.4233 32.5341 84.4335 44.0677 84.4335 44.0677H75.5706L75.5671 25.286L84.4368 25.2796C84.4368 25.2796 84.4266 26.79 84.4368 27.2557C86.1434 25.7065 88.6015 24.5033 91.5524 24.4225ZM193.413 15.8289H202.224V44.0742H193.399C193.399 44.0742 193.395 43.1621 193.395 42.9875C189.979 45.0283 186.124 45.0251 183.122 43.6926C182.316 43.3368 177.016 40.9175 177.016 34.3809C177.016 29.4227 181.932 24.0085 188.367 24.5454C190.485 24.7232 191.991 25.4574 193.419 26.2207C193.412 21.8738 193.413 15.8289 193.413 15.8289ZM193.477 34.5879C193.477 34.5879 193.477 32.2333 193.477 31.2307C193.477 28.3263 191.369 27.5856 189.982 27.5856C188.561 27.5856 186.481 28.3263 186.481 31.2307C186.481 32.1945 186.484 34.5782 186.484 34.5782C186.484 34.5782 186.481 36.9199 186.481 37.9193C186.481 40.8205 188.561 41.5806 189.979 41.5806C191.369 41.5806 193.481 40.8205 193.481 37.9193C193.481 36.7129 193.477 34.5879 193.477 34.5879ZM221.766 34.533C221.766 34.533 221.762 37.3727 221.762 38.5112C221.762 41.5062 219.902 42.7417 218.114 42.7417C216.323 42.7417 214.456 41.5062 214.456 38.5112C214.456 37.3727 214.46 34.4618 214.46 34.4618C214.46 34.4618 214.467 31.6835 214.467 30.5451C214.467 27.563 216.336 26.3372 218.114 26.3372C219.896 26.3372 221.762 27.563 221.762 30.5451C221.762 31.6835 221.759 33.7891 221.769 34.5426L221.766 34.533ZM218.179 24.0085C210.972 24.0085 205.131 28.7306 205.131 34.5556C205.131 40.3806 210.975 45.1027 218.179 45.1027C225.386 45.1027 231.227 40.3806 231.227 34.5556C231.227 28.7306 225.386 24.0085 218.179 24.0085ZM61.7035 21.5957V15.8224H70.6514V21.5957H61.7035ZM61.7239 44.0742V25.2893L70.6514 25.2926V44.0743L61.7239 44.0742ZM106.514 44.0742L106.518 25.3281H101.663V22.5401L106.521 22.5368L106.514 18.7332H115.449V22.5335H120.283V25.328H115.449L115.455 44.0741L106.514 44.0742ZM25.3919 44.0742L25.3953 15.8289H34.6458L47.442 35.5259L47.4352 15.8289H56.6143V44.0742H47.4488L34.5846 24.3772V44.0742H25.3919Z" fill="#0F0F0F" fill-opacity="0.8"/>
</svg>
