<svg width="89" height="105" viewBox="0 0 89 105" fill="none" xmlns="http://www.w3.org/2000/svg">
<g clip-path="url(#clip0_2001_64)">
<mask id="mask0_2001_64" style="mask-type:luminance" maskUnits="userSpaceOnUse" x="-39" y="-22" width="166" height="149">
<path d="M-38.2384 -21.2433H126.789V126.197H-38.2384V-21.2433Z" fill="white"/>
</mask>
<g mask="url(#mask0_2001_64)">
<path fill-rule="evenodd" clip-rule="evenodd" d="M80.9177 -6.10352e-05H8.08229C2.17872 -6.10352e-05 0 2.21503 0 8.21993V80.6784C0 81.3579 0.0269533 81.9891 0.0859963 82.5739C0.220402 83.8847 0.245706 85.1548 1.44472 86.6009C1.56189 86.7426 2.78602 87.6687 2.78602 87.6687C3.44448 87.997 3.89408 88.2388 4.6367 88.5427L40.5018 103.82C42.3637 104.688 43.1423 105.026 44.4946 104.998V104.999C44.4964 104.999 44.498 104.999 44.4999 104.999C44.5017 104.999 44.5034 104.999 44.5052 104.999V104.998C45.8575 105.026 46.6361 104.688 48.4981 103.82L84.3631 88.5427C85.1059 88.2388 85.5553 87.997 86.2139 87.6687C86.2139 87.6687 87.4381 86.7426 87.555 86.6009C88.7541 85.1548 88.7794 83.8847 88.9138 82.5739C88.9728 81.9891 88.9999 81.3579 88.9999 80.6784V8.21993C88.9999 2.21503 86.821 -6.10352e-05 80.9177 -6.10352e-05Z" fill="#0F0F0F" fill-opacity="0.8"/>
<path d="M76.0392 72.8472L76.0227 73.0145L76.0064 73.1981L75.9734 73.3653L75.9242 73.5324L75.8923 73.6828L75.8428 73.85L75.7772 74.0005L75.7114 74.1343L75.6466 74.2846L75.5645 74.4182L75.4823 74.5521L75.3846 74.6858L75.3023 74.8194L75.2047 74.9363L75.0896 75.0534L74.9918 75.1537L74.8606 75.2708L74.7463 75.371L74.6148 75.4713L74.4843 75.5537L74.3537 75.654L74.2058 75.7376L74.0587 75.8045L73.9118 75.888L73.7474 75.9549L73.584 76.0219L73.4206 76.0718L73.2572 76.1221L73.1093 76.1721L72.9459 76.2057L72.7988 76.239L72.652 76.2724L72.4875 76.306L72.3239 76.3226L72.177 76.3393L72.0126 76.3561L71.8329 76.3729L71.6693 76.3895H71.5059H71.326H71.1453H70.9819L70.8183 76.3729H70.6386L70.4751 76.3561L70.3108 76.3393L70.1309 76.3226L69.9675 76.2892L69.8041 76.2724L69.6397 76.239L69.4761 76.2057L69.3127 76.1721L69.1493 76.1387L68.985 76.0888L68.838 76.0552L68.6746 76.0051L68.5111 75.9549L68.3633 75.888L68.1999 75.8379L68.0528 75.7879L67.8893 75.721L67.7415 75.654L67.5944 75.5871L67.4474 75.5047L67.2996 75.4378L67.1525 75.3541L67.022 75.2708L66.874 75.187L66.7434 75.1035L66.612 75.02L66.4814 74.9197L66.3508 74.8194L66.2194 74.7191L66.0886 74.6188L65.9737 74.5185L65.8431 74.4016L65.9418 74.268L66.0558 74.1509L66.1545 74.0171L66.2687 73.8834L66.3674 73.7665L66.4649 73.6328L66.5801 73.499L66.6776 73.3821L66.7928 73.2484L66.8905 73.1314L67.0055 72.9977L67.1032 72.8638L67.2018 72.7469L67.3159 72.6133L67.4145 72.4794L67.5286 72.3625L67.6272 72.2289L67.7578 72.3292L67.9049 72.4295L68.0363 72.5298L68.1834 72.6301L68.3149 72.7136L68.4619 72.8137L68.5923 72.8974L68.7404 72.9641L68.8708 73.0478L69.0179 73.1148L69.1658 73.1815L69.3127 73.2484L69.46 73.2986L69.6077 73.3653L69.7711 73.4155L69.9347 73.4656L70.0816 73.5158L70.246 73.5493L70.4094 73.5827L70.5728 73.6161L70.7527 73.6328L70.917 73.6662H71.0805L71.2602 73.6828H71.4238H71.62L71.7999 73.6662L71.9643 73.6328L72.1112 73.5993L72.2583 73.5659L72.3897 73.5158L72.504 73.449L72.6354 73.3487L72.733 73.2316L72.7988 73.0978L72.8483 72.9475L72.8645 72.7803V72.7469L72.8483 72.5464L72.7825 72.3791L72.7002 72.2622L72.5861 72.1619L72.4545 72.0617L72.3239 71.9949L72.177 71.928L72.0126 71.8611L71.8164 71.7777L71.7021 71.7442L71.5718 71.7108L71.4238 71.6605L71.2767 71.6271L71.1133 71.577L70.9489 71.5436L70.7692 71.4934L70.6056 71.4601L70.4257 71.4099L70.2624 71.3765L70.0979 71.3264L69.9347 71.2928L69.7711 71.2427L69.6232 71.1927L69.46 71.1592L69.3127 71.109L69.1658 71.0589L69.0179 71.0087L68.838 70.9418L68.6746 70.8749L68.5111 70.8081L68.3468 70.7412L68.1999 70.6577L68.0363 70.5742L67.9049 70.4907L67.7578 70.4071L67.6272 70.3068L67.4958 70.2233L67.3817 70.1228L67.2668 70.006L67.1525 69.8889L67.0539 69.7718L66.9563 69.6549L66.874 69.538L66.7928 69.4042L66.7106 69.2539L66.6448 69.138L66.5955 69.0041L66.5472 68.8537L66.4979 68.72L66.4649 68.5528L66.4321 68.4023L66.4156 68.2353L66.3993 68.0681L66.3828 67.8845V67.7005V67.6671V67.4999L66.3993 67.3328L66.4156 67.1824L66.4321 67.0152L66.4649 66.8649L66.4979 66.7145L66.5472 66.5638L66.5801 66.4136L66.6448 66.2631L66.7106 66.1127L66.7763 65.9624L66.8577 65.8118L66.9396 65.6615L67.0374 65.5277L67.1362 65.394L67.2502 65.2604L67.3652 65.1435L67.4795 65.0096L67.6109 64.8925L67.725 64.809L67.8564 64.7087L67.9872 64.6084L68.1176 64.5249L68.2655 64.4414L68.4126 64.3745L68.5595 64.2909L68.7074 64.2242L68.8708 64.1739L69.0342 64.1071L69.1822 64.057L69.3127 64.0234L69.46 63.9901L69.6077 63.9567L69.7711 63.9233L69.9182 63.8898L70.0816 63.8732L70.246 63.8564L70.4094 63.8396L70.5728 63.823H70.7362H70.917H71.097H71.2767L71.4566 63.8396L71.6365 63.8564H71.7999L71.9807 63.8732L72.144 63.9065L72.3239 63.9233L72.4875 63.9567L72.6354 63.9901L72.7988 64.0234L72.9622 64.057L73.1093 64.0904L73.2735 64.1405L73.4206 64.1907L73.5677 64.2242L73.732 64.2909L73.879 64.3411L74.0259 64.4078L74.1729 64.4748L74.3372 64.5417L74.4843 64.6252L74.6148 64.6921L74.7628 64.7757L74.9099 64.8592L75.0404 64.9429L75.1882 65.0432L75.319 65.1265L75.4504 65.227L75.581 65.3273L75.7114 65.4274L75.6138 65.5612L75.5317 65.6949L75.4339 65.8286L75.3353 65.9624L75.2377 66.1127L75.1554 66.2463L75.0568 66.3802L74.959 66.5139L74.8771 66.6475L74.7791 66.7814L74.6807 66.9151L74.5984 67.0487L74.5008 67.1992L74.402 67.3328L74.3044 67.4665L74.2223 67.6002L74.1245 67.7338L73.9931 67.6337L73.8462 67.55L73.7155 67.4665L73.584 67.3662L73.4371 67.2995L73.3055 67.2158L73.1586 67.1488L73.028 67.0821L72.8801 67.0152L72.7495 66.9484L72.6026 66.8983L72.4712 66.8313L72.2911 66.7814L72.1277 66.7311L71.9643 66.6811L71.7999 66.6475L71.6365 66.6142L71.4731 66.5806L71.3097 66.5638L71.1453 66.5472L70.9984 66.5305H70.8348H70.6386L70.4587 66.5638L70.2943 66.5974L70.1474 66.6308L70.0168 66.6977L69.9017 66.7644L69.7546 66.8983L69.656 67.0487L69.5914 67.1992L69.5747 67.3662V67.3998L69.5914 67.6169L69.6725 67.8008L69.7383 67.901L69.8524 68.0181L70.0003 68.1016L70.1309 68.1852L70.2943 68.2521L70.4751 68.319L70.6714 68.3857L70.802 68.4191L70.9325 68.4693L71.0805 68.5026L71.2274 68.5528L71.3908 68.5863L71.5718 68.6365L71.7516 68.6865L71.9315 68.7368L72.1112 68.7702L72.2746 68.8203L72.4545 68.8705L72.6189 68.9038L72.7825 68.954L72.9459 69.0041L73.0928 69.0543L73.2572 69.1044L73.4043 69.1546L73.5512 69.2047L73.732 69.2705L73.8953 69.3542L74.0587 69.421L74.2223 69.5045L74.3702 69.5882L74.5173 69.6717L74.6477 69.7552L74.7791 69.8555L74.9099 69.939L75.0404 70.0561L75.1719 70.173L75.286 70.3068L75.4009 70.4237L75.4987 70.5576L75.5973 70.7078L75.6785 70.8415L75.7609 70.9921L75.8265 71.1258L75.8758 71.2761L75.9242 71.4265L75.9571 71.577L75.9899 71.7442L76.0227 71.9114L76.0392 72.0784L76.0557 72.2622V72.4461V72.4794V72.6634L76.0392 72.8472ZM64.5618 76.1891H64.3975H64.2341H64.0707H63.9074H63.7429H63.5793H63.4161H63.2526H63.0718H62.9084H62.745H62.5816H62.417H62.2538H62.0902H61.9268H61.7624H61.599H61.4356H61.2722H61.1087H60.9444H60.781H60.6176H60.4541H60.2896H60.1262H59.9628H59.783H59.6187H59.4551H59.2917H59.1284H58.9641H58.8005H58.6371H58.4736H58.3093H58.1459H57.9825H57.819H57.6545H57.4913H57.3277H57.1643H57.0001H56.8365H56.6566H56.4932H56.3299H56.1654H56.002H55.8385H55.6753H55.511H55.3474H55.184V76.0219V75.8546V75.6876V75.5213V75.3541V75.187V75.02V74.853V74.6858V74.5185V74.3515V74.1843V74.0171V73.85V73.6828V73.5158V73.3487V73.1815V73.0311V72.8638V72.6968V72.5298V72.3625V72.1953V72.0283V71.8611V71.6938V71.5268V71.3598V71.1927V71.0255V70.8583V70.6913V70.524V70.3568V70.1898V70.0225V69.8555V69.6885V69.5213V69.3542V69.1879V69.0209V68.8537V68.6865V68.5194V68.3524V68.1852V68.0181V67.8509V67.6837V67.5166V67.3494V67.1824V67.0319V66.8649V66.6977V66.5305V66.3634V66.1962V66.0292V65.8619V65.6949V65.5277V65.3606V65.1934V65.0262V64.8592V64.6921V64.5249V64.3579V64.1907V64.0234H55.3474H55.511H55.6753H55.8385H56.002H56.1654H56.3299H56.4932H56.6566H56.8202H56.9845H57.148H57.3112H57.4748H57.6226H57.7861H57.9495H58.1131H58.2774H58.4407H58.6041H58.7677H58.932H59.0953H59.2587H59.4223H59.5868H59.7501H59.9135H60.0769H60.2414H60.4049H60.5681H60.7315H60.8951H61.0595H61.2229H61.3863H61.5497H61.7141H61.8775H62.0409H62.2043H62.3524H62.5158H62.6792H62.8427H63.007H63.1704H63.3338H63.4972H63.6616H63.825H63.9884H64.152H64.3163H64.4798H64.6432V64.1907V64.3411V64.5081V64.6754V64.8424V64.9928V65.1601V65.3273V65.4775V65.6448V65.8118V65.9624V66.1295V66.2965V66.4637V66.6142V66.7814H64.4798H64.3163H64.152H63.9884H63.825H63.6616H63.5137H63.3503H63.1869H63.0234H62.8591H62.6957H62.5321H62.3687H62.2043H62.0409H61.8775H61.7141H61.5497H61.4028H61.2392H61.0759H60.9114H60.7482H60.5846H60.4212H60.2568H60.0934H59.93H59.7666H59.6022H59.4386H59.2917H59.1284H58.9641H58.8005H58.6371H58.4736H58.3093V66.9484V67.1155V67.2825V67.4497V67.6169V67.7674V67.9344V68.1016V68.2687V68.4359V68.6029V68.7702H58.4736H58.6371H58.8005H58.9641H59.1284H59.2917H59.4551H59.6187H59.7666H59.93H60.0934H60.2568H60.4212H60.5846H60.7482H60.9114H61.0759H61.2392H61.4028H61.5662H61.7305H61.8938H62.0574H62.221H62.3853H62.5486H62.6957H62.8591H63.0234H63.1869H63.3503H63.5137H63.678H63.8415H64.0049V68.9372V69.0876V69.2539V69.421V69.5714V69.7384V69.9057V70.0561V70.2233V70.3904V70.5576V70.7078V70.8749V71.0421V71.1927V71.3598H63.8415H63.678H63.5137H63.3503H63.1869H63.0234H62.8591H62.6957H62.5486H62.3853H62.221H62.0574H61.8938H61.7305H61.5662H61.4028H61.2392H61.0759H60.9114H60.7482H60.5846H60.4212H60.2568H60.0934H59.93H59.7666H59.6187H59.4551H59.2917H59.1284H58.9641H58.8005H58.6371H58.4736H58.3093V71.5268V71.7108V71.8778V72.0451V72.2289V72.3961V72.5631V72.7469V72.914V73.0812V73.265V73.4321H58.4736H58.6371H58.8005H58.9641H59.1284H59.2917H59.4551H59.6187H59.783H59.9628H60.1262H60.2896H60.4541H60.6176H60.781H60.9444H61.1087H61.2722H61.4356H61.599H61.7624H61.9268H62.0902H62.2538H62.417H62.5816H62.745H62.9084H63.0718H63.2526H63.4161H63.5793H63.7429H63.9074H64.0707H64.2341H64.3975H64.5618H64.7253V73.5993V73.7497V73.9169V74.084V74.2512V74.4016V74.5687V74.7357V74.8863V75.0534V75.2204V75.371V75.5372V75.7042V75.8712V76.0219V76.1891H64.5618ZM52.6039 76.1891H52.4405H52.277H52.0964H51.933H51.7694H51.6061H51.4416H51.2782H51.0983H50.9349H50.7714H50.6071H50.4437H50.2803H50.1005H49.936H49.7726H49.609V76.0219V75.8546V75.6876V75.5204V75.3522V75.1852V75.018V74.8507V74.6837V74.5167V74.3494V74.1815V74.0143V73.847V73.68V73.5128V73.3446V73.1774V73.0104V72.8433V72.6761V72.5091V72.3409V72.1739V72.0067V71.8394V71.6724V71.5052V71.337V71.1698V71.0028V70.8357V70.6687V70.5015V70.3333V70.1663V69.9991V69.832V69.6648V69.4966V69.3296V69.1624V68.9952L49.5271 69.1288L49.4294 69.2804L49.347 69.4141L49.2495 69.5479L49.1673 69.6982L49.0685 69.832L48.9874 69.9657L48.9051 70.1171L48.8076 70.2507L48.7252 70.3844L48.6268 70.5182L48.5455 70.6696L48.4469 70.8033L48.3657 70.937L48.2833 71.0874L48.1847 71.222L48.1035 71.3559L48.0048 71.5061L47.9238 71.64L47.8251 71.7736L47.7439 71.925L47.6615 72.0589L47.5631 72.1925L47.4818 72.343L47.3832 72.4776L47.302 72.6112L47.2033 72.7451L47.121 72.8953L47.0398 73.0299L46.9413 73.1638L46.8601 73.3142L46.7614 73.4479L46.6793 73.5816L46.5815 73.7331L46.4994 73.8668H46.4345L46.336 73.7164L46.2537 73.5816L46.1559 73.4311L46.0738 73.2975L45.9761 73.1472L45.8939 73.0124L45.7964 72.862L45.714 72.7281L45.6154 72.5779L45.5342 72.4442L45.4355 72.2926L45.3545 72.159L45.2558 72.0085L45.1735 71.8749L45.0759 71.7235L44.9936 71.5898L44.8961 71.4394L44.7974 71.3057L44.7153 71.1543L44.6175 71.0207L44.5354 70.8702L44.4377 70.7366L44.3555 70.585L44.2578 70.4513L44.1756 70.3009L44.077 70.1672L43.9957 70.0168L43.8971 69.882L43.8159 69.7317L43.7172 69.5979L43.6351 69.4474L43.5375 69.314L43.455 69.1624L43.3575 69.0287V69.1958V69.363V69.5302V69.6982V69.8654V70.0324V70.1997V70.3669V70.5348V70.7021V70.8525V71.0195V71.1868V71.3538V71.522V71.6892V71.8562V72.0232V72.1905V72.3577V72.5257V72.6929V72.8601V73.0271V73.1944V73.3614V73.5296V73.6966V73.8638V74.0308V74.1981V74.366V74.5167V74.6837V74.8507V75.018V75.1852V75.3522V75.5204V75.6876V75.8546V76.0219V76.1891H43.1941H43.0298H42.8662H42.7029H42.5395H42.3752H42.2116H42.0482H41.8847H41.7204H41.557H41.3935H41.2301H41.0658H40.9024H40.7388H40.5753H40.411H40.2476V76.0219V75.8546V75.6876V75.5213V75.3541V75.187V75.02V74.853V74.6858V74.5185V74.3515V74.1843V74.0171V73.85V73.6828V73.5158V73.3487V73.1815V73.0311V72.8638V72.6968V72.5298V72.3625V72.1953V72.0283V71.8611V71.6938V71.5268V71.3598V71.1927V71.0255V70.8583V70.6913V70.524V70.3568V70.1898V70.0225V69.8555V69.6885V69.5213V69.3542V69.1879V69.0209V68.8537V68.6865V68.5194V68.3524V68.1852V68.0181V67.8509V67.6837V67.5166V67.3494V67.1824V67.0319V66.8649V66.6977V66.5305V66.3634V66.1962V66.0292V65.8619V65.6949V65.5277V65.3606V65.1934V65.0262V64.8592V64.6921V64.5249V64.3579V64.1907V64.0234H40.411H40.5753H40.7225H40.8857H41.0493H41.2136H41.3606H41.524H41.6885H41.8519H41.9989H42.1623H42.3268H42.4902H42.637H42.8004H42.9649H43.1284H43.2753H43.4387H43.6032L43.6844 64.1573L43.7665 64.3075L43.8641 64.4403L43.9464 64.5907L44.0286 64.7244L44.1098 64.875L44.1919 65.0076L44.2899 65.1582L44.3718 65.2919L44.4542 65.4255L44.5354 65.5749L44.6175 65.7087L44.7153 65.859L44.7974 65.9928L44.8796 66.1421L44.9608 66.2758L45.0594 66.4095L45.1418 66.5592L45.2228 66.6926L45.305 66.8431L45.3864 66.9769L45.485 67.1263L45.5672 67.2601L45.6482 67.4104L45.7305 67.5431L45.8118 67.6768L45.9104 67.8272L45.9926 67.9611L46.0738 68.1115L46.1559 68.2443L46.2372 68.3947L46.336 68.5284L46.4182 68.6777L46.4994 68.8115L46.5815 68.6777L46.6637 68.5284L46.7614 68.3947L46.8434 68.2443L46.9248 68.1115L47.0069 67.9611L47.1047 67.8272L47.1868 67.6768L47.2691 67.5431L47.3502 67.4104L47.4488 67.2601L47.5301 67.1263L47.6124 66.9769L47.6944 66.8431L47.7921 66.6926L47.8742 66.5592L47.9566 66.4095L48.0376 66.2758L48.1201 66.1421L48.2177 65.9928L48.2998 65.859L48.382 65.7087L48.4634 65.5749L48.5619 65.4255L48.6433 65.2919L48.7252 65.1582L48.8076 65.0076L48.9051 64.875L48.9874 64.7244L49.0685 64.5907L49.1508 64.4403L49.2495 64.3075L49.3307 64.1573L49.4128 64.0234H49.5762H49.7398H49.8876H50.0511H50.2145H50.3779H50.5259H50.6894H50.8526H51.0162H51.1642H51.3275H51.4909H51.6545H51.8023H51.9658H52.1292H52.2926H52.4405H52.6039H52.7673V64.1907V64.3579V64.5249V64.6921V64.8592V65.0262V65.1934V65.3606V65.5277V65.6949V65.8619V66.0292V66.1962V66.3634V66.5305V66.6977V66.8649V67.0319V67.1824V67.3494V67.5166V67.6837V67.8509V68.0181V68.1852V68.3524V68.5194V68.6865V68.8537V69.0209V69.1879V69.3542V69.5213V69.6885V69.8555V70.0225V70.1898V70.3568V70.524V70.6913V70.8583V71.0255V71.1927V71.3598V71.5268V71.6938V71.8611V72.0283V72.1953V72.3625V72.5298V72.6968V72.8638V73.0311V73.1815V73.3487V73.5158V73.6828V73.85V74.0171V74.1843V74.3515V74.5185V74.6858V74.853V75.02V75.187V75.3541V75.5213V75.6876V75.8546V76.0219V76.1891H52.6039ZM33.615 71.176L33.5657 71.0246L33.5009 70.8574L33.4351 70.7069L33.3858 70.5555L33.3211 70.4051L33.2554 70.2379L33.2059 70.0865L33.1401 69.936L33.0755 69.7858L33.026 69.6344L32.9602 69.4672L32.912 69.3167L32.8462 69.1654L32.7803 69.0149L32.7312 68.8645L32.6663 68.6965L32.6006 68.5459L32.5513 68.3956L32.4855 68.2443L32.4208 68.077L32.3714 67.9257L32.3056 67.7752L32.2409 67.9257L32.1917 68.077L32.1259 68.2443L32.0601 68.3956L32.0117 68.5459L31.946 68.6965L31.8802 68.8645L31.8155 69.0149L31.766 69.1654L31.7003 69.3167L31.6345 69.4672L31.5861 69.6344L31.5204 69.7858L31.4546 69.936L31.4055 70.0865L31.3406 70.2379L31.2747 70.4051L31.2091 70.5555L31.1609 70.7069L31.095 70.8574L31.0292 71.0246L30.9799 71.176L30.9152 71.3264H31.0785H31.2419H31.4055H31.5698H31.7331H31.8965H32.0601H32.2246H32.3714H32.5348H32.6993H32.8627H33.026H33.1896H33.353H33.5173H33.6806L33.615 71.176ZM38.7547 76.1891H38.5904H38.4431H38.2799H38.1155H37.9521H37.7885H37.6417H37.4772H37.3138H37.1504H36.9869H36.8226H36.6755H36.5121H36.3486H36.1843H36.0209H35.8739H35.7105H35.5462L35.4813 76.0384L35.4319 75.888L35.3663 75.7376L35.3005 75.5705L35.2521 75.421L35.1864 75.2708L35.1206 75.1203L35.0722 74.9699L35.0065 74.8194L34.9407 74.669L34.8916 74.5185L34.8267 74.3515L34.7608 74.2011L34.7115 74.0506L34.6457 73.9002H34.4823H34.3189H34.1556H33.9922H33.8442H33.6806H33.5173H33.353H33.1896H33.026H32.8627H32.6993H32.5348H32.3714H32.2246H32.0601H31.8965H31.7331H31.5698H31.4055H31.2419H31.0785H30.9152H30.7518H30.6036H30.4404H30.2769H30.1124H29.949L29.8843 74.0506L29.835 74.2011L29.7691 74.3515L29.7035 74.5185L29.6551 74.669L29.5894 74.8194L29.5236 74.9699L29.4743 75.1203L29.4096 75.2708L29.3437 75.421L29.2944 75.5705L29.2295 75.7376L29.1639 75.888L29.1145 76.0384L29.0487 76.1891H28.8853H28.722H28.5586H28.3941H28.2307H28.0508H27.8875H27.7239H27.5596H27.3962H27.2329H27.0693H26.9048H26.7416H26.5782H26.3984H26.2339H26.0705H25.907H25.7436L25.8083 76.0384L25.8741 75.888L25.9398 75.7376L26.0047 75.5705L26.054 75.421L26.1198 75.2708L26.1855 75.1203L26.2502 74.9699L26.316 74.8194L26.3819 74.6522L26.4466 74.5018L26.5124 74.3515L26.5616 74.2011L26.6274 74.0506L26.6921 73.9002L26.7579 73.7331L26.8236 73.5827L26.8885 73.4321L26.9543 73.2818L27.02 73.1314L27.0693 72.9809L27.134 72.8137L27.1999 72.6634L27.2657 72.513L27.3304 72.3625L27.3962 72.2121L27.4621 72.0617L27.5268 71.8944L27.5761 71.7442L27.6419 71.5937L27.7076 71.4433L27.7725 71.2928L27.8381 71.1424L27.9038 70.9754L27.9687 70.8249L28.0343 70.6745L28.0837 70.524L28.1495 70.3738L28.2142 70.2233L28.28 70.0561L28.3459 69.9057L28.4106 69.7552L28.4762 69.6048L28.5421 69.4545L28.5914 69.3039L28.6563 69.1546L28.722 68.9873L28.7876 68.8371L28.8525 68.6865L28.9181 68.536L28.984 68.3857L29.0487 68.2353L29.098 68.0681L29.1639 67.9178L29.2295 67.7674L29.2944 67.6169L29.3602 67.4665L29.4259 67.316L29.4908 67.1488L29.5564 66.9986L29.6058 66.8481L29.6714 66.6977L29.7363 66.5472L29.802 66.3968L29.8678 66.2298L29.9325 66.0793L29.9983 65.9289L30.0642 65.7784L30.1124 65.6282L30.1782 65.4775L30.244 65.3105L30.3099 65.1601L30.3746 65.0096L30.4404 64.8592L30.5061 64.7087L30.5708 64.5585L30.6203 64.3912L30.686 64.2408L30.7518 64.0904L30.8165 63.9399H30.9799H31.1279H31.2912H31.4546H31.6191H31.766H31.9293H32.0929H32.2574H32.4044H32.5676H32.7312H32.8955H33.0425H33.2059H33.3693H33.5338H33.6806H33.8442L33.9098 64.0904L33.9757 64.2408L34.0406 64.3912L34.1062 64.5585L34.1556 64.7087L34.2203 64.8592L34.2861 65.0096L34.3518 65.1601L34.4176 65.3105L34.4823 65.4775L34.5481 65.6282L34.614 65.7784L34.6622 65.9289L34.728 66.0793L34.7938 66.2298L34.8597 66.3968L34.9244 66.5472L34.99 66.6977L35.0559 66.8481L35.1206 66.9986L35.1699 67.1488L35.2356 67.316L35.3005 67.4665L35.3663 67.6169L35.4319 67.7674L35.4978 67.9178L35.5625 68.0681L35.6281 68.2353L35.6777 68.3857L35.7424 68.536L35.808 68.6865L35.8739 68.8371L35.9397 68.9873L36.0044 69.1546L36.0702 69.3039L36.1359 69.4545L36.1843 69.6048L36.2499 69.7552L36.3158 69.9057L36.3807 70.0561L36.4463 70.2233L36.5121 70.3738L36.578 70.524L36.6427 70.6745L36.692 70.8249L36.7577 70.9754L36.8226 71.1424L36.8882 71.2928L36.954 71.4433L37.0197 71.5937L37.0846 71.7442L37.1504 71.8944L37.1996 72.0617L37.2645 72.2121L37.3301 72.3625L37.396 72.513L37.4607 72.6634L37.5265 72.8137L37.5923 72.9809L37.6582 73.1314L37.7064 73.2818L37.7722 73.4321L37.838 73.5827L37.9028 73.7331L37.9684 73.9002L38.0342 74.0506L38.0999 74.2011L38.1646 74.3515L38.2141 74.5018L38.2799 74.6522L38.3447 74.8194L38.4103 74.9699L38.476 75.1203L38.5409 75.2708L38.6065 75.421L38.6723 75.5705L38.7219 75.7376L38.7864 75.888L38.8522 76.0384L38.9179 76.1891H38.7547ZM24.4169 74.6354L24.2855 74.7357L24.1712 74.8194L24.0398 74.9197L23.9092 75.0032L23.7787 75.1035L23.6472 75.187L23.5166 75.2708L23.3687 75.3541L23.2216 75.4378L23.0745 75.5213L22.9268 75.5871L22.7797 75.6708L22.6163 75.7376L22.4694 75.8045L22.305 75.8712L22.1581 75.9381L22.0109 75.9883L21.8631 76.0384L21.716 76.0888L21.5526 76.1387L21.4058 76.1891L21.2413 76.2224L21.0942 76.2558L20.9308 76.2892L20.7666 76.3226L20.603 76.3393L20.4231 76.3561L20.2597 76.3729L20.0799 76.3895L19.9154 76.4063L19.7357 76.4229H19.5558H19.3757H19.196H19.0316L18.8682 76.4063L18.6883 76.3895L18.5249 76.3729L18.3616 76.3561L18.1971 76.3393L18.0337 76.306L17.8701 76.2724L17.7233 76.239L17.559 76.2057L17.4119 76.1555L17.2485 76.1221L17.1006 76.0718L16.9535 76.0051L16.8065 75.9549L16.6433 75.888L16.4953 75.8213L16.3482 75.7545L16.2014 75.6876L16.0532 75.6041L15.9228 75.5213L15.7758 75.4378L15.6443 75.3541L15.5137 75.2708L15.3823 75.1703L15.2517 75.0702L15.121 74.9699L15.006 74.8696L14.892 74.7693L14.7768 74.6522L14.6628 74.5521L14.5476 74.435L14.4335 74.3179L14.3349 74.2011L14.2372 74.0674L14.1385 73.9503L14.0564 73.8166L13.9586 73.6828L13.8767 73.5493L13.7953 73.4155L13.7131 73.265L13.631 73.1314L13.5662 72.9809L13.5004 72.8305L13.4348 72.68L13.3699 72.5298L13.3205 72.3961L13.2547 72.2455L13.2219 72.095L13.1735 71.9448L13.1407 71.7777L13.0913 71.6271L13.0585 71.4601L13.042 71.3096L13.009 71.1424L12.9929 70.9921L12.9762 70.8249L12.9608 70.6577L12.9445 70.4907V70.3068V70.1396V70.1063V69.939L12.9608 69.7552V69.5882L12.9762 69.421L12.9929 69.2371L13.0257 69.071L13.042 68.9038L13.0748 68.7534L13.1242 68.5863L13.1572 68.4191L13.2054 68.2687L13.2547 68.1016L13.304 67.9512L13.3699 67.784L13.4348 67.6337L13.5004 67.4833L13.5662 67.3328L13.631 67.1824L13.7131 67.0319L13.7953 66.8983L13.8767 66.7644L13.9586 66.6308L14.041 66.4971L14.1385 66.3634L14.2372 66.2298L14.3349 66.0961L14.4335 65.9788L14.5476 65.8619L14.6462 65.7449L14.7605 65.6282L14.8755 65.5109L14.9895 65.4108L15.121 65.2937L15.2352 65.1934L15.3658 65.0931L15.4972 65.0096L15.6278 64.9093L15.7594 64.8258L15.8898 64.7423L16.0369 64.6586L16.1849 64.5751L16.3317 64.4915L16.4788 64.4246L16.6266 64.3579L16.7901 64.2742L16.9207 64.2242L17.0841 64.1739L17.2322 64.1071L17.3791 64.0736L17.526 64.0234L17.6903 63.9901L17.8373 63.9399L18.0007 63.9065L18.1643 63.8898L18.3286 63.8564L18.4921 63.8396L18.6553 63.823L18.8189 63.8062L18.9833 63.7895H19.1632H19.3266H19.5063H19.6862L19.8672 63.8062L20.047 63.823H20.2104L20.3738 63.8396L20.5537 63.8732L20.7016 63.8898L20.865 63.9233L21.0286 63.9567L21.1764 63.9901L21.3232 64.0234L21.4705 64.057L21.6185 64.1071L21.7653 64.1405L21.8959 64.1907L22.0439 64.2408L22.1909 64.3075L22.3378 64.3745L22.4858 64.4414L22.6328 64.5249L22.7797 64.5918L22.9114 64.6754L23.0582 64.7589L23.1888 64.8424L23.3368 64.9261L23.4673 65.0262L23.5979 65.1099L23.7293 65.2102L23.8599 65.3105L23.9914 65.4274L24.1219 65.5277L24.0233 65.6615L23.9092 65.7784L23.8106 65.9121L23.6965 66.0458L23.5979 66.1796L23.5001 66.2965L23.385 66.4302L23.2874 66.5638L23.1888 66.6811L23.0745 66.8148L22.9761 66.9484L22.8618 67.0821L22.7632 67.1992L22.6656 67.3328L22.5507 67.4665L22.4528 67.6002L22.3378 67.7172L22.2401 67.8509L22.1086 67.7506L21.978 67.6337L21.8466 67.55L21.716 67.4497L21.5855 67.3662L21.454 67.2825L21.3232 67.1992L21.1764 67.1155L21.0449 67.0487L20.9143 66.9818L20.7829 66.9316L20.6358 66.8815L20.4889 66.8313L20.341 66.798L20.1776 66.7644L20.0142 66.7311L19.8506 66.7145L19.6708 66.6977L19.49 66.6811H19.3101H19.1467L18.9833 66.6977L18.8354 66.7145L18.672 66.7478L18.5249 66.7814L18.377 66.8313L18.2301 66.8815L18.083 66.9484L17.936 67.0152L17.8045 67.0987L17.6741 67.1824L17.5425 67.2661L17.4284 67.3662L17.3133 67.4665L17.1992 67.5668L17.1006 67.6837L16.9865 67.8008L16.8879 67.9344L16.8065 68.0515L16.7243 68.1852L16.6433 68.3356L16.5609 68.4693L16.4953 68.6197L16.446 68.7702L16.381 68.9206L16.3317 69.0876L16.2989 69.2539L16.2661 69.4042L16.2331 69.5882L16.2168 69.7552L16.2014 69.9223V70.1063V70.1396V70.3068L16.2168 70.4739L16.2331 70.6243L16.2496 70.7915L16.2824 70.9418L16.3154 71.0924L16.3482 71.2427L16.3976 71.3931L16.446 71.5268L16.5118 71.6938L16.5774 71.8445L16.6587 71.9949L16.7408 72.1286L16.823 72.2622L16.9207 72.3961L17.0193 72.513L17.1334 72.6301L17.2322 72.7469L17.3461 72.8472L17.4777 72.9475L17.6083 73.0478L17.7387 73.1314L17.8701 73.2149L18.0174 73.2818L18.1643 73.3487L18.312 73.4155L18.4756 73.4656L18.639 73.5158L18.8035 73.5493L18.9668 73.5827L19.1302 73.5993L19.3101 73.6161H19.49H19.6862L19.8672 73.5993L20.047 73.5827L20.2104 73.5659L20.3738 73.5324L20.5383 73.499L20.7016 73.449L20.8485 73.4155L20.9958 73.3487L21.1272 73.2818L21.2741 73.2149L21.3891 73.1481L21.5198 73.0644V72.8974V72.7304V72.5631V72.3961V72.2121V72.0451V71.8778V71.7108V71.5436H21.3562H21.2085H21.0449H20.8815H20.7181H20.5702H20.4066H20.2432H20.0799H19.9321H19.7685H19.6051H19.4416H19.2938H19.1302V71.3765V71.2261V71.0589V70.8918V70.7246V70.5742V70.4071V70.2399V70.0729V69.9223V69.7552V69.5882V69.421V69.2705V69.1044H19.2938H19.4581H19.6216H19.7848H19.9484H20.1118H20.2762H20.4396H20.603H20.7666H20.9308H21.0942H21.2576H21.421H21.5855H21.749H21.9124H22.0758H22.2401H22.4036H22.567H22.7304H22.8947H23.0582H23.2216H23.385H23.5495H23.7128H23.8764H24.0398H24.2041H24.3674H24.531V69.2705V69.4376V69.6048V69.7552V69.9223V70.0895V70.2565V70.4237V70.591V70.7412V70.9084V71.0757V71.2427V71.4099V71.577V71.7442V71.8944V72.0617V72.2289V72.3961V72.5631V72.7304V72.8974V73.0478V73.2149V73.3821V73.5493V73.7164V73.8834V74.034V74.2011V74.3681V74.5353L24.4169 74.6354Z" fill="white"/>
<path d="M19.1533 36.4977H26.2463V30.9196H19.1533V19.5317H26.5287V13.9535H13.13V54.2119H26.6409V48.6336H19.1533V36.4977Z" fill="white"/>
<path d="M69.9588 37.7063V46.7933C69.9588 48.4038 69.2267 49.151 67.7075 49.151H66.5809C65.0049 49.151 64.2728 48.4038 64.2728 46.7933V21.3722C64.2728 19.7619 65.0049 19.0147 66.5809 19.0147H67.5944C69.1145 19.0147 69.8466 19.7619 69.8466 21.3722V29.2521H75.757V21.0271C75.757 16.0241 73.3925 13.6084 68.4958 13.6084H65.5677C60.6708 13.6084 58.2493 16.0811 58.2493 21.0851V47.0804C58.2493 52.0846 60.6708 54.5571 65.5677 54.5571H68.5517C73.4497 54.5571 75.8699 52.0846 75.8699 47.0804V37.7063H69.9588Z" fill="white"/>
<path d="M49.0417 54.2119H55.066V13.9533H49.0417V54.2119Z" fill="white"/>
<path d="M40.3009 31.8396C40.3009 33.4501 39.5698 34.1982 38.0497 34.1982H35.5723V19.3596H38.0497C39.5698 19.3596 40.3009 20.107 40.3009 21.7171V31.8396ZM39.0062 13.9533H29.5488V54.2119H35.5723V39.6034H39.0062C43.904 39.6034 46.3244 37.1308 46.3244 32.1278V21.43C46.3244 16.426 43.904 13.9533 39.0062 13.9533Z" fill="white"/>
<path fill-rule="evenodd" clip-rule="evenodd" d="M27.3401 90.6136H61.8223L44.222 96.5146L27.3401 90.6136Z" fill="white"/>
</g>
</g>
<defs>
<clipPath id="clip0_2001_64">
<rect width="89" height="105" fill="white"/>
</clipPath>
</defs>
</svg>
